<?xml version="1.0" standalone="no"?>
<!DOCTYPE svg PUBLIC "-//W3C//DTD SVG 20010904//EN"
 "http://www.w3.org/TR/2001/REC-SVG-20010904/DTD/svg10.dtd">
<svg version="1.0" xmlns="http://www.w3.org/2000/svg"
 width="389.000000pt" height="389.000000pt" viewBox="0 0 389.000000 389.000000"
 preserveAspectRatio="xMidYMid meet">
<metadata>
Created by potrace 1.11, written by Peter Selinger 2001-2013
</metadata>
<g transform="translate(0.000000,389.000000) scale(0.100000,-0.100000)"
fill="#000000" stroke="none">
<path d="M0 1945 l0 -1945 1945 0 1945 0 0 1945 0 1945 -1945 0 -1945 0 0
-1945z m2239 1721 c388 -72 701 -240 968 -519 241 -253 395 -558 459 -912 25
-139 25 -441 0 -580 -99 -544 -424 -994 -908 -1255 -366 -197 -840 -252 -1253
-145 -485 126 -897 461 -1125 914 -241 481 -241 1071 0 1552 261 519 752 872
1330 955 121 17 413 12 529 -10z"/>
<path d="M1795 3634 c-104 -12 -192 -29 -280 -51 -108 -28 -297 -100 -354
-135 l-34 -22 24 -15 c204 -134 403 -334 526 -527 l48 -76 41 85 c94 200 154
456 154 663 l0 84 -47 -1 c-27 -1 -61 -4 -78 -5z"/>
<path d="M1986 3632 c-11 -18 12 -264 35 -373 11 -57 36 -146 54 -198 35 -100
91 -231 99 -231 2 0 15 19 29 43 45 77 162 220 255 311 76 75 223 193 288 232
17 10 9 16 -61 51 -141 71 -330 131 -485 152 -142 20 -207 23 -214 13z"/>
<path d="M1932 3292 c-26 -142 -76 -297 -138 -431 l-45 -96 40 -86 c58 -124
100 -254 132 -409 15 -74 28 -122 28 -107 3 111 84 384 158 533 l45 91 -32 63
c-71 140 -128 323 -153 488 l-12 77 -23 -123z"/>
<path d="M1024 3369 c-195 -125 -423 -360 -533 -552 l-33 -57 33 -53 c121
-197 308 -388 514 -524 l69 -46 41 23 c188 107 445 366 560 563 l27 47 -53 85
c-77 122 -207 274 -311 363 -94 82 -234 182 -253 182 -6 0 -33 -14 -61 -31z"/>
<path d="M2724 3354 c-132 -89 -271 -216 -371 -339 -55 -67 -153 -215 -153
-230 0 -24 141 -224 223 -317 84 -94 233 -222 334 -286 l52 -33 43 27 c194
121 411 345 537 552 l32 54 -65 98 c-80 120 -197 253 -299 342 -82 70 -235
178 -253 178 -5 0 -41 -21 -80 -46z"/>
<path d="M2131 2659 c-84 -183 -135 -380 -151 -592 -5 -67 -10 -131 -10 -141
0 -18 6 -19 99 -13 196 13 410 71 595 160 l107 52 -91 64 c-168 118 -336 293
-449 466 -29 44 -54 82 -57 84 -2 2 -21 -34 -43 -80z"/>
<path d="M3385 2652 c-129 -199 -263 -331 -519 -514 -17 -12 -8 -19 90 -65
192 -91 393 -146 591 -159 l96 -7 -7 111 c-9 154 -38 318 -79 443 -36 108
-105 269 -116 269 -3 0 -28 -35 -56 -78z"/>
<path d="M387 2613 c-82 -194 -123 -376 -134 -582 l-6 -124 109 7 c191 11 400
66 582 151 50 24 92 46 92 49 0 3 -41 33 -91 67 -160 110 -352 307 -459 473
-24 36 -44 66 -45 66 -2 0 -23 -48 -48 -107z"/>
<path d="M1695 2680 c-123 -196 -321 -399 -508 -520 -78 -50 -80 -47 50 -104
186 -82 389 -133 572 -143 l104 -6 -6 139 c-10 210 -61 419 -146 599 l-37 80
-29 -45z"/>
<path d="M2690 2044 c-118 -60 -273 -114 -406 -140 l-89 -18 85 -17 c156 -31
284 -76 442 -154 l86 -44 109 54 c128 63 285 117 415 143 l93 18 -90 18 c-127
24 -281 77 -412 141 -62 30 -116 54 -120 54 -4 -1 -55 -26 -113 -55z"/>
<path d="M970 2039 c-112 -56 -270 -110 -394 -135 l-89 -17 89 -19 c128 -26
263 -72 390 -132 l111 -53 97 47 c122 59 249 103 386 134 101 23 103 24 65 31
-147 26 -330 87 -463 154 -45 22 -85 40 -89 39 -5 -1 -51 -23 -103 -49z"/>
<path d="M255 1799 c10 -102 34 -227 61 -324 27 -96 100 -278 134 -333 l21
-34 48 69 c111 157 269 311 428 420 45 31 80 60 76 66 -8 14 -141 73 -252 111
-133 46 -285 77 -414 83 l-108 6 6 -64z"/>
<path d="M1645 1841 c-169 -30 -329 -82 -465 -151 l-62 -32 68 -45 c159 -106
322 -262 433 -413 35 -47 66 -86 70 -88 12 -4 107 203 140 305 33 102 66 259
77 371 l7 72 -84 -1 c-46 0 -129 -9 -184 -18z"/>
<path d="M1980 1818 c0 -78 38 -271 76 -390 38 -121 138 -338 154 -338 6 0 10
4 10 9 0 15 117 169 183 240 87 93 186 181 284 250 l84 60 -93 45 c-195 93
-409 151 -600 163 l-98 6 0 -45z"/>
<path d="M3415 1844 c-159 -24 -341 -83 -490 -157 -70 -35 -78 -41 -62 -51
145 -87 383 -313 485 -460 l62 -89 55 114 c91 191 148 396 168 612 l5 47 -67
-1 c-36 -1 -106 -7 -156 -15z"/>
<path d="M1935 1705 c-28 -188 -85 -372 -164 -530 l-57 -113 43 -79 c86 -156
157 -370 184 -553 l12 -85 19 115 c25 145 90 346 158 480 l52 104 -52 103
c-91 185 -140 331 -173 528 l-14 80 -8 -50z"/>
<path d="M989 1579 c-117 -81 -188 -141 -276 -232 -93 -96 -213 -254 -213
-278 0 -32 126 -195 240 -310 110 -112 249 -225 317 -257 32 -15 33 -15 101
31 171 113 329 268 453 446 l58 84 -50 72 c-74 108 -170 215 -267 301 -92 81
-252 194 -275 194 -7 0 -47 -23 -88 -51z"/>
<path d="M2744 1582 c-150 -97 -312 -251 -424 -403 -101 -137 -100 -123 -27
-225 110 -156 365 -394 484 -452 l33 -16 83 57 c111 75 219 168 303 262 76 84
184 231 184 249 -1 18 -122 183 -195 263 -37 40 -103 104 -148 142 -78 65
-213 161 -227 161 -4 0 -33 -17 -66 -38z"/>
<path d="M1625 933 c-107 -154 -306 -344 -474 -454 l-24 -15 34 -22 c19 -12
86 -42 148 -67 171 -68 333 -106 520 -120 l94 -8 -7 74 c-11 113 -44 270 -77
372 -30 91 -137 327 -148 326 -3 0 -33 -39 -66 -86z"/>
<path d="M2155 908 c-84 -178 -146 -401 -161 -579 l-7 -82 69 7 c253 25 446
76 629 169 71 35 78 41 61 51 -11 6 -63 43 -115 82 -121 90 -261 230 -348 350
-38 51 -72 93 -76 93 -5 1 -28 -41 -52 -91z"/>
</g>
</svg>
