<svg version="1.1" id="Layer_1" xmlns="http://www.w3.org/2000/svg" xmlns:xlink="http://www.w3.org/1999/xlink" x="0px" y="0px"
   viewBox="0 0 246.5 113.9" style="enable-background:new 0 0 246.5 113.9;" xml:space="preserve">
<style type="text/css">
  .st0{fill:#9EA2A7;}
</style>
<g>
  <polyline class="st0" points="116.6,58.6 116.5,58.6 116.5,59.4 116.6,59.4   "/>
  <path class="st0" d="M116.8,25.6h0.4c0-0.4,0-0.8,0-1.1l0-0.4h-0.4c-6.2,0-12,1.7-17,4.6L99.2,29l0.6,0.3c5.2,3,9.5,7.5,12.4,12.8
    l0.3,0.6l0.3-0.6c2.7-4.9,4.3-10.5,4.3-16.5H116.8h-0.4c0,5.9-1.5,11.4-4.2,16.1l0.3,0.2l0.3-0.2c-3-5.4-7.4-9.9-12.7-13.1L100,29
    l0.2,0.3c4.9-2.8,10.5-4.5,16.6-4.5v-0.4l-0.4,0c0,0.4,0,0.8,0,1.1H116.8z"/>
  <path class="st0" d="M100,54.6l0.2-0.3c-5.2-3-9.5-7.3-12.4-12.6l-0.3-0.6l-0.3,0.6C84.5,46.5,83,52,83,57.8c0,0.4,0,0.8,0,1.1
    l0,0.4h0.4c6.1,0,11.8-1.6,16.8-4.5l0.6-0.3l-0.6-0.3L100,54.6l-0.2-0.3c-4.8,2.8-10.4,4.4-16.4,4.4V59l0.4,0c0-0.4,0-0.8,0-1.1
    c0-5.7,1.5-11.1,4-15.8l-0.3-0.2L87.1,42c3,5.3,7.4,9.8,12.7,12.8L100,54.6l-0.2-0.3L100,54.6z"/>
  <path class="st0" d="M112.5,41.9l-0.3-0.2c-2.9,5.2-7.2,9.6-12.4,12.5l-0.6,0.3l0.6,0.3c4.9,2.8,10.7,4.5,16.8,4.5h0.4l0-0.4
    c0-0.4,0-0.8,0-1.1c0-5.9-1.5-11.4-4.1-16.2l-0.3-0.6l-0.3,0.6L112.5,41.9l-0.3,0.2c2.6,4.7,4,10.1,4,15.8c0,0.4,0,0.7,0,1.1l0.4,0
    v-0.4c-6,0-11.6-1.6-16.4-4.4l-0.2,0.3l0.2,0.3c5.3-3,9.7-7.5,12.7-12.8L112.5,41.9l-0.3,0.2L112.5,41.9z"/>
  <path class="st0" d="M111.9,75l-0.3-0.2c-2.9,4.8-6.9,8.8-11.8,11.6l-0.6,0.3l0.6,0.3c5,2.9,10.8,4.6,17,4.6l0.4,0l0-0.4
    c-0.2-6-2-11.7-4.9-16.5l-0.3-0.5l-0.3,0.5L111.9,75l-0.3,0.2c2.9,4.7,4.6,10.2,4.8,16.1l0.4,0l0-0.4c-6,0-11.7-1.6-16.6-4.5
    l-0.2,0.3l0.2,0.3c4.9-2.9,9.1-7,12-11.9L111.9,75l-0.3,0.2L111.9,75z"/>
  <path class="st0" d="M111.9,75l0.3,0.2c2.8-4.7,4.5-10.3,4.7-16.2l0-0.4l-0.4,0c-6.1,0-11.8,1.6-16.8,4.5l-0.6,0.3l0.6,0.3
    c4.8,2.8,8.9,6.7,11.8,11.4l0.3,0.5l0.3-0.5L111.9,75l0.3-0.2c-3-4.8-7.1-8.9-12-11.7l-0.2,0.3l0.2,0.3c4.8-2.8,10.4-4.4,16.4-4.4
    l0-0.4l-0.4,0c-0.2,5.8-1.9,11.2-4.6,15.8L111.9,75l0.3-0.2L111.9,75z"/>
  <path class="st0" d="M83.4,59L83,59c0.2,5.9,1.9,11.4,4.7,16.2l0.3,0.5l0.3-0.5c2.9-4.7,7-8.7,11.8-11.4l0.6-0.3l-0.6-0.3
    c-4.9-2.8-10.7-4.5-16.8-4.5l-0.4,0l0,0.4L83.4,59l0,0.4c6,0,11.6,1.6,16.4,4.4l0.2-0.3l-0.2-0.3c-4.9,2.8-9.1,6.9-12,11.7l0.3,0.2
    l0.3-0.2c-2.8-4.6-4.4-10-4.6-15.8L83.4,59l0,0.4L83.4,59z"/>
  <path class="st0" d="M121.2,41.5l-0.3-0.2c-2.7,4.9-4.3,10.5-4.3,16.5c0,0.4,0,0.8,0,1.1l0,0.4l0.4,0c6.1-0.1,11.9-1.8,16.8-4.7
    l0.5-0.3l-0.5-0.3c-5.1-3-9.4-7.4-12.2-12.7l-0.3-0.6l-0.3,0.6L121.2,41.5l-0.3,0.2c2.9,5.4,7.3,9.8,12.5,12.9l0.2-0.3l-0.2-0.3
    c-4.8,2.8-10.4,4.5-16.4,4.6l0,0.4l0.4,0c0-0.4,0-0.7,0-1.1c0-5.9,1.5-11.4,4.2-16.1L121.2,41.5l-0.3,0.2L121.2,41.5z"/>
  <path class="st0" d="M116.6,59v0.4c0.1,0,0.3,0,0.4,0h0.4V59v-0.4l-0.4,0c-0.1,0-0.2,0-0.4,0v0.8V59v0.4c0.1,0,0.3,0,0.5,0l0-0.4
    L116.6,59L116.6,59l0.4,0v-0.4c-0.1,0-0.3,0-0.4,0v0.8V59z"/>
  <path class="st0" d="M121.9,75.3l-0.3-0.2c-2.8,4.8-4.5,10.3-4.7,16.2l0,0.4l0.4,0c6-0.1,11.7-1.7,16.6-4.6l0.6-0.3l-0.6-0.3
    c-4.7-2.8-8.7-6.7-11.6-11.3l-0.3-0.5l-0.3,0.5L121.9,75.3l-0.3,0.2c2.9,4.8,7,8.8,11.8,11.6l0.2-0.3l-0.2-0.3
    c-4.8,2.8-10.3,4.4-16.2,4.5l0,0.4l0.4,0c0.2-5.8,1.8-11.1,4.6-15.8L121.9,75.3l-0.3,0.2L121.9,75.3z"/>
  <path class="st0" d="M133.6,63.6l-0.2,0.3c4.8,2.8,8.7,6.8,11.6,11.5l0.3,0.5l0.3-0.5c3-4.8,4.7-10.5,4.9-16.5l0-0.4l-0.4,0
    c-6.1,0.1-11.8,1.8-16.8,4.7l-0.5,0.3l0.5,0.3L133.6,63.6l0.2,0.3c4.8-2.8,10.4-4.5,16.4-4.6l0-0.4l-0.4,0
    c-0.2,5.9-1.9,11.4-4.8,16.1l0.3,0.2l0.3-0.2c-2.9-4.9-7-8.9-11.8-11.8L133.6,63.6l0.2,0.3L133.6,63.6z"/>
  <path class="st0" d="M133.6,63.6l0.2-0.3c-4.9-2.9-10.7-4.6-16.8-4.7l-0.4,0l0,0.4c0.2,6,2,11.7,4.9,16.5l0.3,0.5l0.3-0.5
    c2.8-4.7,6.8-8.7,11.6-11.5l0.5-0.3l-0.5-0.3L133.6,63.6l-0.2-0.3c-4.9,2.9-8.9,6.9-11.8,11.8l0.3,0.2l0.3-0.2
    c-2.9-4.7-4.6-10.2-4.8-16.1l-0.4,0l0,0.4c6,0.1,11.6,1.7,16.4,4.6L133.6,63.6l-0.2-0.3L133.6,63.6z"/>
  <path class="st0" d="M150.2,59l0.4,0c0-0.4,0-0.8,0-1.1c0-6-1.6-11.6-4.3-16.5l-0.3-0.6l-0.3,0.6c-2.8,5.2-7.1,9.6-12.2,12.7
    l-0.5,0.3l0.5,0.3c4.9,2.9,10.7,4.6,16.8,4.7l0.4,0l0-0.4L150.2,59l0-0.4c-6-0.1-11.6-1.7-16.4-4.6l-0.2,0.3l0.2,0.3
    c5.2-3.1,9.6-7.6,12.5-13l-0.3-0.2l-0.3,0.2c2.7,4.8,4.2,10.3,4.2,16.2c0,0.4,0,0.7,0,1.1L150.2,59l0-0.4L150.2,59z"/>
  <path class="st0" d="M121.2,41.5l0.3,0.2c2.9-5.2,7.1-9.5,12.2-12.4l0.6-0.3l-0.6-0.3c-4.9-2.9-10.5-4.5-16.6-4.6l-0.4,0l0,0.4
    c0,0.4,0,0.7,0,1.1c0,5.9,1.5,11.4,4.1,16.2l0.3,0.6l0.3-0.6L121.2,41.5l0.3-0.2c-2.6-4.7-4-10.1-4-15.8c0-0.4,0-0.7,0-1.1l-0.4,0
    l0,0.4c5.9,0.1,11.4,1.7,16.2,4.5l0.2-0.3l-0.2-0.3c-5.2,3-9.6,7.4-12.5,12.7L121.2,41.5l0.3-0.2L121.2,41.5z"/>
  <path class="st0" d="M150.2,57.8h-0.5c0,9.1-3.7,17.3-9.6,23.3c-6,6-14.2,9.6-23.3,9.6c-9.1,0-17.3-3.7-23.3-9.6
    c-6-6-9.6-14.2-9.6-23.3c0-9.1,3.7-17.3,9.6-23.3c6-6,14.2-9.6,23.3-9.6c9.1,0,17.3,3.7,23.3,9.6c6,6,9.6,14.2,9.6,23.3H150.2h0.5
    c0-18.7-15.2-33.9-33.9-33.9c-18.7,0-33.9,15.2-33.9,33.9c0,18.7,15.2,33.9,33.9,33.9c18.7,0,33.9-15.2,33.9-33.9H150.2z"/>
  <path class="st0" d="M150.2,33.4c5.4,7.1,8.6,16,8.6,25.6c0,11.7-4.7,22.3-12.4,29.9c-7.7,7.7-18.2,12.4-29.9,12.4
    c-17.2,0-32.1-10.3-38.6-25.1l-0.7,0.3c6.7,15,21.8,25.5,39.3,25.5c23.8,0,43-19.3,43-43c0-9.8-3.3-18.8-8.8-26.1L150.2,33.4z"/>
  <path class="st0" d="M74.9,68L72,68.8c-0.1,0-0.3,0.1-0.4,0.1c-0.1,0.1-0.2,0.1-0.2,0.2c0,0.1-0.1,0.2-0.1,0.3c0,0.1,0,0.3,0,0.5
    c0.1,0.3,0.2,0.5,0.4,0.8l0.2,0.2l0.2,0.2l0.2,0.2l0.2,0.2l3.1-0.8l0.1,0.5l-5.6,1.4L70,72.3l1.9-0.5c-0.1-0.1-0.2-0.2-0.3-0.3
    c-0.1-0.1-0.2-0.2-0.3-0.3c-0.2-0.3-0.4-0.7-0.5-1c-0.1-0.5-0.1-0.9,0.1-1.2c0.1-0.2,0.2-0.3,0.4-0.4c0.1-0.1,0.3-0.2,0.5-0.2
    l2.9-0.7L74.9,68z"/>
  <path class="st0" d="M74.1,63.1l-0.2,0.2l-0.2,0.1c0.1,0.1,0.2,0.2,0.3,0.4c0.1,0.1,0.2,0.3,0.2,0.4c0.1,0.1,0.1,0.3,0.1,0.4
    c0,0.1,0.1,0.2,0.1,0.3c0,0.3,0,0.6,0,0.9c0,0.2-0.1,0.5-0.2,0.6c-0.1,0.2-0.2,0.3-0.4,0.4c-0.1,0.1-0.3,0.1-0.5,0.2
    c-0.3,0-0.6,0-0.8-0.1c-0.2-0.1-0.4-0.3-0.6-0.6c-0.2-0.3-0.3-0.6-0.4-1c-0.1-0.4-0.2-0.9-0.4-1.4l0,0c-0.2,0-0.3,0.1-0.4,0.1
    c-0.1,0.1-0.2,0.1-0.3,0.2c-0.1,0.1-0.1,0.2-0.1,0.4c0,0.2,0,0.4,0,0.6c0,0.2,0.1,0.4,0.1,0.5c0.1,0.2,0.1,0.3,0.1,0.3l0.1,0.1
    l-0.5,0.1l-0.1-0.1c0-0.1-0.1-0.2-0.1-0.4c0-0.2-0.1-0.3-0.1-0.5c-0.1-0.6,0-1.1,0.2-1.4c0.2-0.3,0.5-0.5,1-0.6l2.1-0.3l0.2,0
    l0.1,0l0.1-0.1l0.1-0.1l0.2-0.3L74.1,63.1z M71.8,63.8c0.1,0.5,0.2,0.9,0.3,1.3c0.1,0.3,0.2,0.6,0.4,0.8c0.1,0.2,0.3,0.4,0.4,0.5
    c0.1,0.1,0.3,0.1,0.5,0.1l0.2-0.1c0.1,0,0.2-0.1,0.2-0.2c0.1-0.1,0.1-0.3,0.1-0.4c0-0.2,0-0.4,0-0.7c0-0.1,0-0.2-0.1-0.3
    c0-0.1-0.1-0.2-0.1-0.4c-0.1-0.1-0.1-0.3-0.2-0.4c-0.1-0.1-0.2-0.2-0.4-0.3L71.8,63.8z"/>
  <path class="st0" d="M70.5,58.8c-0.1,0.1-0.2,0.2-0.2,0.3l-0.1,0.2L70,59.4c0,0.1,0,0.2,0,0.3c0,0.1,0,0.2,0.1,0.4
    c0,0.1,0.1,0.3,0.2,0.4c0.1,0.3,0.3,0.5,0.5,0.8l3.2-0.1l0,0.5l-4.3,0.1l0-0.5l0.5,0C70.1,61.2,70,61.1,70,61
    c-0.1-0.1-0.1-0.2-0.2-0.3c-0.1-0.2-0.1-0.3-0.2-0.5c-0.1-0.2-0.1-0.3-0.1-0.5c0-0.1,0-0.2,0-0.4c0-0.1,0-0.2,0.1-0.4l0.1-0.3
    c0.1-0.1,0.1-0.2,0.3-0.3L70.5,58.8z"/>
  <path class="st0" d="M74.4,51.9l-3.1-0.3c-0.1,0-0.2,0-0.3,0c-0.1,0-0.2,0-0.3,0.1c-0.1,0-0.1,0.1-0.2,0.2
    c-0.1,0.1-0.1,0.2-0.1,0.4c0,0.2,0,0.5,0.1,0.7c0,0.1,0.1,0.3,0.2,0.4c0.1,0.2,0.2,0.3,0.3,0.5l3.2,0.3l-0.1,0.5L71,54.5
    c-0.1,0-0.2,0-0.3,0l-0.2,0.1c-0.1,0.1-0.1,0.1-0.2,0.2c0,0.1-0.1,0.2-0.1,0.4c0,0.1,0,0.2,0,0.3c0,0.1,0,0.3,0.1,0.4
    c0,0.1,0.1,0.3,0.2,0.4c0.1,0.2,0.2,0.3,0.3,0.5l3.2,0.3l-0.1,0.5l-4.3-0.4l0.1-0.5l0.5,0.1c-0.1-0.1-0.2-0.3-0.2-0.4
    c-0.1-0.1-0.1-0.3-0.1-0.4c0-0.2-0.1-0.3-0.1-0.5c0-0.1,0-0.3,0-0.4c0-0.2,0.1-0.4,0.1-0.5c0.1-0.1,0.2-0.3,0.3-0.4l0.2-0.2
    l0.2-0.1c-0.2-0.3-0.3-0.6-0.4-0.9C70,52.8,70,52.5,70,52.2c0-0.2,0.1-0.4,0.2-0.6c0.1-0.2,0.2-0.3,0.3-0.4
    c0.1-0.1,0.3-0.2,0.4-0.2c0.2,0,0.3,0,0.5,0l3.1,0.3L74.4,51.9z"/>
  <path class="st0" d="M74.6,45.8c0.2,0.2,0.4,0.4,0.6,0.6c0.2,0.2,0.3,0.5,0.3,0.8c0,0.3,0,0.7-0.1,1.1c-0.1,0.4-0.2,0.7-0.4,1
    c-0.2,0.3-0.4,0.5-0.7,0.6c-0.3,0.1-0.5,0.2-0.8,0.3c-0.3,0-0.6,0-0.9-0.1c-0.3-0.1-0.6-0.2-0.9-0.4c-0.2-0.2-0.4-0.4-0.5-0.7
    c-0.1-0.3-0.2-0.5-0.2-0.9c0-0.3,0-0.6,0.1-0.9c0.1-0.3,0.2-0.6,0.4-0.9c0.2-0.3,0.4-0.5,0.6-0.6c0.2-0.2,0.5-0.3,0.8-0.3
    c0.3-0.1,0.6,0,1,0.1C74.1,45.5,74.3,45.6,74.6,45.8z M73.7,45.9c-0.3-0.1-0.5-0.1-0.7,0c-0.2,0-0.4,0.1-0.6,0.2
    c-0.2,0.1-0.4,0.3-0.5,0.5c-0.1,0.2-0.2,0.4-0.3,0.7c-0.1,0.3-0.1,0.5-0.1,0.8c0,0.2,0.1,0.5,0.2,0.7c0.1,0.2,0.3,0.4,0.4,0.5
    c0.2,0.1,0.4,0.3,0.7,0.3c0.2,0.1,0.4,0.1,0.7,0.1c0.2,0,0.4-0.1,0.6-0.2c0.2-0.1,0.4-0.3,0.5-0.5c0.2-0.2,0.3-0.5,0.4-0.8
    c0.1-0.3,0.1-0.6,0.1-0.8c0-0.3-0.1-0.5-0.2-0.7c-0.1-0.2-0.3-0.3-0.5-0.5C74.1,46.1,73.9,46,73.7,45.9L73.7,45.9z"/>
  <path class="st0" d="M77.5,41.9l-2.7-1.1c-0.1-0.1-0.3-0.1-0.4-0.1c-0.1,0-0.2,0-0.3,0c-0.1,0-0.2,0.1-0.3,0.2
    c-0.1,0.1-0.2,0.3-0.3,0.5c-0.1,0.2-0.2,0.5-0.2,0.9c0,0.1,0,0.2,0,0.3c0,0.1,0,0.2,0,0.3c0,0.1,0,0.2,0.1,0.3c0,0.1,0,0.2,0.1,0.3
    l2.9,1.2l-0.2,0.5l-4-1.6l0.2-0.5l0.1,0l0.2,0.1l0.2,0.1c-0.1-0.3-0.1-0.6-0.1-0.9c0-0.4,0.1-0.8,0.2-1.1c0.2-0.5,0.5-0.8,0.8-1
    c0.2-0.1,0.3-0.1,0.5-0.1c0.2,0,0.4,0,0.6,0.1l2.7,1.1L77.5,41.9z"/>
  <path class="st0" d="M79.7,39.1c0.1,0.1,0.2,0.2,0.2,0.3c0.1,0.1,0.1,0.3,0.2,0.5c0,0.2,0.1,0.4,0,0.6c0,0.2-0.1,0.4-0.2,0.7
    c-0.1,0.1-0.1,0.2-0.2,0.3l-0.2,0.2l-0.2,0.2c-0.1,0.1-0.2,0.1-0.3,0.2l-0.3-0.4c0.1-0.1,0.2-0.1,0.3-0.2l0.2-0.1l0.1-0.2l0.1-0.2
    c0.2-0.3,0.2-0.6,0.1-0.9c-0.1-0.2-0.2-0.4-0.3-0.6l-0.5-0.7L74,39.1l0.3-0.5l2.3-0.2l1.9-0.1c-0.2-0.2-0.4-0.5-0.6-0.7
    c-0.2-0.2-0.4-0.4-0.5-0.7L76,35.3l0.3-0.5L79.7,39.1z"/>
  <polygon class="st0" points="81,36.5 80.8,36.9 79.6,35.8 79.9,35.4  "/>
  <path class="st0" d="M84.2,29.2c0.1,0.2,0.2,0.5,0.3,0.8c0,0.3,0,0.6-0.1,0.9c-0.1,0.3-0.3,0.6-0.5,0.9c-0.2,0.2-0.3,0.4-0.5,0.5
    c-0.2,0.1-0.3,0.2-0.5,0.3l-0.2,0.1l-0.2,0l0.3,0.3l-0.3,0.4l-4.4-3.7l0.3-0.4l1.4,1.2c0-0.3,0.1-0.6,0.2-0.8
    c0.1-0.3,0.3-0.5,0.4-0.7c0.2-0.3,0.5-0.5,0.7-0.6c0.3-0.1,0.5-0.2,0.8-0.3c0.3,0,0.6,0,0.8,0.1c0.3,0.1,0.5,0.2,0.8,0.4
    C83.9,28.7,84,28.9,84.2,29.2z M83.3,28.9c-0.2-0.2-0.4-0.3-0.6-0.3s-0.4-0.1-0.7-0.1c-0.2,0-0.4,0.1-0.7,0.2
    c-0.2,0.1-0.4,0.3-0.6,0.5c-0.2,0.2-0.3,0.5-0.4,0.7c-0.1,0.3-0.1,0.6-0.1,0.9l1.7,1.4l0.1,0l0.1,0l0.2,0l0.2-0.1
    c0.1-0.1,0.3-0.1,0.4-0.2c0.2-0.1,0.3-0.2,0.5-0.4c0.2-0.2,0.3-0.5,0.4-0.7c0.1-0.2,0.1-0.5,0.1-0.7c0-0.2-0.1-0.4-0.2-0.6
    C83.6,29.2,83.5,29.1,83.3,28.9L83.3,28.9z"/>
  <path class="st0" d="M88.3,27c-0.1,0-0.2,0-0.3,0l-0.2-0.1c0,0.2-0.1,0.3-0.1,0.4c-0.1,0.1-0.1,0.3-0.2,0.4
    c-0.1,0.1-0.2,0.2-0.2,0.3c-0.1,0.1-0.2,0.2-0.2,0.2c-0.3,0.2-0.5,0.4-0.7,0.5c-0.2,0.1-0.4,0.2-0.6,0.2c-0.2,0-0.4,0-0.5-0.1
    c-0.2-0.1-0.3-0.2-0.4-0.3c-0.2-0.2-0.3-0.5-0.4-0.7c0-0.3,0-0.5,0.1-0.8c0.1-0.3,0.3-0.6,0.6-0.9c0.3-0.3,0.5-0.7,0.9-1.1l0,0
    c-0.1-0.1-0.2-0.2-0.3-0.3c-0.1-0.1-0.2-0.1-0.4-0.1c-0.1,0-0.3,0.1-0.4,0.1c-0.1,0.1-0.3,0.2-0.5,0.4c-0.1,0.1-0.3,0.3-0.4,0.4
    C84,25.9,83.9,26,83.9,26l-0.1,0.1l-0.4-0.3l0.1-0.1c0.1-0.1,0.1-0.2,0.2-0.3c0.1-0.1,0.2-0.3,0.4-0.4c0.4-0.4,0.9-0.7,1.2-0.7
    c0.4,0,0.7,0.1,1,0.5l1.4,1.5l0.2,0.1l0.1,0.1l0.1,0l0.2,0l0.3,0L88.3,27z M86.4,25.5c-0.3,0.4-0.6,0.7-0.8,1
    c-0.2,0.3-0.4,0.6-0.5,0.8c-0.1,0.2-0.1,0.4-0.1,0.6c0,0.2,0.1,0.3,0.2,0.5l0.2,0.1c0.1,0,0.2,0.1,0.3,0.1c0.1,0,0.3-0.1,0.4-0.1
    c0.2-0.1,0.4-0.2,0.6-0.4c0.1-0.1,0.1-0.1,0.2-0.2c0.1-0.1,0.1-0.2,0.2-0.3c0.1-0.1,0.1-0.3,0.2-0.4c0-0.1,0.1-0.3,0.1-0.5
    L86.4,25.5z"/>
  <rect x="85" y="23.4" transform="matrix(0.6313 0.7756 -0.7756 0.6313 50.7386 -59.4715)" class="st0" width="5.7" height="0.5"/>
  <path class="st0" d="M93.6,23c-0.1,0-0.2-0.1-0.3-0.1l-0.2-0.1c0,0.2-0.1,0.3-0.2,0.4c-0.1,0.1-0.2,0.3-0.3,0.4
    c-0.1,0.1-0.2,0.2-0.3,0.3c-0.1,0.1-0.2,0.1-0.3,0.2c-0.3,0.2-0.6,0.3-0.8,0.4c-0.2,0.1-0.5,0.1-0.6,0.1c-0.2,0-0.4-0.1-0.5-0.2
    c-0.1-0.1-0.3-0.2-0.3-0.3c-0.2-0.3-0.3-0.5-0.2-0.8c0-0.3,0.1-0.5,0.3-0.8c0.2-0.3,0.4-0.5,0.7-0.8c0.3-0.3,0.6-0.6,1.1-0.9l0,0
    c-0.1-0.1-0.2-0.2-0.3-0.3c-0.1-0.1-0.2-0.1-0.3-0.1c-0.1,0-0.3,0-0.4,0.1c-0.2,0.1-0.3,0.2-0.6,0.3c-0.2,0.1-0.3,0.2-0.4,0.3
    c-0.1,0.1-0.2,0.2-0.2,0.3l-0.1,0.1L89,21l0.1-0.1c0.1-0.1,0.2-0.2,0.3-0.3c0.1-0.1,0.3-0.2,0.4-0.3c0.5-0.4,1-0.5,1.3-0.5
    c0.4,0,0.7,0.2,1,0.6l1.2,1.7l0.1,0.2l0.1,0.1l0.1,0.1l0.2,0.1l0.3,0.1L93.6,23z M92,21.2c-0.4,0.3-0.7,0.6-1,0.9
    c-0.3,0.3-0.5,0.5-0.6,0.7c-0.1,0.2-0.2,0.4-0.2,0.6c0,0.2,0,0.3,0.1,0.5l0.2,0.2c0.1,0.1,0.2,0.1,0.3,0.1c0.1,0,0.3,0,0.5-0.1
    c0.2-0.1,0.4-0.2,0.6-0.3c0.1,0,0.1-0.1,0.2-0.2c0.1-0.1,0.2-0.2,0.3-0.3c0.1-0.1,0.2-0.2,0.2-0.4c0.1-0.1,0.1-0.3,0.1-0.5L92,21.2
    z"/>
  <path class="st0" d="M97.9,20.6L96.5,18c-0.1-0.1-0.1-0.2-0.2-0.3c-0.1-0.1-0.2-0.1-0.3-0.2c-0.1,0-0.2,0-0.4,0
    c-0.1,0-0.3,0.1-0.5,0.2c-0.2,0.1-0.5,0.3-0.7,0.6l-0.2,0.2l-0.2,0.2L93.9,19l-0.1,0.2l1.5,2.8l-0.5,0.2l-2-3.8l0.5-0.2l0,0.1
    l0.1,0.2l0.1,0.2c0.2-0.3,0.3-0.6,0.5-0.8c0.3-0.3,0.5-0.5,0.9-0.7c0.5-0.2,0.9-0.3,1.2-0.2c0.2,0.1,0.3,0.1,0.4,0.3
    c0.1,0.1,0.2,0.3,0.4,0.5l1.4,2.6L97.9,20.6z"/>
  <path class="st0" d="M102.7,18c-0.1,0.2-0.2,0.3-0.3,0.5c-0.1,0.2-0.3,0.3-0.4,0.4c-0.2,0.1-0.4,0.2-0.6,0.3
    c-0.3,0.1-0.6,0.2-0.9,0.2c-0.3,0-0.6,0-0.9-0.1c-0.3-0.1-0.5-0.2-0.8-0.5c-0.2-0.2-0.4-0.5-0.6-0.9c-0.1-0.4-0.2-0.7-0.2-1
    c0-0.3,0.1-0.6,0.3-0.8c0.1-0.3,0.3-0.5,0.6-0.7c0.2-0.2,0.5-0.3,0.8-0.4c0.4-0.2,0.8-0.2,1.2-0.2c0.3,0,0.7,0.2,1,0.4l-0.3,0.4
    c-0.1-0.1-0.3-0.2-0.4-0.2c-0.1-0.1-0.3-0.1-0.4-0.1c-0.1,0-0.3,0-0.4,0c-0.1,0-0.3,0.1-0.5,0.1c-0.2,0.1-0.4,0.2-0.6,0.4
    c-0.2,0.2-0.3,0.3-0.4,0.5c-0.1,0.2-0.2,0.4-0.2,0.7c0,0.2,0,0.5,0.1,0.8c0.1,0.3,0.3,0.5,0.4,0.7c0.2,0.2,0.4,0.3,0.6,0.4
    c0.2,0.1,0.4,0.1,0.7,0.1c0.2,0,0.5-0.1,0.7-0.2c0.2-0.1,0.4-0.2,0.5-0.3c0.1-0.1,0.2-0.2,0.3-0.3c0.1-0.1,0.2-0.2,0.2-0.4
    c0.1-0.1,0.1-0.3,0.1-0.4l0.5,0C102.8,17.6,102.8,17.8,102.7,18z"/>
  <path class="st0" d="M103.6,16.2c0.1,0.3,0.2,0.5,0.4,0.7c0.2,0.2,0.3,0.3,0.5,0.4c0.2,0.1,0.4,0.1,0.6,0.1c0.2,0,0.4,0,0.6-0.1
    c0.2-0.1,0.4-0.1,0.6-0.2c0.2-0.1,0.4-0.2,0.6-0.3c0.2-0.1,0.3-0.2,0.5-0.3c0.1-0.1,0.2-0.1,0.3-0.2l0.2,0.5
    c-0.3,0.2-0.5,0.3-0.7,0.4c-0.2,0.1-0.4,0.2-0.6,0.3c-0.2,0.1-0.4,0.2-0.6,0.2c-0.3,0.1-0.6,0.1-0.9,0.1c-0.3,0-0.6-0.1-0.9-0.3
    c-0.2-0.1-0.5-0.3-0.6-0.6c-0.2-0.2-0.3-0.5-0.4-0.9c-0.1-0.3-0.1-0.6-0.1-0.9c0-0.3,0.2-0.6,0.3-0.8c0.2-0.2,0.3-0.4,0.6-0.6
    c0.2-0.2,0.5-0.3,0.8-0.4c0.3-0.1,0.6-0.1,0.9,0c0.3,0,0.6,0.1,0.8,0.3c0.2,0.1,0.4,0.3,0.6,0.6c0.2,0.2,0.3,0.6,0.4,0.9
    L103.6,16.2z M106.8,14.9c-0.1-0.2-0.2-0.3-0.3-0.5c-0.1-0.1-0.3-0.3-0.4-0.4c-0.2-0.1-0.4-0.2-0.6-0.2c-0.2,0-0.4,0-0.6,0
    c-0.2,0.1-0.5,0.2-0.6,0.3c-0.2,0.1-0.3,0.3-0.5,0.4c-0.1,0.2-0.2,0.3-0.2,0.5c0,0.2-0.1,0.4,0,0.6L106.8,14.9L106.8,14.9z"/>
  <polygon class="st0" points="109.1,17.6 108.7,17.7 108.7,16.1 109.3,16  "/>
  <path class="st0" d="M118.7,16.3l-0.4,0l-1.1-2c-0.1-0.3-0.3-0.5-0.4-0.8c-0.2-0.3-0.3-0.5-0.4-0.8c-0.1,0.3-0.3,0.5-0.4,0.8
    c-0.1,0.3-0.3,0.5-0.4,0.8l-1,2l-0.4,0l-2.4-4.3l0.6,0l1.1,2c0.1,0.3,0.3,0.5,0.4,0.8c0.2,0.3,0.3,0.5,0.5,0.8
    c0.3-0.6,0.6-1.2,0.9-1.8c0.3-0.6,0.6-1.2,1-1.9l0.3,0l1.1,2c0.2,0.3,0.3,0.5,0.5,0.8c0.1,0.3,0.3,0.5,0.5,0.8
    c0.1-0.3,0.3-0.6,0.4-0.8c0.1-0.3,0.3-0.5,0.4-0.8l1-2l0.6,0L118.7,16.3z"/>
  <path class="st0" d="M121.9,14.6c0,0.3,0,0.6,0.1,0.8c0.1,0.2,0.2,0.4,0.3,0.6c0.1,0.2,0.3,0.3,0.5,0.4c0.2,0.1,0.4,0.1,0.6,0.2
    c0.2,0,0.4,0,0.6,0c0.2,0,0.4,0,0.6,0c0.2,0,0.4,0,0.5-0.1c0.2,0,0.3,0,0.3-0.1l0,0.5c-0.3,0-0.6,0.1-0.8,0.1c-0.2,0-0.5,0-0.7,0
    c-0.3,0-0.5,0-0.7,0c-0.3,0-0.6-0.1-0.9-0.3c-0.3-0.1-0.5-0.3-0.7-0.6c-0.2-0.2-0.3-0.5-0.4-0.8c-0.1-0.3-0.1-0.6,0-1
    c0.1-0.3,0.2-0.6,0.3-0.9c0.2-0.2,0.4-0.5,0.6-0.6c0.2-0.1,0.5-0.2,0.8-0.3c0.3-0.1,0.6-0.1,0.9,0c0.3,0,0.6,0.1,0.8,0.3
    c0.2,0.2,0.5,0.4,0.6,0.6c0.1,0.2,0.2,0.5,0.3,0.8c0.1,0.3,0.1,0.6,0,1L121.9,14.6z M125.3,14.7c0-0.2,0-0.4-0.1-0.6
    c-0.1-0.2-0.1-0.4-0.3-0.5c-0.1-0.2-0.3-0.3-0.4-0.4c-0.2-0.1-0.4-0.2-0.6-0.2c-0.2,0-0.5,0-0.7,0c-0.2,0-0.4,0.1-0.6,0.2
    c-0.2,0.1-0.3,0.2-0.4,0.4c-0.1,0.2-0.2,0.3-0.3,0.5L125.3,14.7L125.3,14.7z"/>

    <rect x="124.5" y="14.5" transform="matrix(-0.2348 0.972 -0.972 -0.2348 171.6218 -105.5838)" class="st0" width="5.7" height="0.5"/>

    <rect x="126.1" y="14.9" transform="matrix(-0.2702 0.9628 -0.9628 -0.2702 178.424 -104.8935)" class="st0" width="5.7" height="0.5"/>
  <path class="st0" d="M133.9,18.5c-0.2,0.2-0.4,0.4-0.7,0.5c-0.3,0.1-0.5,0.2-0.9,0.2c-0.3,0-0.7,0-1-0.2c-0.2-0.1-0.5-0.2-0.6-0.3
    c-0.2-0.1-0.3-0.3-0.4-0.4l-0.1-0.2L130,18l-0.1,0.4l-0.5-0.2l2-5.4l0.5,0.2l-0.6,1.7c0.3-0.1,0.6-0.1,0.8-0.1
    c0.3,0,0.5,0.1,0.8,0.2c0.3,0.1,0.6,0.3,0.8,0.5c0.2,0.2,0.4,0.4,0.5,0.7c0.1,0.3,0.2,0.5,0.2,0.8c0,0.3,0,0.6-0.2,0.9
    C134.2,18,134,18.3,133.9,18.5z M133.8,17.6c0.1-0.2,0.1-0.5,0.1-0.7c0-0.2,0-0.4-0.1-0.6c-0.1-0.2-0.2-0.4-0.4-0.6
    c-0.2-0.2-0.4-0.3-0.7-0.4c-0.3-0.1-0.5-0.1-0.8-0.1c-0.3,0-0.6,0.1-0.9,0.2l-0.8,2.1l0,0.1l0.1,0.1l0.1,0.2l0.1,0.2
    c0.1,0.1,0.2,0.2,0.4,0.3c0.1,0.1,0.3,0.2,0.5,0.3c0.3,0.1,0.5,0.1,0.8,0.1c0.2,0,0.5-0.1,0.7-0.2c0.2-0.1,0.4-0.2,0.5-0.4
    C133.6,18,133.7,17.8,133.8,17.6L133.8,17.6z"/>
  <path class="st0" d="M135.4,18.5c-0.1,0.3-0.2,0.5-0.2,0.8c0,0.2,0.1,0.4,0.2,0.6c0.1,0.2,0.2,0.4,0.4,0.5c0.2,0.1,0.3,0.3,0.5,0.3
    c0.2,0.1,0.4,0.2,0.6,0.2c0.2,0.1,0.4,0.1,0.6,0.2c0.2,0,0.4,0.1,0.5,0.1c0.2,0,0.3,0,0.3,0.1l-0.2,0.5c-0.3-0.1-0.6-0.1-0.8-0.2
    c-0.2-0.1-0.4-0.1-0.7-0.2c-0.2-0.1-0.5-0.2-0.6-0.2c-0.3-0.1-0.5-0.3-0.7-0.5c-0.2-0.2-0.4-0.5-0.5-0.8c-0.1-0.3-0.1-0.5-0.1-0.8
    c0-0.3,0.1-0.6,0.3-0.9c0.2-0.3,0.3-0.5,0.6-0.7c0.2-0.2,0.5-0.3,0.8-0.4c0.3-0.1,0.5-0.1,0.8-0.1c0.3,0,0.6,0.1,0.9,0.3
    c0.3,0.1,0.5,0.3,0.7,0.5c0.2,0.2,0.3,0.5,0.4,0.8c0.1,0.2,0.1,0.5,0.1,0.8c0,0.3-0.1,0.6-0.3,1L135.4,18.5z M138.6,19.6
    c0.1-0.2,0.1-0.4,0.1-0.6c0-0.2,0-0.4-0.1-0.6c-0.1-0.2-0.2-0.4-0.3-0.5c-0.1-0.2-0.3-0.3-0.5-0.4c-0.2-0.1-0.4-0.2-0.7-0.2
    c-0.2,0-0.4,0-0.6,0c-0.2,0-0.4,0.1-0.5,0.2c-0.2,0.1-0.3,0.2-0.4,0.4L138.6,19.6L138.6,19.6z"/>
  <path class="st0" d="M138.8,22.6l2.3-3.7l0.4,0.3l-2.3,3.7L138.8,22.6z M141.3,18.5l0.5-0.8l0.4,0.3l-0.5,0.8L141.3,18.5z"/>
  <path class="st0" d="M142.9,25.4l1.7-2.4c0.1-0.1,0.1-0.2,0.2-0.3c0-0.1,0.1-0.2,0-0.3c0-0.1-0.1-0.2-0.1-0.3
    c-0.1-0.1-0.2-0.3-0.4-0.4c-0.2-0.2-0.5-0.3-0.8-0.4c-0.1,0-0.2,0-0.3-0.1c-0.1,0-0.2,0-0.3,0c-0.1,0-0.2,0-0.3,0
    c-0.1,0-0.2,0-0.3,0l-1.9,2.5l-0.4-0.3l2.5-3.5l0.4,0.3l-0.1,0.1l-0.1,0.2l-0.2,0.2c0.3,0,0.7,0.1,0.9,0.1c0.4,0.1,0.7,0.3,1,0.5
    c0.4,0.3,0.7,0.7,0.7,1c0,0.2,0,0.3,0,0.5c0,0.2-0.1,0.3-0.3,0.5l-1.7,2.4L142.9,25.4z"/>
  <path class="st0" d="M146.7,29.6c-0.2,0.1-0.5,0.2-0.8,0.2c-0.3,0-0.5,0-0.8-0.1c-0.3-0.1-0.5-0.3-0.8-0.5c-0.3-0.3-0.6-0.6-0.7-1
    c-0.1-0.1-0.1-0.3-0.2-0.5c0-0.2-0.1-0.4-0.1-0.7l0.5,0c0,0.2,0,0.4,0,0.5c0,0.2,0.1,0.3,0.1,0.5c0.1,0.1,0.1,0.3,0.2,0.4
    c0.1,0.1,0.2,0.3,0.4,0.4c0.2,0.1,0.3,0.3,0.6,0.4c0.2,0.1,0.4,0.1,0.7,0.1c0.2,0,0.4-0.1,0.6-0.2c0.2-0.1,0.4-0.3,0.6-0.5l0.1-0.1
    c-0.2,0-0.5-0.1-0.7-0.2c-0.3-0.1-0.5-0.3-0.8-0.5c-0.2-0.2-0.4-0.4-0.5-0.7c-0.1-0.3-0.2-0.5-0.3-0.8c0-0.3,0-0.6,0.1-0.9
    c0.1-0.3,0.3-0.6,0.5-0.9c0.1-0.1,0.2-0.2,0.4-0.3c0.1-0.1,0.3-0.2,0.5-0.3c0.2-0.1,0.4-0.1,0.5-0.2c0.2,0,0.4,0,0.6,0
    c0.2,0,0.4,0.1,0.6,0.2c0.2,0.1,0.4,0.3,0.7,0.5c0.2,0.2,0.4,0.4,0.5,0.7c0.1,0.2,0.2,0.5,0.3,0.7l0.3-0.3l0.4,0.4l-2.7,2.9
    C147.2,29.2,146.9,29.4,146.7,29.6z M149,26.5c0-0.3,0-0.5-0.1-0.8c-0.1-0.2-0.3-0.5-0.5-0.7c-0.3-0.3-0.6-0.4-0.8-0.5
    c-0.3-0.1-0.5-0.1-0.7-0.1c-0.2,0-0.4,0.1-0.6,0.2c-0.2,0.1-0.3,0.2-0.4,0.3c-0.2,0.2-0.3,0.4-0.4,0.6c-0.1,0.2-0.1,0.4-0.1,0.7
    c0,0.2,0.1,0.4,0.2,0.6c0.1,0.2,0.3,0.4,0.4,0.6c0.1,0.1,0.3,0.2,0.4,0.3c0.1,0.1,0.3,0.1,0.4,0.2c0.1,0,0.3,0.1,0.4,0.1
    c0.1,0,0.2,0,0.4,0L149,26.5z"/>
</g>
</svg>
