<?xml version="1.0" encoding="utf-8"?>
<!-- Generator: Adobe Illustrator 15.0.0, SVG Export Plug-In . SVG Version: 6.00 Build 0)  -->
<!DOCTYPE svg PUBLIC "-//W3C//DTD SVG 1.1//EN" "http://www.w3.org/Graphics/SVG/1.1/DTD/svg11.dtd">
<svg version="1.1" id="Layer_1" xmlns="http://www.w3.org/2000/svg" xmlns:xlink="http://www.w3.org/1999/xlink" x="0px" y="0px"
	 width="90.081px" height="90.121px" viewBox="0 0 90.081 90.121" enable-background="new 0 0 90.081 90.121" xml:space="preserve">
<g>
	<polyline fill="#9EABB4" points="47.042,46.701 47.006,46.701 47.006,47.451 47.042,47.451 	"/>
	<path fill="#9EABB4" d="M47.235,13.646h0.375c0-0.39-0.023-0.779-0.035-1.146l-0.013-0.363H47.2
		c-6.193,0-11.986,1.683-16.971,4.596l-0.555,0.324l0.556,0.324c5.222,3.04,9.537,7.451,12.421,12.767l0.324,0.597l0.333-0.592
		c2.743-4.877,4.304-10.511,4.304-16.507H47.235H46.86c0,5.866-1.525,11.372-4.207,16.14l0.327,0.184l0.33-0.179
		c-2.951-5.438-7.364-9.949-12.703-13.058l-0.188,0.324l0.189,0.324c4.876-2.849,10.537-4.494,16.593-4.494v-0.375l-0.375,0.012
		c0.012,0.381,0.035,0.763,0.035,1.121H47.235z"/>
	<path fill="#9EABB4" d="M30.417,42.652l0.187-0.325c-5.185-2.98-9.478-7.332-12.41-12.553l-0.332-0.591l-0.324,0.595
		c-2.622,4.803-4.109,10.303-4.109,16.166c0,0.39,0.024,0.779,0.036,1.146l0.012,0.362h0.363c6.107,0,11.827-1.634,16.764-4.474
		l0.565-0.325l-0.565-0.325L30.417,42.652l-0.187-0.325c-4.828,2.777-10.417,4.374-16.39,4.374v0.375l0.375-0.012
		c-0.013-0.381-0.036-0.763-0.036-1.121c0-5.735,1.454-11.109,4.017-15.806l-0.329-0.18l-0.327,0.184
		c2.999,5.339,7.387,9.788,12.69,12.836L30.417,42.652l-0.187-0.325L30.417,42.652z"/>
	<path fill="#9EABB4" d="M42.979,29.969l-0.327-0.183c-2.92,5.221-7.224,9.56-12.421,12.541l-0.567,0.325l0.567,0.325
		c4.948,2.84,10.668,4.474,16.775,4.474h0.363l0.012-0.362c0.012-0.366,0.036-0.756,0.036-1.146c0-5.851-1.487-11.351-4.109-16.153
		l-0.325-0.596l-0.331,0.592L42.979,29.969l-0.329,0.18c2.563,4.696,4.017,10.071,4.017,15.794c0,0.358-0.023,0.74-0.036,1.121
		l0.375,0.012v-0.375c-5.973,0-11.562-1.597-16.402-4.374l-0.187,0.325l0.187,0.325c5.315-3.048,9.716-7.485,12.703-12.825
		L42.979,29.969l-0.329,0.18L42.979,29.969z"/>
	<path fill="#9EABB4" d="M42.316,63.05l-0.322-0.191c-2.86,4.814-6.926,8.82-11.754,11.646l-0.553,0.323l0.554,0.323
		c4.985,2.914,10.778,4.585,16.958,4.597l0.389,0.001l-0.013-0.389c-0.208-6.033-1.976-11.666-4.938-16.506l-0.325-0.531
		l-0.317,0.535L42.316,63.05l-0.32,0.195c2.896,4.732,4.625,10.238,4.828,16.141l0.375-0.013v-0.375
		c-6.045-0.012-11.705-1.645-16.581-4.493l-0.189,0.323l0.189,0.323c4.937-2.889,9.093-6.984,12.02-11.91L42.316,63.05l-0.32,0.195
		L42.316,63.05z"/>
	<path fill="#9EABB4" d="M42.316,63.05l0.322,0.193c2.841-4.744,4.548-10.256,4.743-16.155l0.013-0.388h-0.389
		c-6.106,0.013-11.826,1.646-16.774,4.475L29.663,51.5l0.568,0.326c4.816,2.766,8.87,6.7,11.766,11.421l0.324,0.527l0.318-0.53
		L42.316,63.05l0.32-0.196c-2.962-4.828-7.107-8.851-12.032-11.679L30.417,51.5l0.186,0.325c4.841-2.766,10.43-4.362,16.404-4.375
		l-0.001-0.375l-0.375-0.012c-0.19,5.77-1.859,11.156-4.637,15.793L42.316,63.05l0.32-0.196L42.316,63.05z"/>
	<path fill="#9EABB4" d="M13.841,47.076l-0.375,0.013c0.195,5.899,1.902,11.411,4.743,16.166l0.317,0.532l0.324-0.528
		c2.896-4.721,6.95-8.667,11.754-11.433L31.17,51.5l-0.566-0.324c-4.937-2.828-10.656-4.462-16.762-4.475h-0.389l0.013,0.388
		L13.841,47.076l-0.001,0.375c5.974,0.013,11.563,1.609,16.391,4.375l0.187-0.325l-0.187-0.325
		c-4.913,2.828-9.057,6.863-12.02,11.69l0.32,0.196l0.322-0.192c-2.777-4.649-4.446-10.036-4.637-15.806L13.841,47.076l-0.001,0.375
		L13.841,47.076z"/>
	<path fill="#9EABB4" d="M51.696,29.619l-0.326-0.184c-2.744,4.877-4.305,10.511-4.305,16.508c0,0.382,0.012,0.76,0.024,1.133
		l0.013,0.367l0.367-0.004c6.119-0.073,11.85-1.779,16.775-4.693l0.545-0.322L64.245,42.1c-5.127-3.04-9.371-7.416-12.219-12.66
		l-0.324-0.596l-0.332,0.591L51.696,29.619l-0.33,0.179c2.915,5.365,7.254,9.838,12.496,12.947l0.191-0.323L63.862,42.1
		c-4.816,2.849-10.417,4.517-16.402,4.589l0.005,0.375l0.375-0.012c-0.013-0.373-0.024-0.743-0.024-1.109
		c0-5.866,1.525-11.372,4.207-16.14L51.696,29.619l-0.33,0.179L51.696,29.619z"/>
	<path fill="#9EABB4" d="M47.042,47.076v0.375c0.122,0,0.255,0.012,0.422,0.013h0.375v-0.399v-0.408l-0.407,0.035
		c-0.125,0.01-0.244,0.01-0.39,0.01v0.75V47.076v0.375c0.144,0,0.29,0.001,0.454-0.014l-0.032-0.373h-0.375v0.024h0.375v-0.375
		c-0.122,0.001-0.255-0.012-0.422-0.013v0.75V47.076z"/>
	<path fill="#9EABB4" d="M52.359,63.388l-0.321-0.193c-2.841,4.756-4.535,10.268-4.73,16.154l-0.014,0.393l0.394-0.005
		c6.032-0.085,11.679-1.743,16.556-4.584l0.556-0.324l-0.557-0.324c-4.731-2.753-8.714-6.651-11.563-11.312l-0.323-0.529
		l-0.317,0.532L52.359,63.388l-0.319,0.195c2.913,4.768,6.984,8.753,11.825,11.569l0.188-0.324l-0.189-0.324
		c-4.768,2.778-10.285,4.399-16.188,4.482l0.006,0.375l0.375,0.013c0.189-5.76,1.847-11.146,4.623-15.795L52.359,63.388
		l-0.319,0.195L52.359,63.388z"/>
	<path fill="#9EABB4" d="M64.053,51.73l-0.191,0.322c4.756,2.825,8.738,6.795,11.563,11.539l0.317,0.533l0.324-0.528
		c2.963-4.828,4.742-10.462,4.95-16.495l0.013-0.393l-0.393,0.005c-6.119,0.085-11.85,1.779-16.775,4.693l-0.544,0.322l0.544,0.323
		L64.053,51.73l0.191,0.322c4.815-2.849,10.416-4.506,16.402-4.589l-0.005-0.375l-0.375-0.013
		c-0.202,5.901-1.942,11.407-4.839,16.128l0.319,0.196l0.322-0.191c-2.89-4.854-6.962-8.912-11.825-11.801L64.053,51.73l0.191,0.322
		L64.053,51.73z"/>
	<path fill="#9EABB4" d="M64.053,51.73l0.191-0.323c-4.926-2.914-10.656-4.608-16.775-4.693l-0.393-0.005l0.013,0.393
		c0.208,6.033,1.987,11.655,4.95,16.482l0.324,0.528l0.316-0.532c2.826-4.731,6.82-8.702,11.564-11.527l0.543-0.324l-0.543-0.321
		L64.053,51.73l-0.191-0.322c-4.852,2.889-8.936,6.947-11.824,11.787l0.321,0.193l0.319-0.197
		c-2.896-4.72-4.637-10.214-4.839-16.115l-0.375,0.013l-0.005,0.375c5.986,0.083,11.587,1.74,16.402,4.589L64.053,51.73
		l-0.191-0.322L64.053,51.73z"/>
	<path fill="#9EABB4" d="M80.642,47.064l0.375,0.012c0.012-0.373,0.024-0.75,0.024-1.133c0-6.009-1.573-11.643-4.316-16.52
		l-0.332-0.591l-0.324,0.596c-2.849,5.245-7.081,9.632-12.207,12.672l-0.545,0.323l0.545,0.322
		c4.926,2.914,10.656,4.62,16.775,4.693l0.368,0.004l0.012-0.367L80.642,47.064l0.005-0.375c-5.985-0.072-11.586-1.74-16.402-4.589
		l-0.191,0.323l0.191,0.323c5.242-3.109,9.569-7.595,12.483-12.959l-0.329-0.179l-0.327,0.184c2.682,4.768,4.22,10.273,4.22,16.151
		c0,0.365-0.013,0.735-0.024,1.109L80.642,47.064l0.005-0.375L80.642,47.064z"/>
	<path fill="#9EABB4" d="M51.696,29.619l0.327,0.183c2.884-5.161,7.128-9.453,12.231-12.421l0.555-0.323l-0.555-0.325
		c-4.876-2.853-10.535-4.511-16.568-4.584l-0.367-0.004l-0.012,0.367c-0.012,0.357-0.049,0.735-0.049,1.133
		c0,5.85,1.487,11.351,4.108,16.153l0.325,0.596l0.331-0.592L51.696,29.619l0.329-0.18c-2.562-4.696-4.017-10.071-4.017-15.794
		c0-0.35,0.035-0.719,0.049-1.109l-0.375-0.012l-0.005,0.375c5.901,0.072,11.431,1.692,16.198,4.481l0.189-0.324l-0.188-0.324
		c-5.219,3.036-9.559,7.424-12.509,12.703L51.696,29.619l0.329-0.18L51.696,29.619z"/>
	<path fill="#9EABB4" d="M80.663,45.937h-0.5c-0.001,9.094-3.686,17.322-9.644,23.281c-5.96,5.959-14.188,9.643-23.28,9.643
		c-9.094,0-17.322-3.684-23.282-9.643c-5.958-5.959-9.643-14.188-9.643-23.281c0-9.093,3.685-17.32,9.643-23.279
		c5.96-5.958,14.188-9.643,23.282-9.643c9.093,0,17.32,3.684,23.28,9.643c5.958,5.959,9.643,14.186,9.644,23.279H80.663h0.5
		c-0.001-18.734-15.188-33.921-33.924-33.921c-18.737,0-33.924,15.187-33.925,33.921c0,18.736,15.188,33.924,33.925,33.924
		c18.735,0,33.923-15.188,33.924-33.924H80.663z"/>
	<path fill="#9EABB4" d="M80.683,21.453c5.425,7.111,8.647,15.99,8.647,25.625c0,11.682-4.733,22.252-12.388,29.906
		c-7.655,7.654-18.226,12.387-29.905,12.387c-17.234,0-32.059-10.306-38.65-25.093l-0.685,0.306
		C14.41,79.632,29.499,90.12,47.038,90.121c23.771-0.001,43.043-19.27,43.043-43.043c0-9.803-3.279-18.844-8.801-26.08
		L80.683,21.453z"/>
	<path fill="#9EABB4" d="M5.324,56.123l-2.858,0.727c-0.134,0.033-0.253,0.078-0.358,0.137c-0.105,0.057-0.188,0.137-0.248,0.238
		c-0.05,0.084-0.086,0.195-0.109,0.336c-0.022,0.141-0.006,0.32,0.05,0.541c0.064,0.252,0.199,0.531,0.403,0.836l0.16,0.207
		l0.204,0.219l0.22,0.207l0.208,0.172l3.052-0.775l0.125,0.494l-5.567,1.414L0.479,60.38l1.942-0.492
		c-0.12-0.113-0.232-0.225-0.336-0.334c-0.104-0.111-0.2-0.227-0.287-0.348c-0.228-0.318-0.387-0.652-0.475-1
		c-0.127-0.502-0.088-0.918,0.117-1.25c0.094-0.152,0.211-0.275,0.352-0.371c0.141-0.098,0.321-0.174,0.541-0.23l2.866-0.727
		L5.324,56.123z"/>
	<path fill="#9EABB4" d="M4.564,51.242l-0.198,0.193l-0.171,0.117c0.114,0.109,0.212,0.229,0.294,0.359s0.151,0.262,0.206,0.395
		c0.055,0.131,0.098,0.258,0.129,0.377c0.031,0.121,0.053,0.227,0.065,0.32c0.046,0.347,0.05,0.643,0.011,0.889
		c-0.039,0.247-0.108,0.451-0.206,0.613s-0.218,0.285-0.361,0.369c-0.143,0.084-0.295,0.137-0.456,0.158
		c-0.303,0.039-0.564-0.004-0.786-0.131c-0.221-0.127-0.413-0.326-0.576-0.598s-0.308-0.607-0.433-1.009s-0.245-0.854-0.357-1.362
		l-0.022,0.004c-0.161,0.021-0.299,0.059-0.414,0.111s-0.206,0.133-0.273,0.241c-0.068,0.108-0.111,0.249-0.13,0.42
		c-0.02,0.172-0.012,0.385,0.022,0.639c0.026,0.2,0.065,0.376,0.115,0.528c0.05,0.153,0.092,0.262,0.125,0.327l0.06,0.111
		l-0.513,0.12l-0.056-0.141c-0.031-0.086-0.069-0.21-0.113-0.373s-0.078-0.336-0.103-0.516c-0.082-0.615-0.022-1.081,0.179-1.396
		s0.534-0.504,0.999-0.566l2.051-0.273l0.208-0.035l0.135-0.048L4.107,51l0.137-0.149l0.233-0.262L4.564,51.242z M2.216,51.869
		c0.111,0.497,0.223,0.92,0.333,1.268c0.111,0.348,0.229,0.629,0.352,0.844s0.257,0.367,0.403,0.453
		c0.146,0.088,0.312,0.119,0.498,0.094l0.239-0.08c0.086-0.043,0.163-0.119,0.23-0.229c0.068-0.107,0.117-0.254,0.146-0.439
		s0.025-0.428-0.015-0.727c-0.011-0.078-0.031-0.176-0.062-0.293c-0.03-0.117-0.077-0.24-0.139-0.369s-0.141-0.254-0.236-0.375
		s-0.215-0.23-0.357-0.326L2.216,51.869z"/>
	<path fill="#9EABB4" d="M0.918,46.884c-0.12,0.117-0.202,0.207-0.247,0.268l-0.102,0.165l-0.063,0.22
		c-0.015,0.082-0.021,0.178-0.017,0.285c0.003,0.114,0.021,0.236,0.052,0.369c0.031,0.132,0.083,0.275,0.157,0.432
		c0.137,0.262,0.31,0.513,0.519,0.753l3.221-0.1l0.016,0.517l-4.3,0.133l-0.016-0.517l0.488-0.008
		c-0.072-0.091-0.136-0.182-0.193-0.271c-0.057-0.089-0.109-0.185-0.157-0.287c-0.074-0.15-0.137-0.31-0.188-0.476
		c-0.052-0.166-0.081-0.342-0.087-0.529c-0.003-0.118,0.003-0.238,0.019-0.359c0.016-0.121,0.049-0.239,0.1-0.354l0.136-0.252
		c0.055-0.078,0.139-0.184,0.253-0.315L0.918,46.884z"/>
	<path fill="#9EABB4" d="M4.895,39.978L1.806,39.66c-0.112-0.012-0.218-0.012-0.316,0c-0.098,0.012-0.189,0.049-0.275,0.109
		c-0.064,0.048-0.124,0.12-0.178,0.216c-0.055,0.096-0.091,0.232-0.109,0.409c-0.022,0.21,0.01,0.452,0.096,0.723
		c0.04,0.138,0.097,0.285,0.17,0.441c0.073,0.156,0.167,0.32,0.284,0.49l3.169,0.327l-0.052,0.507l-3.184-0.328
		c-0.123-0.013-0.225-0.007-0.306,0.017L0.883,42.7c-0.066,0.063-0.121,0.14-0.165,0.232c-0.044,0.092-0.074,0.209-0.088,0.352
		c-0.01,0.098-0.008,0.212,0.006,0.342c0.014,0.13,0.045,0.27,0.094,0.418c0.04,0.143,0.098,0.292,0.173,0.445
		s0.17,0.309,0.283,0.464l3.162,0.326l-0.053,0.515l-4.28-0.441l0.053-0.515l0.521,0.061c-0.084-0.147-0.155-0.287-0.213-0.419
		s-0.105-0.26-0.143-0.383c-0.047-0.163-0.078-0.316-0.09-0.458c-0.012-0.143-0.012-0.277,0.001-0.405
		c0.02-0.186,0.062-0.353,0.13-0.499c0.067-0.147,0.15-0.272,0.25-0.375l0.198-0.158l0.215-0.104
		c-0.19-0.312-0.324-0.601-0.401-0.866c-0.091-0.316-0.123-0.615-0.094-0.894c0.023-0.226,0.077-0.418,0.16-0.578
		c0.083-0.16,0.189-0.29,0.319-0.391c0.124-0.096,0.263-0.161,0.417-0.195c0.155-0.033,0.315-0.042,0.482-0.024l3.125,0.322
		L4.895,39.978z"/>
	<path fill="#9EABB4" d="M5.039,33.845c0.236,0.16,0.43,0.36,0.581,0.601c0.152,0.24,0.252,0.522,0.3,0.845
		c0.049,0.323,0.021,0.686-0.083,1.086c-0.1,0.387-0.246,0.71-0.438,0.971c-0.192,0.261-0.414,0.462-0.664,0.604
		c-0.25,0.141-0.52,0.227-0.807,0.256c-0.288,0.03-0.575,0.008-0.861-0.066c-0.344-0.089-0.634-0.229-0.873-0.42
		c-0.238-0.191-0.421-0.417-0.55-0.677c-0.129-0.26-0.206-0.543-0.23-0.85s0.004-0.62,0.087-0.94
		c0.083-0.319,0.209-0.607,0.38-0.864c0.171-0.256,0.376-0.465,0.617-0.626c0.241-0.162,0.511-0.269,0.812-0.32
		c0.301-0.052,0.623-0.034,0.967,0.056C4.549,33.569,4.803,33.684,5.039,33.845z M4.149,33.992
		c-0.262-0.068-0.511-0.083-0.745-0.044s-0.446,0.12-0.636,0.244c-0.19,0.124-0.352,0.287-0.486,0.489
		c-0.133,0.202-0.234,0.434-0.302,0.697c-0.068,0.262-0.093,0.516-0.075,0.759c0.018,0.244,0.081,0.466,0.186,0.667
		c0.106,0.2,0.252,0.375,0.438,0.521c0.186,0.147,0.41,0.255,0.672,0.323c0.22,0.057,0.441,0.075,0.666,0.054
		c0.224-0.021,0.435-0.086,0.631-0.196s0.371-0.268,0.524-0.475c0.153-0.207,0.27-0.468,0.352-0.783
		c0.079-0.305,0.102-0.584,0.068-0.838c-0.034-0.253-0.11-0.474-0.229-0.663c-0.119-0.188-0.271-0.346-0.454-0.473
		c-0.184-0.126-0.388-0.219-0.612-0.277L4.149,33.992z"/>
	<path fill="#9EABB4" d="M7.922,29.997L5.18,28.911c-0.128-0.051-0.252-0.084-0.371-0.099c-0.118-0.015-0.232,0.001-0.341,0.048
		c-0.091,0.043-0.188,0.115-0.288,0.216c-0.101,0.101-0.193,0.256-0.276,0.467c-0.096,0.243-0.151,0.547-0.163,0.914
		c-0.004,0.078-0.002,0.165,0.008,0.262c0.009,0.096,0.022,0.194,0.039,0.293c0.016,0.099,0.036,0.197,0.059,0.293
		c0.023,0.097,0.045,0.184,0.067,0.261l2.928,1.16l-0.19,0.481l-4-1.584l0.19-0.481l0.095,0.042l0.21,0.091l0.223,0.101
		c-0.076-0.332-0.113-0.646-0.112-0.943c0.001-0.392,0.067-0.752,0.198-1.083c0.192-0.485,0.469-0.803,0.83-0.951
		c0.165-0.067,0.332-0.099,0.502-0.095c0.171,0.004,0.362,0.048,0.572,0.131l2.749,1.089L7.922,29.997z"/>
	<path fill="#9EABB4" d="M10.124,27.223c0.077,0.097,0.157,0.212,0.239,0.345c0.083,0.133,0.146,0.29,0.19,0.469
		c0.046,0.175,0.062,0.366,0.044,0.572s-0.088,0.426-0.213,0.661c-0.06,0.113-0.122,0.21-0.184,0.292l-0.186,0.215L9.804,29.97
		c-0.073,0.053-0.179,0.121-0.317,0.204l-0.271-0.437c0.119-0.065,0.211-0.121,0.277-0.167l0.181-0.143l0.145-0.17l0.136-0.216
		c0.167-0.313,0.208-0.607,0.124-0.88c-0.057-0.197-0.168-0.404-0.333-0.62l-0.533-0.667l-4.797,0.351l0.281-0.529l2.252-0.161
		l1.888-0.136c-0.186-0.227-0.37-0.454-0.551-0.681c-0.181-0.227-0.361-0.45-0.541-0.668l-1.31-1.632l0.256-0.483L10.124,27.223z"/>
	<polygon fill="#9EABB4" points="11.472,24.625 11.231,25.006 10.082,23.919 10.383,23.444 	"/>
	<path fill="#9EABB4" d="M14.645,17.27c0.144,0.248,0.234,0.512,0.272,0.794s0.013,0.574-0.077,0.878
		c-0.089,0.304-0.257,0.604-0.502,0.899c-0.17,0.205-0.343,0.366-0.518,0.483s-0.343,0.208-0.505,0.272l-0.196,0.062l-0.182,0.046
		l0.34,0.273l-0.331,0.398L8.53,17.704l0.326-0.392l1.427,1.186c0.019-0.292,0.082-0.566,0.189-0.823
		c0.108-0.257,0.251-0.493,0.431-0.709c0.224-0.269,0.471-0.477,0.74-0.625c0.27-0.147,0.546-0.233,0.83-0.257
		c0.283-0.024,0.564,0.009,0.844,0.101c0.28,0.092,0.541,0.238,0.783,0.44C14.319,16.807,14.501,17.022,14.645,17.27z
		 M13.773,17.017c-0.186-0.154-0.385-0.269-0.599-0.344s-0.431-0.104-0.653-0.087c-0.223,0.017-0.44,0.083-0.654,0.197
		c-0.214,0.114-0.412,0.281-0.595,0.5c-0.183,0.22-0.318,0.458-0.406,0.715c-0.089,0.256-0.12,0.559-0.095,0.906l1.688,1.404
		l0.104-0.015l0.119-0.021l0.183-0.041l0.202-0.063c0.139-0.051,0.286-0.126,0.441-0.225c0.155-0.098,0.309-0.238,0.46-0.42
		c0.189-0.228,0.317-0.457,0.385-0.689s0.089-0.458,0.064-0.678c-0.025-0.22-0.095-0.427-0.209-0.622
		c-0.114-0.194-0.26-0.365-0.438-0.513L13.773,17.017z"/>
	<path fill="#9EABB4" d="M18.735,15.142c-0.111-0.009-0.203-0.024-0.273-0.045l-0.195-0.07c-0.021,0.157-0.06,0.307-0.118,0.45
		s-0.124,0.276-0.198,0.398s-0.151,0.231-0.23,0.327s-0.152,0.176-0.22,0.24c-0.253,0.242-0.491,0.419-0.713,0.532
		s-0.428,0.178-0.616,0.194c-0.188,0.016-0.359-0.009-0.511-0.075c-0.152-0.066-0.284-0.158-0.396-0.276
		c-0.211-0.221-0.33-0.458-0.357-0.712c-0.027-0.253,0.021-0.526,0.145-0.817c0.124-0.292,0.311-0.606,0.561-0.943
		c0.25-0.337,0.547-0.701,0.892-1.09l-0.016-0.016c-0.112-0.118-0.223-0.208-0.333-0.27c-0.11-0.062-0.229-0.088-0.356-0.079
		c-0.127,0.009-0.266,0.057-0.417,0.142c-0.15,0.085-0.318,0.216-0.503,0.393c-0.146,0.14-0.266,0.274-0.36,0.404
		c-0.094,0.13-0.157,0.228-0.19,0.293l-0.055,0.114l-0.399-0.344l0.081-0.128c0.051-0.076,0.129-0.179,0.235-0.311
		c0.106-0.131,0.225-0.26,0.357-0.386c0.45-0.428,0.861-0.654,1.234-0.676c0.374-0.022,0.722,0.136,1.045,0.475l1.428,1.498
		l0.151,0.147l0.118,0.081l0.135,0.04l0.201,0.023l0.35,0.035L18.735,15.142z M16.847,13.612c-0.337,0.382-0.613,0.721-0.83,1.016
		s-0.375,0.555-0.476,0.781c-0.101,0.226-0.145,0.423-0.129,0.593s0.087,0.322,0.217,0.458l0.206,0.146
		c0.086,0.044,0.193,0.062,0.32,0.052s0.275-0.056,0.442-0.141c0.168-0.085,0.36-0.231,0.578-0.438
		c0.057-0.054,0.124-0.128,0.201-0.223c0.077-0.094,0.149-0.204,0.217-0.33c0.068-0.125,0.123-0.263,0.164-0.412
		c0.042-0.149,0.06-0.309,0.054-0.48L16.847,13.612z"/>

		<rect x="15.503" y="11.464" transform="matrix(0.6313 0.7755 -0.7755 0.6313 15.8636 -9.9299)" fill="#9EABB4" width="5.744" height="0.51"/>
	<path fill="#9EABB4" d="M24.097,11.091c-0.108-0.027-0.196-0.056-0.263-0.088l-0.181-0.099c-0.045,0.151-0.108,0.293-0.187,0.425
		c-0.079,0.133-0.165,0.253-0.257,0.362c-0.093,0.109-0.186,0.204-0.278,0.287c-0.093,0.082-0.178,0.15-0.255,0.203
		c-0.288,0.199-0.551,0.336-0.788,0.414c-0.237,0.078-0.451,0.109-0.639,0.096c-0.189-0.014-0.354-0.064-0.493-0.154
		c-0.14-0.089-0.256-0.201-0.348-0.335c-0.174-0.251-0.254-0.504-0.241-0.759c0.013-0.254,0.103-0.516,0.271-0.785
		c0.167-0.269,0.401-0.55,0.702-0.844c0.3-0.294,0.65-0.606,1.05-0.937l-0.012-0.018c-0.093-0.134-0.188-0.24-0.288-0.318
		c-0.099-0.078-0.212-0.123-0.339-0.134s-0.272,0.014-0.434,0.075c-0.162,0.061-0.348,0.164-0.559,0.31
		c-0.167,0.115-0.306,0.229-0.419,0.343c-0.113,0.114-0.19,0.201-0.233,0.26l-0.072,0.104l-0.341-0.402l0.101-0.115
		c0.062-0.066,0.155-0.156,0.281-0.27c0.125-0.113,0.263-0.222,0.413-0.326c0.511-0.353,0.953-0.511,1.325-0.475
		c0.372,0.036,0.691,0.247,0.958,0.632l1.176,1.703l0.126,0.169l0.104,0.099l0.127,0.061l0.194,0.054l0.34,0.088L24.097,11.091z
		 M22.471,9.285c-0.393,0.325-0.718,0.616-0.978,0.873c-0.259,0.257-0.457,0.49-0.592,0.697c-0.135,0.208-0.208,0.396-0.22,0.565
		c-0.012,0.17,0.036,0.332,0.143,0.486l0.18,0.176c0.078,0.057,0.181,0.091,0.308,0.102c0.127,0.011,0.28-0.012,0.459-0.07
		c0.179-0.057,0.392-0.172,0.639-0.343c0.065-0.044,0.143-0.107,0.233-0.188c0.091-0.081,0.18-0.178,0.266-0.292
		c0.086-0.113,0.162-0.24,0.226-0.381c0.065-0.141,0.107-0.295,0.128-0.465L22.471,9.285z"/>
	<path fill="#9EABB4" d="M28.337,8.714L26.951,6.11c-0.064-0.122-0.137-0.227-0.218-0.315s-0.178-0.15-0.291-0.185
		c-0.098-0.026-0.217-0.033-0.359-0.022c-0.142,0.011-0.313,0.07-0.513,0.177c-0.23,0.123-0.469,0.32-0.715,0.59L24.69,6.561
		L24.53,6.809l-0.146,0.262l-0.118,0.243l1.48,2.78l-0.457,0.243l-2.022-3.797l0.457-0.243l0.045,0.093l0.101,0.206l0.105,0.22
		c0.158-0.301,0.333-0.565,0.525-0.791c0.255-0.297,0.539-0.53,0.852-0.696c0.461-0.246,0.877-0.308,1.249-0.188
		c0.169,0.055,0.317,0.14,0.444,0.253c0.127,0.114,0.245,0.271,0.351,0.471l1.39,2.61L28.337,8.714z"/>
	<path fill="#9EABB4" d="M33.182,6.045c-0.068,0.177-0.16,0.344-0.273,0.499c-0.114,0.155-0.259,0.299-0.436,0.431
		c-0.176,0.132-0.393,0.248-0.65,0.348c-0.28,0.109-0.569,0.175-0.867,0.199c-0.297,0.023-0.583-0.01-0.855-0.1
		s-0.523-0.241-0.751-0.453c-0.228-0.213-0.414-0.503-0.557-0.87c-0.139-0.358-0.196-0.693-0.169-1.005
		c0.027-0.312,0.111-0.594,0.253-0.848c0.142-0.253,0.33-0.473,0.564-0.66c0.234-0.186,0.487-0.332,0.758-0.438
		c0.427-0.166,0.811-0.227,1.151-0.182c0.34,0.045,0.687,0.176,1.041,0.393l-0.32,0.402c-0.133-0.085-0.264-0.155-0.391-0.209
		c-0.126-0.054-0.256-0.088-0.389-0.103c-0.132-0.015-0.273-0.01-0.423,0.014c-0.149,0.024-0.314,0.071-0.493,0.14
		c-0.221,0.086-0.422,0.204-0.604,0.354c-0.183,0.15-0.329,0.325-0.439,0.524c-0.11,0.199-0.175,0.419-0.194,0.662
		c-0.019,0.243,0.024,0.5,0.129,0.771c0.111,0.285,0.255,0.511,0.435,0.68c0.179,0.168,0.375,0.288,0.588,0.358
		c0.212,0.071,0.437,0.096,0.672,0.076c0.235-0.021,0.463-0.073,0.684-0.159c0.202-0.079,0.371-0.168,0.506-0.268
		c0.136-0.101,0.249-0.209,0.341-0.327s0.164-0.246,0.215-0.385c0.051-0.139,0.092-0.286,0.122-0.44l0.51,0.047
		C33.304,5.685,33.251,5.868,33.182,6.045z"/>
	<path fill="#9EABB4" d="M34.099,4.311c0.094,0.281,0.223,0.506,0.386,0.674c0.164,0.169,0.344,0.292,0.541,0.371
		c0.196,0.078,0.397,0.119,0.604,0.121c0.207,0.002,0.403-0.021,0.589-0.07c0.201-0.053,0.404-0.125,0.612-0.217
		c0.208-0.093,0.402-0.187,0.583-0.283c0.181-0.096,0.338-0.185,0.472-0.269c0.134-0.083,0.224-0.141,0.271-0.174l0.159,0.462
		c-0.264,0.161-0.494,0.293-0.69,0.398s-0.41,0.21-0.639,0.316c-0.23,0.106-0.44,0.184-0.631,0.234
		c-0.291,0.076-0.589,0.104-0.895,0.085c-0.306-0.02-0.596-0.105-0.87-0.258c-0.239-0.136-0.45-0.323-0.632-0.561
		c-0.182-0.237-0.32-0.538-0.415-0.9c-0.086-0.329-0.105-0.64-0.057-0.933c0.048-0.293,0.155-0.56,0.321-0.802
		c0.155-0.224,0.347-0.419,0.576-0.586c0.229-0.167,0.508-0.293,0.837-0.379c0.291-0.076,0.581-0.092,0.87-0.048
		c0.289,0.044,0.564,0.146,0.825,0.308c0.214,0.137,0.41,0.326,0.587,0.564c0.177,0.239,0.317,0.554,0.419,0.945L34.099,4.311z
		 M37.278,2.999c-0.076-0.174-0.179-0.334-0.309-0.481c-0.13-0.146-0.28-0.267-0.449-0.36c-0.17-0.093-0.354-0.155-0.553-0.184
		c-0.199-0.03-0.405-0.017-0.62,0.04c-0.243,0.063-0.457,0.159-0.64,0.286c-0.184,0.127-0.333,0.274-0.45,0.442
		c-0.116,0.168-0.198,0.348-0.245,0.538s-0.056,0.381-0.026,0.572l3.29-0.86L37.278,2.999z"/>
	<polygon fill="#9EABB4" points="39.595,5.683 39.151,5.762 39.178,4.181 39.731,4.083 	"/>
	<path fill="#9EABB4" d="M49.116,4.398l-0.385,0.006L47.62,2.441c-0.146-0.269-0.297-0.535-0.449-0.799
		c-0.151-0.264-0.301-0.53-0.448-0.798c-0.139,0.273-0.276,0.542-0.412,0.805c-0.136,0.263-0.274,0.532-0.412,0.805l-1.047,2.013
		l-0.377,0.006l-2.391-4.264L42.653,0.2l1.096,1.964c0.147,0.273,0.297,0.544,0.45,0.813c0.152,0.269,0.304,0.54,0.457,0.813
		c0.306-0.602,0.614-1.202,0.925-1.8c0.311-0.599,0.631-1.217,0.96-1.853l0.347-0.005l1.119,1.978
		c0.152,0.273,0.304,0.543,0.453,0.81c0.15,0.266,0.301,0.534,0.453,0.802c0.144-0.278,0.285-0.554,0.427-0.828
		c0.141-0.273,0.28-0.547,0.419-0.82l1.039-2.005l0.57-0.009L49.116,4.398z"/>
	<path fill="#9EABB4" d="M52.356,2.721c-0.027,0.295,0.002,0.553,0.084,0.773c0.083,0.22,0.199,0.405,0.348,0.556
		s0.316,0.268,0.506,0.353c0.188,0.084,0.377,0.142,0.567,0.171c0.204,0.032,0.421,0.047,0.647,0.045
		c0.228-0.002,0.443-0.01,0.648-0.026c0.203-0.015,0.384-0.034,0.539-0.057c0.156-0.023,0.262-0.04,0.318-0.051l-0.039,0.488
		c-0.305,0.042-0.569,0.071-0.791,0.089c-0.223,0.018-0.461,0.029-0.713,0.034c-0.253,0.005-0.477-0.007-0.672-0.038
		c-0.297-0.047-0.581-0.14-0.854-0.28c-0.272-0.14-0.504-0.335-0.693-0.584c-0.166-0.221-0.284-0.476-0.355-0.767
		c-0.072-0.291-0.078-0.621-0.021-0.991c0.053-0.336,0.159-0.628,0.321-0.877c0.16-0.249,0.365-0.451,0.615-0.607
		c0.231-0.143,0.486-0.245,0.762-0.307c0.277-0.062,0.584-0.066,0.92-0.013c0.297,0.046,0.568,0.148,0.816,0.304
		c0.247,0.156,0.458,0.36,0.633,0.612C56.085,1.76,56.19,2.011,56.256,2.3c0.066,0.29,0.068,0.635,0.006,1.034L52.356,2.721z
		 M55.794,2.789c0-0.189-0.03-0.377-0.091-0.564s-0.15-0.356-0.269-0.51s-0.263-0.283-0.433-0.39s-0.365-0.177-0.584-0.211
		c-0.248-0.039-0.482-0.037-0.701,0.006s-0.414,0.118-0.588,0.226c-0.175,0.107-0.321,0.239-0.44,0.395
		c-0.119,0.156-0.204,0.327-0.253,0.514l3.359,0.527L55.794,2.789z"/>

		<rect x="54.957" y="2.597" transform="matrix(-0.2348 0.972 -0.972 -0.2348 74.1788 -52.691)" fill="#9EABB4" width="5.744" height="0.509"/>

		<rect x="56.556" y="3.016" transform="matrix(-0.2702 0.9628 -0.9628 -0.2702 78.6329 -53.0634)" fill="#9EABB4" width="5.744" height="0.51"/>
	<path fill="#9EABB4" d="M64.311,6.578C64.125,6.796,63.907,6.97,63.655,7.1c-0.253,0.13-0.537,0.204-0.854,0.222
		s-0.654-0.04-1.016-0.173c-0.25-0.092-0.459-0.2-0.629-0.326c-0.169-0.125-0.311-0.253-0.426-0.385l-0.124-0.164l-0.104-0.156
		L60.36,6.53l-0.486-0.179l1.982-5.391l0.479,0.176l-0.641,1.741c0.281-0.08,0.562-0.112,0.839-0.097
		c0.277,0.015,0.549,0.072,0.812,0.168c0.328,0.121,0.607,0.284,0.836,0.489s0.402,0.437,0.52,0.696
		c0.118,0.258,0.181,0.535,0.188,0.829c0.008,0.294-0.043,0.589-0.152,0.885C64.639,6.117,64.497,6.36,64.311,6.578z M64.258,5.672
		c0.084-0.227,0.125-0.453,0.124-0.679s-0.046-0.441-0.137-0.645c-0.091-0.204-0.226-0.387-0.404-0.55s-0.402-0.294-0.671-0.393
		c-0.268-0.099-0.538-0.147-0.809-0.144c-0.271,0.002-0.567,0.074-0.887,0.213l-0.758,2.061l0.049,0.093l0.06,0.104l0.099,0.159
		l0.127,0.169c0.096,0.114,0.215,0.227,0.359,0.341c0.145,0.113,0.328,0.211,0.551,0.293c0.277,0.102,0.537,0.146,0.777,0.132
		c0.242-0.014,0.461-0.069,0.66-0.167s0.371-0.233,0.516-0.405s0.257-0.367,0.337-0.585L64.258,5.672z"/>
	<path fill="#9EABB4" d="M65.844,6.548c-0.117,0.272-0.171,0.526-0.161,0.761c0.011,0.235,0.062,0.447,0.157,0.636
		c0.094,0.189,0.217,0.354,0.37,0.493s0.315,0.252,0.486,0.34c0.185,0.094,0.385,0.176,0.601,0.245
		c0.217,0.069,0.425,0.128,0.623,0.177c0.199,0.049,0.377,0.087,0.531,0.114c0.156,0.027,0.262,0.044,0.319,0.051l-0.188,0.451
		c-0.305-0.055-0.564-0.109-0.781-0.162s-0.445-0.116-0.688-0.189c-0.242-0.074-0.451-0.156-0.626-0.246
		c-0.268-0.137-0.509-0.314-0.724-0.532c-0.216-0.218-0.375-0.475-0.479-0.771c-0.088-0.261-0.121-0.541-0.098-0.839
		c0.022-0.298,0.119-0.614,0.289-0.948c0.154-0.303,0.348-0.547,0.578-0.733c0.231-0.187,0.489-0.315,0.774-0.385
		c0.265-0.064,0.538-0.082,0.82-0.054s0.574,0.119,0.877,0.274c0.268,0.137,0.495,0.318,0.681,0.543
		c0.188,0.226,0.324,0.485,0.412,0.779c0.068,0.246,0.089,0.516,0.062,0.812c-0.027,0.296-0.133,0.624-0.316,0.984L65.844,6.548z
		 M69.09,7.685c0.059-0.18,0.088-0.369,0.09-0.564c0-0.196-0.032-0.386-0.097-0.568c-0.064-0.183-0.161-0.351-0.29-0.505
		s-0.291-0.282-0.488-0.383c-0.225-0.114-0.447-0.185-0.668-0.212s-0.432-0.017-0.63,0.031c-0.199,0.048-0.38,0.127-0.541,0.238
		c-0.162,0.111-0.296,0.248-0.4,0.41l3.027,1.548L69.09,7.685z"/>
	<path fill="#9EABB4" d="M69.262,10.676l2.264-3.659l0.434,0.268l-2.264,3.659L69.262,10.676z M71.778,6.609l0.506-0.817
		l0.434,0.268l-0.502,0.811L71.778,6.609z"/>
	<path fill="#9EABB4" d="M73.356,13.49l1.739-2.383c0.081-0.111,0.144-0.223,0.188-0.333s0.058-0.225,0.039-0.342
		c-0.02-0.1-0.064-0.21-0.137-0.333c-0.072-0.123-0.199-0.251-0.383-0.384c-0.211-0.154-0.492-0.283-0.844-0.387
		c-0.074-0.024-0.158-0.043-0.254-0.058c-0.096-0.015-0.194-0.027-0.295-0.036c-0.1-0.009-0.199-0.015-0.299-0.017
		c-0.099-0.002-0.189-0.002-0.27,0l-1.856,2.543l-0.418-0.305l2.536-3.476l0.418,0.305l-0.064,0.082l-0.141,0.181l-0.152,0.19
		c0.34,0.011,0.653,0.053,0.94,0.128c0.379,0.1,0.712,0.254,0.998,0.463c0.422,0.308,0.659,0.655,0.713,1.042
		c0.024,0.176,0.013,0.347-0.034,0.511s-0.137,0.338-0.27,0.521l-1.744,2.388L73.356,13.49z"/>
	<path fill="#9EABB4" d="M77.149,17.667c-0.234,0.135-0.494,0.214-0.779,0.238c-0.268,0.019-0.539-0.024-0.814-0.13
		c-0.275-0.105-0.531-0.27-0.77-0.492c-0.324-0.303-0.562-0.625-0.717-0.964c-0.064-0.148-0.117-0.316-0.156-0.505
		c-0.039-0.188-0.062-0.428-0.068-0.717l0.518,0.02c-0.004,0.191,0.005,0.365,0.025,0.52c0.021,0.154,0.068,0.319,0.141,0.495
		c0.053,0.124,0.127,0.253,0.225,0.387c0.097,0.134,0.217,0.269,0.361,0.404c0.15,0.141,0.334,0.262,0.551,0.363
		c0.216,0.101,0.438,0.142,0.663,0.124c0.19-0.017,0.376-0.074,0.554-0.17s0.377-0.262,0.596-0.496l0.075-0.081
		c-0.217-0.028-0.454-0.09-0.71-0.188s-0.519-0.273-0.789-0.525c-0.201-0.188-0.371-0.409-0.508-0.663
		c-0.139-0.253-0.225-0.522-0.26-0.805c-0.036-0.283-0.01-0.573,0.08-0.871c0.09-0.297,0.26-0.581,0.513-0.851
		c0.101-0.108,0.22-0.212,0.358-0.313c0.138-0.101,0.291-0.188,0.462-0.261c0.17-0.074,0.351-0.127,0.544-0.16
		c0.191-0.032,0.394-0.031,0.604,0.003c0.211,0.035,0.427,0.107,0.648,0.216c0.221,0.109,0.443,0.268,0.667,0.477
		c0.228,0.212,0.403,0.431,0.529,0.657s0.211,0.467,0.255,0.724l0.257-0.286l0.378,0.353l-2.731,2.921
		C77.618,17.341,77.383,17.532,77.149,17.667z M79.5,14.579c0.01-0.255-0.033-0.506-0.129-0.754
		c-0.096-0.248-0.273-0.493-0.532-0.735c-0.28-0.262-0.554-0.429-0.817-0.5s-0.51-0.088-0.736-0.051s-0.429,0.112-0.604,0.224
		c-0.176,0.112-0.313,0.223-0.415,0.331c-0.191,0.205-0.326,0.42-0.404,0.644c-0.078,0.224-0.107,0.447-0.088,0.667
		s0.084,0.435,0.194,0.642c0.11,0.207,0.255,0.395,0.435,0.563c0.141,0.131,0.28,0.236,0.419,0.315
		c0.138,0.079,0.274,0.139,0.409,0.18c0.133,0.041,0.262,0.067,0.387,0.079c0.124,0.012,0.243,0.017,0.358,0.017L79.5,14.579z"/>
</g>
</svg>
