<?xml version="1.0" encoding="utf-8"?>
<!-- Generator: Adobe Illustrator 15.0.0, SVG Export Plug-In . SVG Version: 6.00 Build 0)  -->
<!DOCTYPE svg PUBLIC "-//W3C//DTD SVG 1.1//EN" "http://www.w3.org/Graphics/SVG/1.1/DTD/svg11.dtd">
<svg version="1.1" id="Layer_1" xmlns="http://www.w3.org/2000/svg" xmlns:xlink="http://www.w3.org/1999/xlink" x="0px" y="0px"
   width="136.73px" height="26.623px" viewBox="0 0 136.73 26.623" enable-background="new 0 0 136.73 26.623" xml:space="preserve">
<g>
  <g>
    <g id="XMLID_1_">
      <g>
      </g>
      <g>
        <line fill="none" stroke="#C9CACC" stroke-width="0.5" x1="13.049" y1="13.559" x2="13.035" y2="13.559"/>
        <path fill="none" stroke="#C9CACC" stroke-width="0.5" d="M13.123,0.687c0-0.144-0.009-0.292-0.014-0.437
          c-2.358,0-4.563,0.641-6.462,1.75c2.033,1.184,3.714,2.901,4.837,4.972C12.529,5.115,13.123,2.971,13.123,0.687z"/>
        <path fill="none" stroke="#C9CACC" stroke-width="0.5" d="M6.647,11.855C4.628,10.695,2.957,9,1.814,6.967
          C0.816,8.796,0.25,10.89,0.25,13.123c0,0.144,0.01,0.292,0.015,0.436C2.59,13.559,4.768,12.937,6.647,11.855z"/>
        <path fill="none" stroke="#C9CACC" stroke-width="0.5" d="M11.484,6.972c-1.138,2.033-2.813,3.723-4.837,4.883
          c1.885,1.082,4.062,1.704,6.388,1.704c0.004-0.144,0.014-0.292,0.014-0.436C13.049,10.895,12.482,8.801,11.484,6.972z"/>
        <path fill="none" stroke="#C9CACC" stroke-width="0.5" d="M11.229,19.71c-1.114,1.875-2.697,3.435-4.577,4.535
          c1.898,1.11,4.104,1.746,6.457,1.75C13.03,23.698,12.357,21.553,11.229,19.71z"/>
        <path fill="none" stroke="#C9CACC" stroke-width="0.5" d="M11.229,19.71c1.081-1.806,1.731-3.904,1.806-6.151
          c-2.326,0.005-4.503,0.627-6.388,1.704C8.522,16.34,10.101,17.872,11.229,19.71z"/>
        <path fill="none" stroke="#C9CACC" stroke-width="0.5" d="M0.265,13.559c0.074,2.247,0.724,4.345,1.806,6.156
          c1.128-1.838,2.706-3.375,4.577-4.452C4.768,14.186,2.59,13.564,0.265,13.559z"/>
        <path fill="none" stroke="#C9CACC" stroke-width="0.5" d="M14.841,6.837c-1.045,1.857-1.639,4.001-1.639,6.286
          c0,0.144,0.005,0.288,0.009,0.432c2.331-0.028,4.513-0.678,6.388-1.788C17.603,10.583,15.95,8.88,14.841,6.837z"/>
        <path fill="none" stroke="#C9CACC" stroke-width="0.5" d="M13.049,13.559c0.056,0,0.106,0.005,0.162,0.005c0,0,0-0.005,0-0.009
          C13.155,13.559,13.104,13.559,13.049,13.559z"/>
        <path fill="none" stroke="#C9CACC" stroke-width="0.5" d="M15.096,19.84c-1.081,1.811-1.727,3.909-1.801,6.151
          c2.298-0.032,4.447-0.664,6.304-1.746C17.756,23.173,16.205,21.655,15.096,19.84z"/>
        <path fill="none" stroke="#C9CACC" stroke-width="0.5" d="M19.599,15.351c1.853,1.1,3.403,2.646,4.503,4.494
          c1.128-1.838,1.806-3.983,1.885-6.281C23.656,13.596,21.475,14.242,19.599,15.351z"/>
        <path fill="none" stroke="#C9CACC" stroke-width="0.5" d="M19.599,15.351c-1.875-1.109-4.057-1.755-6.388-1.787
          c0.079,2.298,0.757,4.438,1.885,6.276C16.196,17.997,17.751,16.451,19.599,15.351z"/>
        <path fill="none" stroke="#C9CACC" stroke-width="0.5" d="M25.986,13.555c0.005-0.144,0.01-0.288,0.01-0.432
          c0-2.289-0.6-4.434-1.644-6.291c-1.109,2.043-2.758,3.751-4.754,4.935C21.475,12.877,23.656,13.527,25.986,13.555z"/>
        <path fill="none" stroke="#C9CACC" stroke-width="0.5" d="M14.841,6.837c1.123-2.01,2.775-3.681,4.763-4.837
          c-1.856-1.086-4.011-1.718-6.309-1.746c-0.005,0.144-0.019,0.288-0.019,0.432C13.276,2.915,13.843,5.008,14.841,6.837z"/>
      </g>
    </g>
  </g>
  <circle fill="none" stroke="#C9CACC" stroke-width="0.5" cx="13.123" cy="13.119" r="12.87"/>
</g>
<g>
  <path fill="#455560" d="M34.884,13.035l0.791,0.2c-0.166,0.649-0.465,1.146-0.895,1.486c-0.432,0.342-0.959,0.512-1.581,0.512
    c-0.645,0-1.169-0.131-1.572-0.394c-0.403-0.262-0.711-0.642-0.922-1.14c-0.21-0.497-0.315-1.032-0.315-1.603
    c0-0.623,0.119-1.166,0.356-1.63c0.237-0.463,0.576-0.815,1.016-1.057c0.438-0.24,0.923-0.36,1.45-0.36
    c0.598,0,1.102,0.152,1.509,0.457s0.692,0.732,0.853,1.284l-0.779,0.184c-0.139-0.435-0.34-0.752-0.604-0.95
    s-0.596-0.298-0.995-0.298c-0.46,0-0.844,0.11-1.152,0.33c-0.309,0.221-0.525,0.517-0.65,0.888s-0.188,0.754-0.188,1.148
    c0,0.508,0.073,0.952,0.222,1.331c0.148,0.38,0.379,0.663,0.691,0.851s0.651,0.281,1.016,0.281c0.443,0,0.818-0.128,1.126-0.383
    C34.567,13.918,34.774,13.538,34.884,13.035z"/>
  <path fill="#455560" d="M36.784,15.132V9.152h0.791v5.979H36.784z"/>
  <path fill="#455560" d="M40.491,15.132V9.858h-1.969V9.152h4.738v0.706h-1.978v5.273H40.491z"/>
  <path fill="#455560" d="M45.757,15.132v-2.533l-2.305-3.446h0.963l1.179,1.803c0.218,0.338,0.421,0.675,0.608,1.012
    c0.18-0.312,0.396-0.665,0.652-1.057l1.158-1.758h0.922l-2.387,3.446v2.533H45.757z"/>
  <path fill="#455560" d="M53.433,12.934l1.171,0.371c-0.18,0.652-0.478,1.138-0.896,1.454c-0.417,0.316-0.947,0.475-1.588,0.475
    c-0.795,0-1.447-0.271-1.958-0.813c-0.511-0.542-0.767-1.284-0.767-2.225c0-0.995,0.256-1.769,0.771-2.318
    c0.514-0.551,1.189-0.826,2.026-0.826c0.732,0,1.326,0.216,1.783,0.648c0.271,0.256,0.476,0.623,0.611,1.102l-1.195,0.285
    c-0.07-0.31-0.218-0.555-0.441-0.734c-0.225-0.18-0.498-0.269-0.818-0.269c-0.443,0-0.803,0.158-1.078,0.477
    c-0.277,0.318-0.414,0.834-0.414,1.546c0,0.756,0.135,1.294,0.407,1.615s0.626,0.481,1.061,0.481c0.321,0,0.597-0.103,0.828-0.306
    C53.167,13.692,53.333,13.371,53.433,12.934z"/>
  <path fill="#455560" d="M55.644,15.132V9.152h1.207v2.354h2.365V9.152h1.208v5.979h-1.208v-2.614h-2.365v2.614H55.644z"/>
  <path fill="#455560" d="M61.635,15.132V9.152h1.208v5.979H61.635z"/>
  <path fill="#455560" d="M63.997,15.132V9.152h2.54c0.639,0,1.104,0.054,1.393,0.161c0.29,0.107,0.521,0.299,0.696,0.573
    c0.174,0.274,0.261,0.589,0.261,0.942c0,0.448-0.132,0.819-0.396,1.111s-0.658,0.477-1.183,0.553
    c0.261,0.152,0.477,0.319,0.646,0.502c0.17,0.182,0.398,0.505,0.688,0.971l0.729,1.166h-1.444l-0.872-1.301
    c-0.31-0.465-0.522-0.758-0.636-0.879c-0.115-0.121-0.236-0.204-0.363-0.249c-0.129-0.045-0.33-0.067-0.607-0.067h-0.246v2.496
    H63.997z M65.203,11.682h0.895c0.578,0,0.939-0.024,1.084-0.073c0.145-0.05,0.258-0.134,0.339-0.253
    c0.081-0.12,0.122-0.27,0.122-0.449c0-0.201-0.054-0.363-0.16-0.487c-0.108-0.124-0.26-0.202-0.455-0.234
    c-0.098-0.014-0.393-0.021-0.881-0.021h-0.943V11.682z"/>
  <path fill="#455560" d="M69.779,12.179c0-0.608,0.092-1.12,0.273-1.533c0.137-0.305,0.322-0.578,0.557-0.82
    c0.236-0.241,0.494-0.421,0.773-0.538c0.372-0.157,0.802-0.236,1.289-0.236c0.881,0,1.586,0.273,2.114,0.819
    c0.529,0.547,0.794,1.307,0.794,2.28c0,0.965-0.263,1.721-0.787,2.266c-0.525,0.545-1.227,0.817-2.104,0.817
    c-0.89,0-1.597-0.271-2.121-0.813C70.043,13.878,69.779,13.131,69.779,12.179z M71.023,12.138c0,0.678,0.156,1.19,0.47,1.54
    c0.312,0.35,0.71,0.524,1.19,0.524c0.481,0,0.877-0.174,1.186-0.521s0.463-0.866,0.463-1.56c0-0.686-0.15-1.196-0.451-1.534
    c-0.301-0.337-0.699-0.505-1.197-0.505c-0.497,0-0.898,0.17-1.203,0.512C71.176,10.936,71.023,11.45,71.023,12.138z"/>
  <path fill="#455560" d="M76.521,15.132V9.152h1.938c0.734,0,1.213,0.03,1.436,0.09c0.343,0.09,0.63,0.285,0.86,0.585
    c0.231,0.301,0.347,0.689,0.347,1.165c0,0.367-0.066,0.676-0.199,0.926c-0.134,0.25-0.303,0.446-0.508,0.589
    c-0.205,0.144-0.414,0.237-0.626,0.284c-0.288,0.057-0.706,0.085-1.252,0.085h-0.787v2.256H76.521z M77.729,10.164v1.696h0.66
    c0.476,0,0.794-0.031,0.954-0.094c0.161-0.062,0.286-0.16,0.378-0.293c0.091-0.134,0.137-0.288,0.137-0.465
    c0-0.218-0.064-0.397-0.192-0.539c-0.128-0.141-0.289-0.229-0.485-0.265c-0.144-0.027-0.434-0.041-0.868-0.041H77.729z"/>
  <path fill="#455560" d="M82.097,15.132V9.152h2.541c0.64,0,1.104,0.054,1.394,0.161c0.289,0.107,0.521,0.299,0.695,0.573
    s0.261,0.589,0.261,0.942c0,0.448-0.132,0.819-0.396,1.111s-0.658,0.477-1.183,0.553c0.261,0.152,0.477,0.319,0.646,0.502
    c0.17,0.182,0.398,0.505,0.687,0.971l0.73,1.166h-1.443l-0.873-1.301c-0.311-0.465-0.522-0.758-0.637-0.879
    s-0.235-0.204-0.362-0.249c-0.128-0.045-0.331-0.067-0.608-0.067h-0.244v2.496H82.097z M83.305,11.682h0.893
    c0.579,0,0.941-0.024,1.085-0.073c0.145-0.05,0.257-0.134,0.339-0.253c0.081-0.12,0.122-0.27,0.122-0.449
    c0-0.201-0.054-0.363-0.161-0.487s-0.259-0.202-0.454-0.234c-0.099-0.014-0.392-0.021-0.882-0.021h-0.941V11.682z"/>
  <path fill="#455560" d="M93.518,15.132h-1.313l-0.522-1.358h-2.39l-0.494,1.358h-1.28l2.329-5.979h1.276L93.518,15.132z
     M91.294,12.767l-0.823-2.219l-0.808,2.219H91.294z"/>
  <path fill="#455560" d="M97.983,12.934l1.17,0.371c-0.179,0.652-0.478,1.138-0.895,1.454c-0.418,0.316-0.947,0.475-1.589,0.475
    c-0.794,0-1.446-0.271-1.958-0.813c-0.511-0.542-0.767-1.284-0.767-2.225c0-0.995,0.257-1.769,0.771-2.318
    c0.515-0.551,1.19-0.826,2.027-0.826c0.731,0,1.326,0.216,1.782,0.648c0.272,0.256,0.477,0.623,0.612,1.102l-1.195,0.285
    c-0.07-0.31-0.218-0.555-0.442-0.734s-0.497-0.269-0.817-0.269c-0.443,0-0.804,0.158-1.079,0.477
    c-0.276,0.318-0.414,0.834-0.414,1.546c0,0.756,0.136,1.294,0.408,1.615c0.271,0.321,0.625,0.481,1.06,0.481
    c0.321,0,0.598-0.103,0.828-0.306C97.717,13.692,97.883,13.371,97.983,12.934z"/>
  <path fill="#455560" d="M101.536,15.132v-4.968h-1.774V9.152h4.751v1.012h-1.77v4.968H101.536z"/>
  <path fill="#455560" d="M105.256,15.132V9.152h1.207v5.979H105.256z"/>
  <path fill="#455560" d="M111.439,12.934l1.17,0.371c-0.179,0.652-0.478,1.138-0.895,1.454c-0.418,0.316-0.947,0.475-1.589,0.475
    c-0.794,0-1.446-0.271-1.958-0.813c-0.511-0.542-0.767-1.284-0.767-2.225c0-0.995,0.257-1.769,0.771-2.318
    c0.515-0.551,1.19-0.826,2.027-0.826c0.731,0,1.326,0.216,1.782,0.648c0.272,0.256,0.477,0.623,0.612,1.102l-1.195,0.285
    c-0.07-0.31-0.218-0.555-0.442-0.734s-0.497-0.269-0.817-0.269c-0.443,0-0.804,0.158-1.079,0.477
    c-0.276,0.318-0.414,0.834-0.414,1.546c0,0.756,0.136,1.294,0.408,1.615c0.271,0.321,0.625,0.481,1.06,0.481
    c0.321,0,0.598-0.103,0.828-0.306C111.173,13.692,111.339,13.371,111.439,12.934z"/>
  <path fill="#455560" d="M117.947,13.035l0.792,0.2c-0.166,0.649-0.465,1.146-0.896,1.486c-0.431,0.342-0.958,0.512-1.58,0.512
    c-0.645,0-1.169-0.131-1.572-0.394c-0.404-0.262-0.712-0.642-0.922-1.14c-0.211-0.497-0.316-1.032-0.316-1.603
    c0-0.623,0.119-1.166,0.356-1.63c0.238-0.463,0.577-0.815,1.016-1.057c0.439-0.24,0.923-0.36,1.45-0.36
    c0.599,0,1.102,0.152,1.509,0.457c0.408,0.305,0.692,0.732,0.853,1.284l-0.778,0.184c-0.139-0.435-0.34-0.752-0.604-0.95
    c-0.264-0.198-0.595-0.298-0.995-0.298c-0.459,0-0.843,0.11-1.151,0.33c-0.309,0.221-0.526,0.517-0.651,0.888
    s-0.188,0.754-0.188,1.148c0,0.508,0.074,0.952,0.223,1.331c0.148,0.38,0.379,0.663,0.691,0.851s0.651,0.281,1.016,0.281
    c0.443,0,0.818-0.128,1.125-0.383C117.631,13.918,117.839,13.538,117.947,13.035z"/>
  <path fill="#455560" d="M119.058,15.132l2.297-5.979h0.853l2.447,5.979h-0.901l-0.698-1.811h-2.5l-0.656,1.811H119.058z
     M120.783,12.677h2.027l-0.624-1.656c-0.19-0.503-0.332-0.916-0.425-1.24c-0.076,0.384-0.183,0.765-0.321,1.143L120.783,12.677z"/>
  <path fill="#455560" d="M125.298,15.132V9.152h2.651c0.533,0,0.938,0.054,1.216,0.161s0.499,0.297,0.664,0.569
    c0.166,0.271,0.249,0.572,0.249,0.901c0,0.424-0.137,0.781-0.412,1.072c-0.274,0.291-0.698,0.477-1.272,0.555
    c0.21,0.101,0.369,0.2,0.478,0.298c0.231,0.212,0.45,0.478,0.656,0.796l1.04,1.627h-0.995l-0.791-1.244
    c-0.231-0.358-0.421-0.634-0.571-0.823c-0.149-0.19-0.283-0.324-0.401-0.4s-0.238-0.129-0.361-0.159
    c-0.089-0.019-0.236-0.028-0.44-0.028h-0.917v2.655H125.298z M126.09,11.791h1.7c0.362,0,0.645-0.037,0.849-0.111
    c0.204-0.075,0.358-0.194,0.465-0.359c0.106-0.164,0.159-0.343,0.159-0.536c0-0.283-0.103-0.516-0.308-0.697
    c-0.206-0.183-0.53-0.273-0.973-0.273h-1.893V11.791z"/>
  <path fill="#455560" d="M131.335,15.132V9.152h4.323v0.706h-3.532v1.831h3.308v0.701h-3.308v2.035h3.671v0.706H131.335z"/>
</g>
<g>
  <path fill="#ADAFB2" d="M72.346,20.267v-1.653c0-0.077-0.008-0.148-0.024-0.213c-0.017-0.065-0.049-0.121-0.096-0.168
    c-0.038-0.039-0.094-0.074-0.167-0.105c-0.073-0.032-0.174-0.048-0.301-0.048c-0.146,0-0.316,0.034-0.51,0.104
    c-0.041,0.014-0.086,0.033-0.135,0.058c-0.048,0.025-0.097,0.052-0.146,0.081s-0.098,0.06-0.143,0.091
    c-0.046,0.032-0.087,0.062-0.123,0.09v1.765h-0.285v-3.219h0.285v1.122c0.078-0.05,0.153-0.095,0.229-0.137
    c0.074-0.041,0.15-0.077,0.228-0.107c0.204-0.08,0.407-0.12,0.609-0.12c0.289,0,0.511,0.079,0.662,0.236
    c0.069,0.071,0.12,0.152,0.153,0.242s0.05,0.198,0.05,0.325v1.657H72.346z"/>
  <path fill="#ADAFB2" d="M75.2,20.267c-0.042-0.047-0.073-0.089-0.094-0.125c-0.021-0.035-0.038-0.07-0.052-0.104
    c-0.069,0.056-0.143,0.102-0.222,0.137c-0.078,0.036-0.156,0.064-0.233,0.085c-0.078,0.021-0.151,0.035-0.22,0.044
    c-0.069,0.008-0.13,0.013-0.183,0.013c-0.196,0-0.361-0.021-0.495-0.061s-0.242-0.093-0.325-0.159s-0.142-0.143-0.178-0.229
    c-0.036-0.085-0.054-0.174-0.054-0.265c0-0.171,0.043-0.313,0.13-0.427s0.212-0.205,0.375-0.275s0.36-0.126,0.593-0.166
    c0.231-0.04,0.493-0.072,0.783-0.097v-0.013c0-0.091-0.011-0.171-0.031-0.238c-0.021-0.067-0.059-0.124-0.114-0.17
    s-0.13-0.08-0.224-0.104s-0.213-0.035-0.356-0.035c-0.113,0-0.214,0.008-0.302,0.024c-0.089,0.017-0.152,0.032-0.191,0.046
    c-0.038,0.014-0.061,0.022-0.065,0.025l-0.029-0.295c0.005-0.002,0.033-0.01,0.083-0.021s0.121-0.022,0.215-0.035
    s0.192-0.019,0.294-0.019c0.349,0,0.603,0.067,0.763,0.203c0.16,0.135,0.24,0.334,0.24,0.597v1.159c0,0.05,0.001,0.09,0.004,0.118
    c0.003,0.029,0.009,0.056,0.017,0.079c0.009,0.023,0.021,0.046,0.039,0.068c0.019,0.022,0.043,0.051,0.073,0.087l0.128,0.149H75.2z
     M75.026,18.916c-0.285,0.024-0.528,0.055-0.729,0.091c-0.202,0.036-0.366,0.08-0.495,0.133c-0.128,0.053-0.223,0.116-0.281,0.19
    c-0.06,0.074-0.09,0.164-0.09,0.27c0,0.041,0.01,0.088,0.027,0.139s0.055,0.1,0.109,0.145c0.056,0.046,0.134,0.084,0.234,0.114
    s0.235,0.046,0.404,0.046c0.044,0,0.1-0.005,0.167-0.013c0.068-0.009,0.14-0.025,0.216-0.05s0.151-0.06,0.226-0.104
    c0.075-0.044,0.144-0.103,0.207-0.174L75.026,18.916z"/>
  <path fill="#ADAFB2" d="M77.769,18.336c-0.063-0.069-0.112-0.116-0.146-0.143s-0.063-0.047-0.091-0.061
    c-0.036-0.017-0.077-0.029-0.122-0.039c-0.046-0.01-0.099-0.015-0.16-0.015c-0.063,0-0.132,0.008-0.207,0.022
    c-0.074,0.016-0.155,0.042-0.244,0.081c-0.149,0.072-0.293,0.164-0.431,0.277v1.807h-0.29v-2.411h0.29l-0.004,0.273
    c0.052-0.039,0.104-0.073,0.155-0.104c0.051-0.03,0.105-0.059,0.163-0.083c0.086-0.039,0.176-0.071,0.27-0.098
    s0.193-0.039,0.298-0.039c0.066,0,0.134,0.006,0.201,0.017s0.134,0.032,0.197,0.062c0.05,0.021,0.096,0.049,0.139,0.08
    c0.043,0.032,0.1,0.081,0.172,0.147L77.769,18.336z"/>
  <path fill="#ADAFB2" d="M81.683,20.267v-1.74c0-0.063-0.006-0.122-0.019-0.176c-0.012-0.054-0.038-0.103-0.076-0.147
    c-0.03-0.033-0.074-0.062-0.131-0.087c-0.057-0.024-0.135-0.037-0.233-0.037c-0.119,0-0.252,0.032-0.398,0.096
    c-0.074,0.03-0.153,0.07-0.236,0.12c-0.082,0.049-0.168,0.111-0.257,0.186v1.786h-0.285v-1.794c0-0.069-0.009-0.126-0.027-0.17
    c-0.018-0.044-0.046-0.083-0.085-0.116c-0.038-0.033-0.085-0.06-0.139-0.078c-0.054-0.02-0.121-0.029-0.201-0.029
    c-0.055,0-0.118,0.008-0.19,0.022c-0.071,0.016-0.147,0.041-0.228,0.077c-0.077,0.03-0.157,0.071-0.238,0.122
    s-0.162,0.112-0.242,0.185v1.781h-0.29v-2.411h0.29l-0.004,0.294c0.077-0.055,0.151-0.103,0.222-0.143s0.139-0.074,0.205-0.102
    c0.088-0.036,0.172-0.062,0.25-0.077c0.079-0.015,0.154-0.022,0.226-0.022c0.105,0,0.2,0.015,0.286,0.044
    c0.086,0.028,0.16,0.068,0.224,0.117c0.039,0.031,0.072,0.064,0.1,0.102c0.027,0.038,0.051,0.075,0.07,0.114
    c0.163-0.124,0.316-0.216,0.46-0.273c0.171-0.069,0.336-0.104,0.493-0.104c0.127,0,0.237,0.019,0.331,0.056
    s0.173,0.089,0.236,0.155c0.061,0.063,0.104,0.138,0.133,0.222c0.027,0.085,0.041,0.174,0.041,0.268v1.761H81.683z"/>
  <path fill="#ADAFB2" d="M85.136,19.527c-0.054,0.15-0.135,0.283-0.244,0.399s-0.248,0.21-0.416,0.281
    c-0.169,0.072-0.369,0.108-0.601,0.108c-0.225,0-0.42-0.034-0.589-0.102c-0.168-0.068-0.309-0.16-0.42-0.275
    c-0.112-0.116-0.196-0.25-0.253-0.402c-0.057-0.151-0.085-0.311-0.085-0.477c0-0.198,0.035-0.376,0.105-0.532
    s0.167-0.287,0.29-0.394s0.266-0.188,0.429-0.244s0.337-0.085,0.522-0.085c0.185,0,0.358,0.028,0.521,0.085
    s0.305,0.139,0.427,0.246c0.121,0.108,0.218,0.24,0.288,0.396c0.07,0.156,0.105,0.334,0.105,0.533
    C85.217,19.223,85.189,19.376,85.136,19.527z M84.931,19.065c0-0.152-0.026-0.289-0.081-0.41c-0.054-0.122-0.127-0.226-0.221-0.312
    c-0.095-0.085-0.205-0.15-0.334-0.194c-0.128-0.044-0.269-0.066-0.42-0.066c-0.152,0-0.293,0.022-0.423,0.066
    s-0.242,0.109-0.336,0.194c-0.094,0.086-0.168,0.189-0.222,0.312c-0.054,0.121-0.08,0.258-0.08,0.41
    c0,0.127,0.021,0.25,0.063,0.368c0.043,0.119,0.108,0.224,0.195,0.314c0.087,0.092,0.197,0.164,0.331,0.218
    s0.292,0.081,0.475,0.081c0.177,0,0.331-0.027,0.464-0.081s0.241-0.126,0.327-0.218c0.086-0.091,0.149-0.195,0.192-0.312
    s0.064-0.24,0.064-0.37H84.931z"/>
  <path fill="#ADAFB2" d="M87.731,20.267v-1.653c0-0.077-0.009-0.148-0.024-0.213c-0.017-0.065-0.049-0.121-0.096-0.168
    c-0.041-0.039-0.099-0.074-0.172-0.105c-0.073-0.032-0.174-0.048-0.301-0.048c-0.146,0-0.315,0.034-0.509,0.104
    c-0.042,0.014-0.087,0.033-0.135,0.058c-0.049,0.025-0.097,0.052-0.146,0.081c-0.048,0.029-0.095,0.06-0.141,0.091
    c-0.046,0.032-0.086,0.062-0.122,0.09v1.765h-0.29v-2.411h0.29c0,0.006-0.001,0.024-0.002,0.058
    c-0.002,0.033-0.003,0.076-0.004,0.129c-0.002,0.053-0.004,0.098-0.007,0.137c0.157-0.108,0.313-0.192,0.469-0.253
    c0.204-0.08,0.405-0.12,0.604-0.12c0.293,0,0.515,0.079,0.667,0.236c0.068,0.071,0.12,0.152,0.153,0.242s0.05,0.198,0.05,0.325
    v1.657H87.731z"/>
  <path fill="#ADAFB2" d="M89.744,20.681c-0.027,0.063-0.063,0.133-0.107,0.209c-0.045,0.076-0.105,0.148-0.183,0.218
    c-0.074,0.068-0.165,0.126-0.271,0.172s-0.233,0.068-0.383,0.068c-0.072,0-0.136-0.005-0.192-0.015s-0.108-0.021-0.155-0.035
    c-0.056-0.014-0.106-0.032-0.151-0.054c-0.046-0.022-0.107-0.057-0.185-0.104l0.145-0.249c0.063,0.042,0.115,0.072,0.155,0.094
    c0.04,0.021,0.08,0.038,0.118,0.052c0.039,0.011,0.08,0.02,0.123,0.026c0.042,0.007,0.09,0.011,0.143,0.011
    c0.198,0,0.354-0.057,0.468-0.17c0.083-0.08,0.156-0.189,0.22-0.327l0.19-0.439l-1.434-2.282h0.336l0.671,1.073l0.563,0.898
    c0.063-0.151,0.128-0.303,0.192-0.451c0.065-0.149,0.128-0.297,0.188-0.443l0.465-1.077h0.306L89.744,20.681z"/>
  <path fill="#ADAFB2" d="M91.479,20.598h-0.252l0.17-0.87h0.314L91.479,20.598z"/>
  <path fill="#ADAFB2" d="M95.909,19.527c-0.056,0.15-0.137,0.284-0.244,0.401c-0.108,0.117-0.243,0.211-0.406,0.281
    c-0.163,0.071-0.353,0.106-0.567,0.106c-0.149,0-0.28-0.017-0.394-0.05s-0.213-0.073-0.299-0.12
    c-0.035-0.022-0.068-0.043-0.097-0.062c-0.029-0.02-0.058-0.04-0.085-0.062l0.004,0.245h-0.29v-3.219h0.286v1.039
    c0.132-0.096,0.273-0.167,0.422-0.213c0.149-0.046,0.303-0.068,0.46-0.068c0.196,0,0.374,0.032,0.534,0.096
    s0.297,0.151,0.408,0.265c0.112,0.113,0.198,0.246,0.259,0.399c0.062,0.153,0.092,0.318,0.092,0.495
    C95.992,19.221,95.964,19.376,95.909,19.527z M95.706,19.061c0-0.135-0.022-0.262-0.066-0.381
    c-0.044-0.118-0.109-0.223-0.196-0.312s-0.193-0.16-0.319-0.212c-0.126-0.051-0.269-0.076-0.429-0.076s-0.312,0.027-0.454,0.081
    c-0.142,0.054-0.283,0.148-0.424,0.283v1.23c0.014,0.014,0.028,0.027,0.043,0.039c0.016,0.013,0.032,0.027,0.052,0.044
    c0.025,0.022,0.053,0.044,0.083,0.064s0.063,0.042,0.1,0.063c0.071,0.042,0.156,0.078,0.255,0.11
    c0.098,0.031,0.213,0.048,0.346,0.048c0.166,0,0.311-0.027,0.435-0.081c0.125-0.054,0.229-0.126,0.315-0.216
    c0.085-0.09,0.149-0.193,0.192-0.312c0.043-0.118,0.064-0.243,0.064-0.373H95.706z"/>
  <path fill="#ADAFB2" d="M98.398,20.267c-0.042-0.047-0.073-0.089-0.094-0.125c-0.021-0.035-0.038-0.07-0.052-0.104
    c-0.069,0.056-0.143,0.102-0.222,0.137c-0.078,0.036-0.156,0.064-0.233,0.085c-0.078,0.021-0.151,0.035-0.22,0.044
    c-0.069,0.008-0.13,0.013-0.183,0.013c-0.196,0-0.361-0.021-0.495-0.061s-0.242-0.093-0.325-0.159s-0.142-0.143-0.178-0.229
    c-0.036-0.085-0.054-0.174-0.054-0.265c0-0.171,0.043-0.313,0.13-0.427s0.212-0.205,0.375-0.275s0.36-0.126,0.593-0.166
    c0.231-0.04,0.493-0.072,0.783-0.097v-0.013c0-0.091-0.011-0.171-0.031-0.238c-0.021-0.067-0.059-0.124-0.114-0.17
    s-0.13-0.08-0.224-0.104s-0.213-0.035-0.356-0.035c-0.113,0-0.214,0.008-0.302,0.024c-0.089,0.017-0.152,0.032-0.191,0.046
    c-0.038,0.014-0.061,0.022-0.065,0.025l-0.029-0.295c0.005-0.002,0.033-0.01,0.083-0.021s0.121-0.022,0.215-0.035
    s0.192-0.019,0.294-0.019c0.349,0,0.603,0.067,0.763,0.203c0.16,0.135,0.24,0.334,0.24,0.597v1.159c0,0.05,0.001,0.09,0.004,0.118
    c0.003,0.029,0.009,0.056,0.017,0.079c0.009,0.023,0.021,0.046,0.039,0.068c0.019,0.022,0.043,0.051,0.073,0.087l0.128,0.149
    H98.398z M98.225,18.916c-0.285,0.024-0.528,0.055-0.729,0.091c-0.202,0.036-0.366,0.08-0.495,0.133
    c-0.128,0.053-0.223,0.116-0.281,0.19c-0.06,0.074-0.09,0.164-0.09,0.27c0,0.041,0.01,0.088,0.027,0.139s0.055,0.1,0.109,0.145
    c0.056,0.046,0.134,0.084,0.234,0.114s0.235,0.046,0.404,0.046c0.044,0,0.1-0.005,0.167-0.013c0.068-0.009,0.14-0.025,0.216-0.05
    s0.151-0.06,0.226-0.104c0.075-0.044,0.144-0.103,0.207-0.174L98.225,18.916z"/>
  <path fill="#ADAFB2" d="M99.359,20.267v-3.219h0.286v3.219H99.359z"/>
  <path fill="#ADAFB2" d="M102.264,20.267c-0.042-0.047-0.073-0.089-0.094-0.125c-0.021-0.035-0.038-0.07-0.052-0.104
    c-0.069,0.056-0.143,0.102-0.222,0.137c-0.078,0.036-0.156,0.064-0.233,0.085c-0.078,0.021-0.151,0.035-0.22,0.044
    c-0.069,0.008-0.13,0.013-0.183,0.013c-0.196,0-0.361-0.021-0.495-0.061s-0.242-0.093-0.325-0.159s-0.142-0.143-0.178-0.229
    c-0.036-0.085-0.054-0.174-0.054-0.265c0-0.171,0.043-0.313,0.13-0.427s0.212-0.205,0.375-0.275s0.36-0.126,0.593-0.166
    c0.231-0.04,0.493-0.072,0.783-0.097v-0.013c0-0.091-0.011-0.171-0.031-0.238c-0.021-0.067-0.059-0.124-0.114-0.17
    s-0.13-0.08-0.224-0.104s-0.213-0.035-0.356-0.035c-0.113,0-0.214,0.008-0.302,0.024c-0.089,0.017-0.152,0.032-0.191,0.046
    c-0.038,0.014-0.061,0.022-0.065,0.025l-0.029-0.295c0.005-0.002,0.033-0.01,0.083-0.021s0.121-0.022,0.215-0.035
    s0.192-0.019,0.294-0.019c0.349,0,0.603,0.067,0.763,0.203c0.16,0.135,0.24,0.334,0.24,0.597v1.159c0,0.05,0.001,0.09,0.004,0.118
    c0.003,0.029,0.009,0.056,0.017,0.079c0.009,0.023,0.021,0.046,0.039,0.068c0.019,0.022,0.043,0.051,0.073,0.087l0.128,0.149
    H102.264z M102.09,18.916c-0.285,0.024-0.528,0.055-0.729,0.091c-0.202,0.036-0.366,0.08-0.495,0.133
    c-0.128,0.053-0.223,0.116-0.281,0.19c-0.06,0.074-0.09,0.164-0.09,0.27c0,0.041,0.01,0.088,0.027,0.139s0.055,0.1,0.109,0.145
    c0.056,0.046,0.134,0.084,0.234,0.114s0.235,0.046,0.404,0.046c0.044,0,0.1-0.005,0.167-0.013c0.068-0.009,0.14-0.025,0.216-0.05
    s0.151-0.06,0.226-0.104c0.075-0.044,0.144-0.103,0.207-0.174L102.09,18.916z"/>
  <path fill="#ADAFB2" d="M105.076,20.267v-1.653c0-0.077-0.009-0.148-0.024-0.213c-0.017-0.065-0.049-0.121-0.096-0.168
    c-0.041-0.039-0.099-0.074-0.172-0.105c-0.073-0.032-0.174-0.048-0.301-0.048c-0.146,0-0.315,0.034-0.509,0.104
    c-0.042,0.014-0.087,0.033-0.135,0.058c-0.049,0.025-0.097,0.052-0.146,0.081c-0.048,0.029-0.095,0.06-0.141,0.091
    c-0.046,0.032-0.086,0.062-0.122,0.09v1.765h-0.29v-2.411h0.29c0,0.006-0.001,0.024-0.002,0.058
    c-0.002,0.033-0.003,0.076-0.004,0.129c-0.002,0.053-0.004,0.098-0.007,0.137c0.157-0.108,0.313-0.192,0.469-0.253
    c0.204-0.08,0.405-0.12,0.604-0.12c0.293,0,0.515,0.079,0.667,0.236c0.068,0.071,0.12,0.152,0.153,0.242s0.05,0.198,0.05,0.325
    v1.657H105.076z"/>
  <path fill="#ADAFB2" d="M108.224,19.925c-0.071,0.078-0.153,0.146-0.244,0.205c-0.091,0.058-0.196,0.104-0.314,0.137
    c-0.119,0.033-0.256,0.05-0.41,0.05c-0.169,0-0.333-0.024-0.493-0.073c-0.16-0.048-0.303-0.123-0.427-0.226
    c-0.124-0.102-0.225-0.231-0.3-0.39c-0.076-0.157-0.114-0.346-0.114-0.567c0-0.215,0.038-0.401,0.116-0.559
    c0.077-0.158,0.179-0.288,0.304-0.392c0.126-0.104,0.269-0.181,0.429-0.23s0.322-0.074,0.485-0.074c0.257,0,0.47,0.046,0.638,0.139
    c0.169,0.093,0.323,0.231,0.464,0.416l-0.248,0.146c-0.053-0.072-0.106-0.135-0.162-0.188c-0.055-0.054-0.116-0.098-0.182-0.133
    c-0.066-0.034-0.142-0.061-0.225-0.078c-0.082-0.019-0.178-0.027-0.285-0.027c-0.133,0-0.262,0.021-0.388,0.062
    c-0.126,0.041-0.237,0.103-0.335,0.184c-0.099,0.082-0.177,0.184-0.236,0.307s-0.089,0.266-0.089,0.429
    c0,0.172,0.029,0.319,0.089,0.443s0.137,0.227,0.233,0.307s0.209,0.139,0.336,0.176c0.127,0.038,0.257,0.057,0.39,0.057
    c0.121,0,0.228-0.013,0.318-0.038c0.092-0.024,0.173-0.059,0.245-0.101c0.071-0.043,0.135-0.096,0.19-0.158
    c0.055-0.062,0.106-0.13,0.153-0.205l0.257,0.129C108.36,19.761,108.296,19.846,108.224,19.925z"/>
  <path fill="#ADAFB2" d="M108.999,19.147c0.011,0.166,0.049,0.307,0.113,0.421c0.065,0.114,0.146,0.207,0.241,0.277
    c0.095,0.07,0.198,0.121,0.311,0.151c0.111,0.03,0.222,0.046,0.329,0.046c0.116,0,0.236-0.011,0.362-0.031s0.244-0.044,0.356-0.07
    c0.111-0.026,0.21-0.053,0.294-0.079s0.142-0.045,0.172-0.056l0.021,0.273c-0.165,0.05-0.309,0.089-0.431,0.118
    c-0.121,0.028-0.252,0.056-0.392,0.08c-0.14,0.025-0.265,0.038-0.375,0.038c-0.168,0-0.334-0.027-0.497-0.081
    s-0.308-0.142-0.435-0.263c-0.11-0.108-0.198-0.239-0.263-0.394c-0.065-0.155-0.098-0.337-0.098-0.547
    c0-0.191,0.033-0.362,0.102-0.514c0.067-0.152,0.163-0.282,0.288-0.39c0.115-0.1,0.247-0.179,0.396-0.236
    c0.147-0.058,0.316-0.087,0.507-0.087c0.169,0,0.328,0.032,0.479,0.098c0.15,0.064,0.285,0.159,0.404,0.283
    c0.097,0.105,0.176,0.235,0.238,0.39c0.062,0.154,0.093,0.346,0.093,0.571H108.999z M110.908,18.887
    c-0.017-0.104-0.05-0.206-0.099-0.305c-0.05-0.098-0.114-0.184-0.193-0.259c-0.078-0.074-0.17-0.134-0.273-0.178
    s-0.217-0.066-0.342-0.066c-0.141,0-0.27,0.021-0.387,0.064s-0.22,0.102-0.307,0.176s-0.157,0.16-0.209,0.257
    c-0.053,0.097-0.085,0.199-0.096,0.307h1.905V18.887z"/>
  <path fill="#ADAFB2" d="M111.869,20.598h-0.252l0.17-0.87h0.314L111.869,20.598z"/>
  <path fill="#ADAFB2" d="M117.403,20.267h-0.215l-0.604-1.11c-0.081-0.152-0.162-0.303-0.245-0.451
    c-0.083-0.149-0.164-0.3-0.244-0.452c-0.08,0.152-0.159,0.301-0.238,0.447s-0.158,0.296-0.238,0.447l-0.604,1.119h-0.211
    l-1.301-2.411h0.318l0.597,1.11c0.08,0.154,0.161,0.308,0.244,0.46c0.083,0.151,0.166,0.305,0.249,0.459
    c0.177-0.334,0.354-0.667,0.534-1s0.364-0.676,0.555-1.029h0.195l0.608,1.118c0.083,0.155,0.165,0.308,0.247,0.458
    c0.081,0.15,0.163,0.302,0.246,0.453c0.083-0.154,0.165-0.308,0.247-0.459c0.081-0.152,0.162-0.304,0.242-0.456l0.601-1.114h0.318
    L117.403,20.267z"/>
  <path fill="#ADAFB2" d="M119.156,19.147c0.011,0.166,0.049,0.307,0.113,0.421c0.065,0.114,0.146,0.207,0.241,0.277
    c0.095,0.07,0.198,0.121,0.311,0.151c0.111,0.03,0.222,0.046,0.329,0.046c0.116,0,0.236-0.011,0.362-0.031s0.244-0.044,0.356-0.07
    c0.111-0.026,0.21-0.053,0.294-0.079s0.142-0.045,0.172-0.056l0.021,0.273c-0.165,0.05-0.309,0.089-0.431,0.118
    c-0.121,0.028-0.252,0.056-0.392,0.08c-0.14,0.025-0.265,0.038-0.375,0.038c-0.168,0-0.334-0.027-0.497-0.081
    s-0.308-0.142-0.435-0.263c-0.11-0.108-0.198-0.239-0.263-0.394c-0.065-0.155-0.098-0.337-0.098-0.547
    c0-0.191,0.033-0.362,0.102-0.514c0.067-0.152,0.163-0.282,0.288-0.39c0.115-0.1,0.247-0.179,0.396-0.236
    c0.147-0.058,0.316-0.087,0.507-0.087c0.169,0,0.328,0.032,0.479,0.098c0.15,0.064,0.285,0.159,0.404,0.283
    c0.097,0.105,0.176,0.235,0.238,0.39c0.062,0.154,0.093,0.346,0.093,0.571H119.156z M121.065,18.887
    c-0.017-0.104-0.05-0.206-0.099-0.305c-0.05-0.098-0.114-0.184-0.193-0.259c-0.078-0.074-0.17-0.134-0.273-0.178
    s-0.217-0.066-0.342-0.066c-0.141,0-0.27,0.021-0.387,0.064s-0.22,0.102-0.307,0.176s-0.157,0.16-0.209,0.257
    c-0.053,0.097-0.085,0.199-0.096,0.307h1.905V18.887z"/>
  <path fill="#ADAFB2" d="M121.981,20.267v-3.219h0.286v3.219H121.981z"/>
  <path fill="#ADAFB2" d="M122.885,20.267v-3.219h0.286v3.219H122.885z"/>
  <path fill="#ADAFB2" d="M126.165,19.527c-0.056,0.15-0.137,0.284-0.244,0.401c-0.108,0.117-0.243,0.211-0.406,0.281
    c-0.163,0.071-0.353,0.106-0.567,0.106c-0.149,0-0.28-0.017-0.394-0.05s-0.213-0.073-0.299-0.12
    c-0.035-0.022-0.068-0.043-0.097-0.062c-0.029-0.02-0.058-0.04-0.085-0.062l0.004,0.245h-0.29v-3.219h0.286v1.039
    c0.132-0.096,0.273-0.167,0.422-0.213c0.149-0.046,0.303-0.068,0.46-0.068c0.196,0,0.374,0.032,0.534,0.096
    s0.297,0.151,0.408,0.265c0.112,0.113,0.198,0.246,0.259,0.399c0.062,0.153,0.092,0.318,0.092,0.495
    C126.248,19.221,126.22,19.376,126.165,19.527z M125.962,19.061c0-0.135-0.022-0.262-0.066-0.381
    c-0.044-0.118-0.109-0.223-0.196-0.312s-0.193-0.16-0.319-0.212c-0.126-0.051-0.269-0.076-0.429-0.076s-0.312,0.027-0.454,0.081
    c-0.142,0.054-0.283,0.148-0.424,0.283v1.23c0.014,0.014,0.028,0.027,0.043,0.039c0.016,0.013,0.032,0.027,0.052,0.044
    c0.025,0.022,0.053,0.044,0.083,0.064s0.063,0.042,0.1,0.063c0.071,0.042,0.156,0.078,0.255,0.11
    c0.098,0.031,0.213,0.048,0.346,0.048c0.166,0,0.311-0.027,0.435-0.081c0.125-0.054,0.229-0.126,0.315-0.216
    c0.085-0.09,0.149-0.193,0.192-0.312c0.043-0.118,0.064-0.243,0.064-0.373H125.962z"/>
  <path fill="#ADAFB2" d="M126.911,19.147c0.011,0.166,0.049,0.307,0.113,0.421c0.065,0.114,0.146,0.207,0.241,0.277
    c0.095,0.07,0.198,0.121,0.311,0.151c0.111,0.03,0.222,0.046,0.329,0.046c0.116,0,0.236-0.011,0.362-0.031s0.244-0.044,0.356-0.07
    c0.111-0.026,0.21-0.053,0.294-0.079s0.142-0.045,0.172-0.056l0.021,0.273c-0.165,0.05-0.309,0.089-0.431,0.118
    c-0.121,0.028-0.252,0.056-0.392,0.08c-0.14,0.025-0.265,0.038-0.375,0.038c-0.168,0-0.334-0.027-0.497-0.081
    s-0.308-0.142-0.435-0.263c-0.11-0.108-0.198-0.239-0.263-0.394c-0.065-0.155-0.098-0.337-0.098-0.547
    c0-0.191,0.033-0.362,0.102-0.514c0.067-0.152,0.163-0.282,0.288-0.39c0.115-0.1,0.247-0.179,0.396-0.236
    c0.147-0.058,0.316-0.087,0.507-0.087c0.169,0,0.328,0.032,0.479,0.098c0.15,0.064,0.285,0.159,0.404,0.283
    c0.097,0.105,0.176,0.235,0.238,0.39c0.062,0.154,0.093,0.346,0.093,0.571H126.911z M128.82,18.887
    c-0.017-0.104-0.05-0.206-0.099-0.305c-0.05-0.098-0.114-0.184-0.193-0.259c-0.078-0.074-0.17-0.134-0.273-0.178
    s-0.217-0.066-0.342-0.066c-0.141,0-0.27,0.021-0.387,0.064s-0.22,0.102-0.307,0.176s-0.157,0.16-0.209,0.257
    c-0.053,0.097-0.085,0.199-0.096,0.307h1.905V18.887z"/>
  <path fill="#ADAFB2" d="M129.724,20.267v-2.411h0.286v2.411H129.724z M129.724,17.586v-0.538h0.286v0.534L129.724,17.586z"/>
  <path fill="#ADAFB2" d="M132.562,20.267v-1.653c0-0.077-0.009-0.148-0.024-0.213c-0.017-0.065-0.049-0.121-0.096-0.168
    c-0.041-0.039-0.099-0.074-0.172-0.105c-0.073-0.032-0.174-0.048-0.301-0.048c-0.146,0-0.315,0.034-0.509,0.104
    c-0.042,0.014-0.087,0.033-0.135,0.058c-0.049,0.025-0.097,0.052-0.146,0.081c-0.048,0.029-0.095,0.06-0.141,0.091
    c-0.046,0.032-0.086,0.062-0.122,0.09v1.765h-0.29v-2.411h0.29c0,0.006-0.001,0.024-0.002,0.058
    c-0.002,0.033-0.003,0.076-0.004,0.129c-0.002,0.053-0.004,0.098-0.007,0.137c0.157-0.108,0.313-0.192,0.469-0.253
    c0.204-0.08,0.405-0.12,0.604-0.12c0.293,0,0.515,0.079,0.667,0.236c0.068,0.071,0.12,0.152,0.153,0.242s0.05,0.198,0.05,0.325
    v1.657H132.562z"/>
  <path fill="#ADAFB2" d="M135.805,20.6c-0.044,0.146-0.12,0.277-0.228,0.396c-0.103,0.11-0.23,0.197-0.384,0.259
    c-0.153,0.062-0.32,0.094-0.503,0.094c-0.249,0-0.47-0.04-0.663-0.12c-0.083-0.036-0.168-0.085-0.257-0.147
    c-0.088-0.062-0.189-0.151-0.302-0.267l0.219-0.19c0.072,0.08,0.142,0.147,0.21,0.202c0.067,0.056,0.149,0.105,0.246,0.149
    c0.069,0.03,0.149,0.055,0.24,0.072c0.091,0.019,0.192,0.027,0.303,0.027c0.115,0,0.237-0.021,0.364-0.062
    c0.127-0.041,0.233-0.108,0.319-0.203c0.071-0.08,0.125-0.174,0.161-0.281s0.054-0.251,0.054-0.431v-0.062
    c-0.1,0.072-0.22,0.137-0.362,0.195c-0.143,0.058-0.317,0.087-0.524,0.087c-0.154,0-0.309-0.026-0.462-0.077
    s-0.291-0.128-0.414-0.229c-0.123-0.103-0.223-0.231-0.3-0.388c-0.078-0.156-0.116-0.338-0.116-0.545
    c0-0.083,0.009-0.171,0.026-0.265c0.019-0.094,0.048-0.188,0.09-0.284c0.041-0.095,0.095-0.187,0.161-0.273
    s0.149-0.163,0.249-0.229c0.099-0.066,0.215-0.119,0.348-0.159s0.284-0.061,0.456-0.061c0.174,0,0.329,0.022,0.468,0.066
    c0.138,0.044,0.265,0.11,0.381,0.198l-0.004-0.215h0.29v2.241C135.871,20.287,135.849,20.455,135.805,20.6z M135.585,18.436
    c-0.094-0.108-0.208-0.194-0.342-0.259c-0.134-0.065-0.3-0.098-0.499-0.098c-0.216,0-0.391,0.036-0.526,0.107
    c-0.135,0.072-0.242,0.159-0.32,0.262c-0.079,0.102-0.133,0.209-0.162,0.322s-0.043,0.212-0.043,0.295
    c0,0.157,0.026,0.297,0.08,0.418s0.127,0.224,0.22,0.307s0.201,0.146,0.325,0.188s0.256,0.064,0.394,0.064
    c0.107,0,0.205-0.011,0.292-0.031s0.166-0.049,0.236-0.083s0.133-0.073,0.188-0.116c0.055-0.043,0.106-0.086,0.153-0.13
    L135.585,18.436z"/>
</g>
<g>
  <defs>
    <path id="SVGID_1_" d="M182.338,111.361c0,1.564-1.27,2.834-2.835,2.834h-26.371c-1.565,0-2.835-1.27-2.835-2.834v-9.473
      c0-1.566,1.27-2.836,2.835-2.836h26.371c1.565,0,2.835,1.27,2.835,2.836V111.361z"/>
  </defs>
  <clipPath id="SVGID_2_">
    <use xlink:href="#SVGID_1_"  overflow="visible"/>
  </clipPath>
</g>
</svg>
