<?xml version="1.0" encoding="UTF-8" standalone="no"?>
<svg width="267px" height="267px" viewBox="0 0 267 267" version="1.1" xmlns="http://www.w3.org/2000/svg" xmlns:xlink="http://www.w3.org/1999/xlink" xmlns:sketch="http://www.bohemiancoding.com/sketch/ns">
    <!-- Generator: Sketch 3.4.4 (17249) - http://www.bohemiancoding.com/sketch -->
    <title>Fill 14</title>
    <desc>Created with Sketch.</desc>
    <defs></defs>
    <g id="Page-1" stroke="none" stroke-width="1" fill="none" fill-rule="evenodd" sketch:type="MSPage">
        <g id="FB-fLogo-printpackaging" sketch:type="MSLayerGroup" transform="translate(-635.000000, -117.000000)">
            <path d="M649.73,117 C641.593,117 635,123.593 635,131.73 L635,369.164 C635,377.299 641.593,383.894 649.73,383.894 L777.556,383.894 L777.556,280.539 L742.775,280.539 L742.775,240.259 L777.556,240.259 L777.556,210.554 C777.556,176.081 798.611,157.31 829.363,157.31 C844.093,157.31 856.754,158.407 860.443,158.897 L860.443,194.923 L839.115,194.933 C822.39,194.933 819.152,202.88 819.152,214.542 L819.152,240.259 L859.039,240.259 L853.845,280.539 L819.152,280.539 L819.152,383.894 L887.164,383.894 C895.299,383.894 901.894,377.299 901.894,369.164 L901.894,131.73 C901.894,123.593 895.299,117 887.164,117 L649.73,117 Z" id="Fill-14" sketch:type="MSShapeGroup"></path>
        </g>
    </g>
</svg>
