<svg viewBox="0 0 100 100" class="icon icon--phone"><path d="M43.027,56.83c-0.039-0.04-3.602-5.208-4.936-6.971   c-2.768-3.664-4.201-8.811-4.529-9.206c3.891-2.713,11.497-6.119,11.924-11.01C46.027,23.327,35.324,10.119,33.271,10   c-5.615,0.06-15.893,9.563-17.112,12.436C13.895,28.374,15.018,33.9,18.908,41.9C23.864,53.8,42.272,76.374,52.803,83.462   c6.97,5.347,12.061,7.446,18.138,6.18c2.826-0.535,13.029-8.911,14.055-14.574c0.251-2.101-11.614-16.021-17.75-16.573   c-4.764-0.438-9.331,6.691-12.604,10.178c-0.328-0.416-3.117-2.594-6.115-6.042C47.054,60.968,44.73,58.771,43.027,56.83z"/></svg>
