<?xml version="1.0" encoding="UTF-8" standalone="no"?>
<svg width="302px" height="302px" viewBox="0 0 302 302" version="1.1" xmlns="http://www.w3.org/2000/svg" xmlns:xlink="http://www.w3.org/1999/xlink" xmlns:sketch="http://www.bohemiancoding.com/sketch/ns">
    <!-- Generator: Sketch 3.2.2 (9983) - http://www.bohemiancoding.com/sketch -->
    <title>Group</title>
    <desc>Created with Sketch.</desc>
    <defs></defs>
    <g id="Page-1" stroke="none" stroke-width="1" fill="none" fill-rule="evenodd" sketch:type="MSPage">
        <g id="Mobile-Portrait" sketch:type="MSArtboardGroup" transform="translate(-7.000000, -6.000000)" stroke="#AED5EF">
            <g id="Group" sketch:type="MSLayerGroup" transform="translate(8.000000, 7.000000)">
                <path d="M226.5625,279.016166 C270.534526,252.865423 300,204.873727 300,150 C300,95.1262735 270.534526,47.1345772 226.5625,20.9838339 C182.590485,47.13456 153.125,95.1262636 153.125,150 C153.125,204.873736 182.590485,252.86544 226.562524,279.01618 Z" id="Oval-1" sketch:type="MSShapeGroup"></path>
                <path d="M75,20.0673293 C30.1648972,46.0030358 0,94.4788233 0,150 C0,205.521177 30.1648972,253.996964 75,279.932671 C119.835103,253.996964 150,205.521177 150,150 C150,94.4788233 119.835103,46.0030358 75,20.0673293 Z" id="Oval-3" sketch:type="MSShapeGroup"></path>
                <circle id="Oval-8" sketch:type="MSShapeGroup" cx="150" cy="150" r="150"></circle>
                <path d="M279.932671,75 C253.996964,30.1648972 205.521177,0 150,0 C94.4788233,0 46.0030358,30.1648972 20.0673293,75 C46.0030358,119.835103 94.4788233,150 150,150 C205.521177,150 253.996964,119.835103 279.932671,75 Z" id="Oval-7" sketch:type="MSShapeGroup"></path>
                <path d="M279.932671,225 C253.996964,180.164897 205.521177,150 150,150 C94.4788233,150 46.0030358,180.164897 20.0673293,225 C46.0030358,269.835103 94.4788233,300 150,300 C205.521177,300 253.996964,269.835103 279.932671,225 Z" id="Oval-2" sketch:type="MSShapeGroup"></path>
                <path d="M300,150 C217.157288,150 150,82.8427125 150,0 C150,82.8427125 82.8427125,150 0,150 C82.8427125,150 150,217.157288 150,300 C150,217.157288 217.157288,150 300,150 Z" id="Oval-6" sketch:type="MSShapeGroup"></path>
            </g>
        </g>
    </g>
</svg>