<svg xmlns="http://www.w3.org/2000/svg" xmlns:xlink="http://www.w3.org/1999/xlink" xmlns:sketch="http://www.bohemiancoding.com/sketch/ns" width="302px" height="302px" viewBox="0 0 302 302" version="1.1"><!-- Generator: Sketch 3.2.2 (9983) - http://www.bohemiancoding.com/sketch --><title>Group</title><desc>Created with Sketch.</desc><defs/><g stroke="none" stroke-width="1" fill="none" fill-rule="evenodd" sketch:type="MSPage"><g sketch:type="MSArtboardGroup" transform="translate(-7.000000, -6.000000)" stroke="#AED5EF"><g sketch:type="MSLayerGroup" transform="translate(8.000000, 7.000000)"><path d="M226.5625 279 C270.534526 252.9 300 204.9 300 150 C300 95.1 270.5 47.1 226.6 21 C182.590485 47.1 153.1 95.1 153.1 150 C153.125 204.9 182.6 252.9 226.6 279 Z" sketch:type="MSShapeGroup"/><path d="M75 20.1 C30.1648972 46 0 94.5 0 150 C0 205.5 30.2 254 75 279.9 C119.835103 254 150 205.5 150 150 C150 94.5 119.8 46 75 20.1 Z" sketch:type="MSShapeGroup"/><circle sketch:type="MSShapeGroup" cx="150" cy="150" r="150"/><path d="M279.932671 75 C253.996964 30.2 205.5 0 150 0 C94.4788233 0 46 30.2 20.1 75 C46.0030358 119.8 94.5 150 150 150 C205.521177 150 254 119.8 279.9 75 Z" sketch:type="MSShapeGroup"/><path d="M279.932671 225 C253.996964 180.2 205.5 150 150 150 C94.4788233 150 46 180.2 20.1 225 C46.0030358 269.8 94.5 300 150 300 C205.521177 300 254 269.8 279.9 225 Z" sketch:type="MSShapeGroup"/><path d="M300 150 C217.157288 150 150 82.8 150 0 C150 82.8 82.8 150 0 150 C82.8427125 150 150 217.2 150 300 C150 217.2 217.2 150 300 150 Z" sketch:type="MSShapeGroup"/></g></g></g></svg>