<?xml version="1.0" encoding="UTF-8" standalone="no"?>
<svg width="241px" height="139px" viewBox="0 0 241 139" version="1.1" xmlns="http://www.w3.org/2000/svg" xmlns:xlink="http://www.w3.org/1999/xlink" xmlns:sketch="http://www.bohemiancoding.com/sketch/ns">
    <!-- Generator: Sketch 3.4.4 (17249) - http://www.bohemiancoding.com/sketch -->
    <g id="Page-1" stroke="none" stroke-width="1" fill="none" fill-rule="evenodd" sketch:type="MSPage">
        <g id="CAA-logo" sketch:type="MSLayerGroup">
            <path d="M240.938,131.496 C240.938,135.64 237.577,139 233.432,139 L7.506,139 C3.361,139 0,135.64 0,131.496 L0,8.325 C0,4.18 3.361,0.82 7.506,0.82 L233.432,0.82 C237.577,0.82 240.938,4.18 240.938,8.325 L240.938,131.496" id="Fill-1" fill="#004C7F" sketch:type="MSShapeGroup"></path>
            <path d="M50.578,13.933 C53.722,13.933 56.268,16.429 56.268,19.517 C56.268,22.598 53.722,25.098 50.578,25.098 C47.441,25.098 44.894,22.598 44.894,19.517 C44.894,16.429 47.441,13.933 50.578,13.933" id="Fill-4" fill="#FFFFFF" sketch:type="MSShapeGroup"></path>
            <path d="M71.501,72.267 L71.402,69.02 C71.376,68.231 71.36,67.701 71.36,67.701 C71.131,63.64 71.328,63.03 72.546,60.089 C73.745,56.488 75.059,52.748 76.259,49.143 C76.81,47.033 78.09,46.401 75.572,42.383 C72.92,37.42 70.005,32.517 67.352,27.555 C65.171,23.76 60.581,26.895 62.267,29.426 C64.422,34.212 65.568,37.866 67.719,42.658 C69.492,46.249 69.725,47.781 67.586,48.465 C65.281,49.207 64.304,48.332 63.186,45.313 C62.03,42.527 61.451,41.082 60.299,38.304 C59.422,36.326 58.28,36.384 56.759,36.94 C55.502,37.409 55.829,38.645 56.277,40.169 C57.085,42.117 57.583,43.489 58.343,45.406 L59.587,48.539 C60.415,50.632 60.381,52.449 60.046,53.712 C59.352,58.581 58.236,66.095 57.625,70.892 L57.463,80.816 L57.606,81.008 C65.705,79.726 71.501,76.297 71.501,72.267 Z" id="Fill-5" fill="#FFFFFF" sketch:type="MSShapeGroup"></path>
            <path d="M51.385,81.224 L51.385,55.255 C51.385,54.897 51.06,54.608 50.651,54.608 C50.246,54.608 49.92,54.897 49.92,55.255 L49.92,81.224 C49.92,81.224 50.582,81.654 51.385,81.224" id="Fill-6" fill="#FFFFFF" sketch:type="MSShapeGroup"></path>
            <path d="M28.773,60.577 C20.102,63.977 14.564,69.12 14.564,74.871 C14.564,85.109 32.076,93.406 53.676,93.406 C57.315,93.406 60.838,93.172 64.18,92.732 L63.225,92.908 C59.049,93.629 54.542,94.021 49.841,94.021 C28.238,94.021 10.727,85.722 10.727,75.48 C10.727,68.97 17.844,63.274 28.559,59.966 L28.501,59.761 C27.32,56.274 26.049,52.669 24.874,49.194 C24.322,47.08 23.028,46.445 25.574,42.424 C28.245,37.465 31.19,32.563 33.852,27.604 C36.061,23.802 40.686,26.934 38.982,29.47 C36.816,34.257 35.649,37.911 33.481,42.7 C31.696,46.291 31.455,47.822 33.614,48.504 C35.941,49.248 36.928,48.375 38.055,45.353 C39.22,42.572 39.81,41.132 40.974,38.346 C41.856,36.371 43.008,36.424 44.545,36.989 C45.806,37.454 45.482,38.69 45.03,40.213 C44.212,42.157 43.707,43.534 42.939,45.449 L41.691,48.584 C40.856,50.677 40.889,52.494 41.225,53.753 C41.924,58.622 43.049,66.06 43.669,70.865 L43.81,80.816 L43.765,81.041 C35.555,79.787 29.658,76.33 29.658,72.267 L29.764,69.429 C29.797,68.448 29.816,67.747 29.816,67.747 C30.03,63.962 29.875,63.177 28.865,60.713 L28.773,60.577" id="Fill-7" fill="#FFFFFF" sketch:type="MSShapeGroup"></path>
            <path d="M104.954,124.695 L104.954,107.623 L99.072,120.068 L96.202,120.068 L90.177,107.623 L90.177,124.695 L86.303,124.695 L86.303,99.156 L90.177,99.156 L97.637,115.045 L104.954,99.156 L108.827,99.156 L108.827,124.695 L104.954,124.695" id="Fill-8" fill="#FFFFFF" sketch:type="MSShapeGroup"></path>
            <path d="M114.745,124.695 L114.745,99.156 L131.064,99.156 L131.064,102.634 L118.619,102.634 L118.619,110.097 L129.235,110.097 L129.235,113.539 L118.619,113.539 L118.619,121.215 L131.064,121.215 L131.064,124.695 L114.745,124.695" id="Fill-9" fill="#FFFFFF" sketch:type="MSShapeGroup"></path>
            <path d="M154.307,124.695 L154.307,107.623 L148.424,120.068 L145.556,120.068 L139.53,107.623 L139.53,124.695 L135.656,124.695 L135.656,99.156 L139.53,99.156 L146.989,115.045 L154.307,99.156 L158.18,99.156 L158.18,124.695 L154.307,124.695" id="Fill-10" fill="#FFFFFF" sketch:type="MSShapeGroup"></path>
            <path d="M174.069,113.431 L167.971,113.431 L167.971,121.215 L174.069,121.215 C176.759,121.215 178.265,119.564 178.265,117.304 C178.265,115.045 176.759,113.431 174.069,113.431 L174.069,113.431 Z M173.71,102.634 L167.971,102.634 L167.971,109.953 L173.71,109.953 C176.187,109.953 177.87,108.66 177.87,106.293 C177.87,103.925 176.187,102.634 173.71,102.634 L173.71,102.634 Z M174.428,124.695 L164.097,124.695 L164.097,99.156 L174.032,99.156 C178.77,99.156 181.744,101.847 181.744,106.15 C181.744,108.912 180.024,110.886 178.302,111.566 C180.275,112.355 182.139,114.258 182.139,117.484 C182.139,122.181 178.947,124.695 174.428,124.695 L174.428,124.695 Z" id="Fill-11" fill="#FFFFFF" sketch:type="MSShapeGroup"></path>
            <path d="M187.16,124.695 L187.16,99.156 L203.479,99.156 L203.479,102.634 L191.034,102.634 L191.034,110.097 L201.649,110.097 L201.649,113.539 L191.034,113.539 L191.034,121.215 L203.479,121.215 L203.479,124.695 L187.16,124.695" id="Fill-12" fill="#FFFFFF" sketch:type="MSShapeGroup"></path>
            <path d="M217.684,102.634 L211.944,102.634 L211.944,110.634 L217.684,110.634 C220.267,110.634 222.023,109.162 222.023,106.652 C222.023,104.14 220.267,102.634 217.684,102.634 L217.684,102.634 Z M222.167,124.695 L216.787,113.933 L211.944,113.933 L211.944,124.695 L208.072,124.695 L208.072,99.156 L217.972,99.156 C222.813,99.156 225.896,102.277 225.896,106.617 C225.896,110.275 223.673,112.605 220.804,113.396 L226.687,124.695 L222.167,124.695 L222.167,124.695 Z" id="Fill-13" fill="#FFFFFF" sketch:type="MSShapeGroup"></path>
            <path d="M89.05,91.199 C88.447,91.199 87.895,90.974 87.481,90.562 C86.904,89.986 86.904,89.377 86.904,88.078 C86.904,86.777 86.904,86.176 87.481,85.597 C87.895,85.183 88.447,84.965 89.05,84.965 C90.152,84.965 90.971,85.633 91.179,86.787 L90.505,86.787 C90.342,86.039 89.817,85.547 89.05,85.547 C88.645,85.547 88.257,85.699 87.989,85.976 C87.603,86.373 87.559,86.795 87.559,88.078 C87.559,89.363 87.603,89.785 87.989,90.181 C88.257,90.457 88.645,90.611 89.05,90.611 C89.817,90.611 90.359,90.121 90.522,89.371 L91.179,89.371 C90.981,90.527 90.144,91.199 89.05,91.199" id="Fill-14" fill="#FFFFFF" sketch:type="MSShapeGroup"></path>
            <path d="M95.055,91.148 L95.055,88.529 C95.055,87.785 94.659,87.408 94.021,87.408 C93.384,87.408 92.962,87.795 92.962,88.529 L92.962,91.148 L92.342,91.148 L92.342,85.011 L92.962,85.011 L92.962,87.375 C93.272,87.017 93.676,86.855 94.151,86.855 C95.107,86.855 95.677,87.467 95.677,88.422 L95.677,91.148 L95.055,91.148" id="Fill-15" fill="#FFFFFF" sketch:type="MSShapeGroup"></path>
            <path d="M97.011,86.906 L97.633,86.906 L97.633,91.148 L97.011,91.148 L97.011,86.906 Z M96.978,85.006 L97.675,85.006 L97.675,85.699 L96.978,85.699 L96.978,85.006 Z" id="Fill-16" fill="#FFFFFF" sketch:type="MSShapeGroup"></path>
            <path d="M101.391,87.718 C101.156,87.484 100.984,87.408 100.657,87.408 C100.038,87.408 99.64,87.896 99.64,88.545 L99.64,91.148 L99.021,91.148 L99.021,86.906 L99.64,86.906 L99.64,87.424 C99.873,87.074 100.339,86.855 100.829,86.855 C101.235,86.855 101.546,86.949 101.847,87.252 L101.391,87.718" id="Fill-17" fill="#FFFFFF" sketch:type="MSShapeGroup"></path>
            <path d="M104.468,87.718 C104.268,87.517 103.993,87.408 103.691,87.408 C103.39,87.408 103.123,87.517 102.925,87.718 C102.614,88.027 102.58,88.552 102.58,89.027 C102.58,89.502 102.614,90.029 102.925,90.338 C103.123,90.537 103.39,90.646 103.691,90.646 C103.993,90.646 104.268,90.537 104.468,90.338 C104.778,90.029 104.804,89.502 104.804,89.027 C104.804,88.552 104.778,88.027 104.468,87.718 L104.468,87.718 Z M104.908,90.717 C104.612,91.008 104.208,91.199 103.691,91.199 C103.176,91.199 102.77,91.008 102.477,90.717 C102.045,90.275 101.959,89.681 101.959,89.027 C101.959,88.371 102.045,87.777 102.477,87.34 C102.77,87.047 103.176,86.855 103.691,86.855 C104.208,86.855 104.612,87.047 104.908,87.34 C105.339,87.777 105.423,88.371 105.423,89.027 C105.423,89.681 105.339,90.275 104.908,90.717 L104.908,90.717 Z" id="Fill-18" fill="#FFFFFF" sketch:type="MSShapeGroup"></path>
            <path d="M108.268,87.408 C107.345,87.408 107.198,88.199 107.198,89.027 C107.198,89.857 107.345,90.646 108.268,90.646 C109.19,90.646 109.328,89.857 109.328,89.027 C109.328,88.199 109.19,87.408 108.268,87.408 L108.268,87.408 Z M109.431,90.828 C109.207,91.054 108.827,91.199 108.397,91.199 C107.931,91.199 107.542,91.088 107.198,90.646 L107.198,93.045 L106.577,93.045 L106.577,86.906 L107.198,86.906 L107.198,87.408 C107.542,86.959 107.931,86.855 108.397,86.855 C108.827,86.855 109.207,87 109.431,87.226 C109.862,87.656 109.948,88.363 109.948,89.027 C109.948,89.691 109.862,90.396 109.431,90.828 L109.431,90.828 Z" id="Fill-19" fill="#FFFFFF" sketch:type="MSShapeGroup"></path>
            <path d="M113.473,87.718 C113.24,87.484 113.068,87.408 112.74,87.408 C112.118,87.408 111.723,87.896 111.723,88.545 L111.723,91.148 L111.102,91.148 L111.102,86.906 L111.723,86.906 L111.723,87.424 C111.957,87.074 112.421,86.855 112.913,86.855 C113.317,86.855 113.627,86.949 113.928,87.252 L113.473,87.718" id="Fill-20" fill="#FFFFFF" sketch:type="MSShapeGroup"></path>
            <path d="M116.875,89.189 L115.687,89.189 C115.048,89.189 114.738,89.445 114.738,89.939 C114.738,90.433 115.04,90.664 115.713,90.664 C116.075,90.664 116.394,90.638 116.66,90.379 C116.806,90.244 116.875,90.004 116.875,89.648 L116.875,89.189 L116.875,89.189 Z M116.875,91.148 L116.875,90.74 C116.531,91.088 116.222,91.199 115.652,91.199 C115.065,91.199 114.721,91.088 114.455,90.812 C114.248,90.603 114.135,90.287 114.135,89.951 C114.135,89.209 114.652,88.726 115.602,88.726 L116.875,88.726 L116.875,88.32 C116.875,87.699 116.564,87.39 115.791,87.39 C115.248,87.39 114.971,87.517 114.721,87.873 L114.299,87.484 C114.677,86.992 115.108,86.855 115.799,86.855 C116.935,86.855 117.497,87.347 117.497,88.267 L117.497,91.148 L116.875,91.148 L116.875,91.148 Z" id="Fill-21" fill="#FFFFFF" sketch:type="MSShapeGroup"></path>
            <path d="M120.477,91.199 C119.409,91.199 118.598,90.476 118.598,89.027 C118.598,87.578 119.409,86.855 120.477,86.855 C121.063,86.855 121.435,87.01 121.874,87.484 L121.451,87.881 C121.134,87.529 120.883,87.408 120.477,87.408 C120.064,87.408 119.72,87.57 119.496,87.89 C119.299,88.166 119.219,88.494 119.219,89.027 C119.219,89.562 119.299,89.888 119.496,90.168 C119.72,90.482 120.064,90.646 120.477,90.646 C120.883,90.646 121.134,90.521 121.451,90.168 L121.874,90.57 C121.435,91.045 121.063,91.199 120.477,91.199" id="Fill-22" fill="#FFFFFF" sketch:type="MSShapeGroup"></path>
            <path d="M124.07,91.148 C123.348,91.148 122.985,90.638 122.985,90.01 L122.985,87.408 L122.451,87.408 L122.451,86.931 L122.985,86.931 L122.985,85.607 L123.605,85.607 L123.605,86.931 L124.511,86.931 L124.511,87.408 L123.605,87.408 L123.605,89.994 C123.605,90.379 123.788,90.611 124.184,90.611 L124.511,90.611 L124.511,91.148 L124.07,91.148" id="Fill-23" fill="#FFFFFF" sketch:type="MSShapeGroup"></path>
            <path d="M127.784,87.718 C127.587,87.517 127.311,87.408 127.01,87.408 C126.708,87.408 126.442,87.517 126.243,87.718 C125.932,88.027 125.898,88.552 125.898,89.027 C125.898,89.502 125.932,90.029 126.243,90.338 C126.442,90.537 126.708,90.646 127.01,90.646 C127.311,90.646 127.587,90.537 127.784,90.338 C128.095,90.029 128.12,89.502 128.12,89.027 C128.12,88.552 128.095,88.027 127.784,87.718 L127.784,87.718 Z M128.224,90.717 C127.931,91.008 127.526,91.199 127.01,91.199 C126.494,91.199 126.088,91.008 125.795,90.717 C125.363,90.275 125.277,89.681 125.277,89.027 C125.277,88.371 125.363,87.777 125.795,87.34 C126.088,87.047 126.494,86.855 127.01,86.855 C127.526,86.855 127.931,87.047 128.224,87.34 C128.653,87.777 128.741,88.371 128.741,89.027 C128.741,89.681 128.653,90.275 128.224,90.717 L128.224,90.717 Z" id="Fill-24" fill="#FFFFFF" sketch:type="MSShapeGroup"></path>
            <path d="M132.267,87.718 C132.033,87.484 131.86,87.408 131.533,87.408 C130.913,87.408 130.517,87.896 130.517,88.545 L130.517,91.148 L129.896,91.148 L129.896,86.906 L130.517,86.906 L130.517,87.424 C130.75,87.074 131.215,86.855 131.707,86.855 C132.112,86.855 132.422,86.949 132.724,87.252 L132.267,87.718" id="Fill-25" fill="#FFFFFF" sketch:type="MSShapeGroup"></path>
            <path d="M134.604,91.199 C133.887,91.199 133.324,91.037 132.859,90.588 L133.276,90.174 C133.609,90.527 134.067,90.664 134.59,90.664 C135.291,90.664 135.722,90.416 135.722,89.916 C135.722,89.545 135.506,89.336 135.017,89.293 L134.317,89.234 C133.489,89.162 133.05,88.795 133.05,88.095 C133.05,87.32 133.704,86.855 134.609,86.855 C135.214,86.855 135.756,87 136.137,87.308 L135.729,87.718 C135.427,87.484 135.042,87.381 134.604,87.381 C133.981,87.381 133.653,87.648 133.653,88.078 C133.653,88.441 133.86,88.658 134.395,88.701 L135.076,88.758 C135.814,88.826 136.326,89.111 136.326,89.906 C136.326,90.726 135.627,91.199 134.604,91.199" id="Fill-26" fill="#FFFFFF" sketch:type="MSShapeGroup"></path>
            <path d="M136.937,86.416 L136.937,85.011 L137.686,85.011 L137.686,85.736 L136.937,86.416" id="Fill-27" fill="#FFFFFF" sketch:type="MSShapeGroup"></path>
            <path d="M142.89,85.951 L141.736,89.189 L144.026,89.189 L142.89,85.951 L142.89,85.951 Z M144.706,91.148 L144.216,89.761 L141.537,89.761 L141.047,91.148 L140.349,91.148 L142.605,85.011 L143.156,85.011 L145.404,91.148 L144.706,91.148 L144.706,91.148 Z" id="Fill-28" fill="#FFFFFF" sketch:type="MSShapeGroup"></path>
            <path d="M147.449,91.199 C146.732,91.199 146.173,91.037 145.709,90.588 L146.12,90.174 C146.458,90.527 146.915,90.664 147.439,90.664 C148.139,90.664 148.571,90.416 148.571,89.916 C148.571,89.545 148.353,89.336 147.864,89.293 L147.163,89.234 C146.337,89.162 145.898,88.795 145.898,88.095 C145.898,87.32 146.552,86.855 147.459,86.855 C148.062,86.855 148.602,87 148.981,87.308 L148.577,87.718 C148.278,87.484 147.89,87.381 147.449,87.381 C146.829,87.381 146.502,87.648 146.502,88.078 C146.502,88.441 146.706,88.658 147.242,88.701 L147.922,88.758 C148.664,88.826 149.171,89.111 149.171,89.906 C149.171,90.726 148.476,91.199 147.449,91.199" id="Fill-29" fill="#FFFFFF" sketch:type="MSShapeGroup"></path>
            <path d="M151.41,91.199 C150.696,91.199 150.136,91.037 149.67,90.588 L150.086,90.174 C150.422,90.527 150.879,90.664 151.406,90.664 C152.1,90.664 152.532,90.416 152.532,89.916 C152.532,89.545 152.315,89.336 151.825,89.293 L151.129,89.234 C150.3,89.162 149.858,88.795 149.858,88.095 C149.858,87.32 150.518,86.855 151.42,86.855 C152.022,86.855 152.565,87 152.944,87.308 L152.542,87.718 C152.238,87.484 151.852,87.381 151.41,87.381 C150.792,87.381 150.465,87.648 150.465,88.078 C150.465,88.441 150.672,88.658 151.205,88.701 L151.885,88.758 C152.627,88.826 153.137,89.111 153.137,89.906 C153.137,90.726 152.438,91.199 151.41,91.199" id="Fill-30" fill="#FFFFFF" sketch:type="MSShapeGroup"></path>
            <path d="M156.461,87.718 C156.266,87.517 155.987,87.408 155.687,87.408 C155.386,87.408 155.118,87.517 154.921,87.718 C154.612,88.027 154.575,88.552 154.575,89.027 C154.575,89.502 154.612,90.029 154.921,90.338 C155.118,90.537 155.386,90.646 155.687,90.646 C155.987,90.646 156.266,90.537 156.461,90.338 C156.772,90.029 156.799,89.502 156.799,89.027 C156.799,88.552 156.772,88.027 156.461,87.718 L156.461,87.718 Z M156.899,90.717 C156.607,91.008 156.202,91.199 155.687,91.199 C155.169,91.199 154.767,91.008 154.47,90.717 C154.041,90.275 153.953,89.681 153.953,89.027 C153.953,88.371 154.041,87.777 154.47,87.34 C154.767,87.047 155.169,86.855 155.687,86.855 C156.202,86.855 156.607,87.047 156.899,87.34 C157.333,87.777 157.417,88.371 157.417,89.027 C157.417,89.681 157.333,90.275 156.899,90.717 L156.899,90.717 Z" id="Fill-31" fill="#FFFFFF" sketch:type="MSShapeGroup"></path>
            <path d="M160.222,91.199 C159.151,91.199 158.338,90.476 158.338,89.027 C158.338,87.578 159.151,86.855 160.222,86.855 C160.808,86.855 161.176,87.01 161.615,87.484 L161.192,87.881 C160.875,87.529 160.624,87.408 160.222,87.408 C159.806,87.408 159.46,87.57 159.236,87.89 C159.039,88.166 158.959,88.494 158.959,89.027 C158.959,89.562 159.039,89.888 159.236,90.168 C159.46,90.482 159.806,90.646 160.222,90.646 C160.624,90.646 160.875,90.521 161.192,90.168 L161.615,90.57 C161.176,91.045 160.808,91.199 160.222,91.199" id="Fill-32" fill="#FFFFFF" sketch:type="MSShapeGroup"></path>
            <path d="M162.621,86.906 L163.243,86.906 L163.243,91.148 L162.621,91.148 L162.621,86.906 Z M162.59,85.006 L163.285,85.006 L163.285,85.699 L162.59,85.699 L162.59,85.006 Z" id="Fill-33" fill="#FFFFFF" sketch:type="MSShapeGroup"></path>
            <path d="M167.036,89.189 L165.845,89.189 C165.208,89.189 164.896,89.445 164.896,89.939 C164.896,90.433 165.2,90.664 165.87,90.664 C166.235,90.664 166.553,90.638 166.82,90.379 C166.966,90.244 167.036,90.004 167.036,89.648 L167.036,89.189 L167.036,89.189 Z M167.036,91.148 L167.036,90.74 C166.691,91.088 166.379,91.199 165.811,91.199 C165.227,91.199 164.881,91.088 164.61,90.812 C164.409,90.603 164.293,90.287 164.293,89.951 C164.293,89.209 164.812,88.726 165.762,88.726 L167.036,88.726 L167.036,88.32 C167.036,87.699 166.724,87.39 165.946,87.39 C165.404,87.39 165.13,87.517 164.881,87.873 L164.458,87.484 C164.837,86.992 165.268,86.855 165.957,86.855 C167.097,86.855 167.656,87.347 167.656,88.267 L167.656,91.148 L167.036,91.148 L167.036,91.148 Z" id="Fill-34" fill="#FFFFFF" sketch:type="MSShapeGroup"></path>
            <path d="M170.179,91.148 C169.457,91.148 169.092,90.638 169.092,90.01 L169.092,87.408 L168.562,87.408 L168.562,86.931 L169.092,86.931 L169.092,85.607 L169.716,85.607 L169.716,86.931 L170.619,86.931 L170.619,87.408 L169.716,87.408 L169.716,89.994 C169.716,90.379 169.895,90.611 170.292,90.611 L170.619,90.611 L170.619,91.148 L170.179,91.148" id="Fill-35" fill="#FFFFFF" sketch:type="MSShapeGroup"></path>
            <path d="M171.68,86.906 L172.298,86.906 L172.298,91.148 L171.68,91.148 L171.68,86.906 Z M171.645,85.006 L172.342,85.006 L172.342,85.699 L171.645,85.699 L171.645,85.006 Z" id="Fill-36" fill="#FFFFFF" sketch:type="MSShapeGroup"></path>
            <path d="M175.971,87.718 C175.772,87.517 175.498,87.408 175.196,87.408 C174.896,87.408 174.627,87.517 174.429,87.718 C174.117,88.027 174.082,88.552 174.082,89.027 C174.082,89.502 174.117,90.029 174.429,90.338 C174.627,90.537 174.896,90.646 175.196,90.646 C175.498,90.646 175.772,90.537 175.971,90.338 C176.28,90.029 176.309,89.502 176.309,89.027 C176.309,88.552 176.28,88.027 175.971,87.718 L175.971,87.718 Z M176.411,90.717 C176.116,91.008 175.714,91.199 175.196,91.199 C174.68,91.199 174.274,91.008 173.983,90.717 C173.551,90.275 173.467,89.681 173.467,89.027 C173.467,88.371 173.551,87.777 173.983,87.34 C174.274,87.047 174.68,86.855 175.196,86.855 C175.714,86.855 176.116,87.047 176.411,87.34 C176.842,87.777 176.929,88.371 176.929,89.027 C176.929,89.681 176.842,90.275 176.411,90.717 L176.411,90.717 Z" id="Fill-37" fill="#FFFFFF" sketch:type="MSShapeGroup"></path>
            <path d="M180.798,91.148 L180.798,88.537 C180.798,87.785 180.393,87.408 179.753,87.408 C179.115,87.408 178.702,87.795 178.702,88.537 L178.702,91.148 L178.08,91.148 L178.08,86.906 L178.702,86.906 L178.702,87.375 C179.003,87.027 179.418,86.855 179.892,86.855 C180.352,86.855 180.721,86.992 180.977,87.252 C181.28,87.543 181.417,87.941 181.417,88.431 L181.417,91.148 L180.798,91.148" id="Fill-38" fill="#FFFFFF" sketch:type="MSShapeGroup"></path>
            <path d="M187.011,87.718 C186.81,87.517 186.537,87.408 186.234,87.408 C185.933,87.408 185.666,87.517 185.468,87.718 C185.156,88.027 185.124,88.552 185.124,89.027 C185.124,89.502 185.156,90.029 185.468,90.338 C185.666,90.537 185.933,90.646 186.234,90.646 C186.537,90.646 186.81,90.537 187.011,90.338 C187.321,90.029 187.345,89.502 187.345,89.027 C187.345,88.552 187.321,88.027 187.011,87.718 L187.011,87.718 Z M187.447,90.717 C187.155,91.008 186.752,91.199 186.234,91.199 C185.717,91.199 185.313,91.008 185.02,90.717 C184.591,90.275 184.502,89.681 184.502,89.027 C184.502,88.371 184.591,87.777 185.02,87.34 C185.313,87.047 185.717,86.855 186.234,86.855 C186.752,86.855 187.155,87.047 187.447,87.34 C187.879,87.777 187.965,88.371 187.965,89.027 C187.965,89.681 187.879,90.275 187.447,90.717 L187.447,90.717 Z" id="Fill-39" fill="#FFFFFF" sketch:type="MSShapeGroup"></path>
            <path d="M189.88,87.408 L189.88,91.148 L189.259,91.148 L189.259,87.408 L188.717,87.408 L188.717,86.931 L189.259,86.931 L189.259,86.131 C189.259,85.504 189.612,84.994 190.335,84.994 L190.783,84.994 L190.783,85.527 L190.447,85.527 C190.053,85.527 189.88,85.761 189.88,86.15 L189.88,86.931 L190.783,86.931 L190.783,87.408 L189.88,87.408" id="Fill-40" fill="#FFFFFF" sketch:type="MSShapeGroup"></path>
            <path d="M195.499,85.951 L194.341,89.189 L196.636,89.189 L195.499,85.951 L195.499,85.951 Z M197.315,91.148 L196.825,89.761 L194.145,89.761 L193.654,91.148 L192.957,91.148 L195.214,85.011 L195.766,85.011 L198.015,91.148 L197.315,91.148 L197.315,91.148 Z" id="Fill-41" fill="#FFFFFF" sketch:type="MSShapeGroup"></path>
            <path d="M201.402,91.148 L201.402,90.674 C201.102,91.017 200.677,91.199 200.204,91.199 C199.746,91.199 199.369,91.062 199.108,90.802 C198.809,90.51 198.676,90.105 198.676,89.615 L198.676,86.906 L199.297,86.906 L199.297,89.519 C199.297,90.271 199.694,90.646 200.333,90.646 C200.972,90.646 201.394,90.261 201.394,89.519 L201.394,86.906 L202.015,86.906 L202.015,91.148 L201.402,91.148" id="Fill-42" fill="#FFFFFF" sketch:type="MSShapeGroup"></path>
            <path d="M204.727,91.199 C204.013,91.199 203.45,91.037 202.988,90.588 L203.399,90.174 C203.738,90.527 204.194,90.664 204.719,90.664 C205.415,90.664 205.848,90.416 205.848,89.916 C205.848,89.545 205.631,89.336 205.142,89.293 L204.442,89.234 C203.616,89.162 203.179,88.795 203.179,88.095 C203.179,87.32 203.831,86.855 204.735,86.855 C205.341,86.855 205.884,87 206.262,87.308 L205.858,87.718 C205.555,87.484 205.168,87.381 204.727,87.381 C204.106,87.381 203.78,87.648 203.78,88.078 C203.78,88.441 203.989,88.658 204.521,88.701 L205.199,88.758 C205.94,88.826 206.45,89.111 206.45,89.906 C206.45,90.726 205.754,91.199 204.727,91.199" id="Fill-43" fill="#FFFFFF" sketch:type="MSShapeGroup"></path>
            <path d="M208.598,91.148 C207.872,91.148 207.512,90.638 207.512,90.01 L207.512,87.408 L206.977,87.408 L206.977,86.931 L207.512,86.931 L207.512,85.607 L208.128,85.607 L208.128,86.931 L209.035,86.931 L209.035,87.408 L208.128,87.408 L208.128,89.994 C208.128,90.379 208.313,90.611 208.709,90.611 L209.035,90.611 L209.035,91.148 L208.598,91.148" id="Fill-44" fill="#FFFFFF" sketch:type="MSShapeGroup"></path>
            <path d="M212.466,87.718 C212.235,87.484 212.062,87.408 211.734,87.408 C211.111,87.408 210.718,87.896 210.718,88.545 L210.718,91.148 L210.097,91.148 L210.097,86.906 L210.718,86.906 L210.718,87.424 C210.947,87.074 211.415,86.855 211.905,86.855 C212.311,86.855 212.622,86.949 212.921,87.252 L212.466,87.718" id="Fill-45" fill="#FFFFFF" sketch:type="MSShapeGroup"></path>
            <path d="M215.868,89.189 L214.679,89.189 C214.041,89.189 213.73,89.445 213.73,89.939 C213.73,90.433 214.032,90.664 214.708,90.664 C215.067,90.664 215.388,90.638 215.655,90.379 C215.801,90.244 215.868,90.004 215.868,89.648 L215.868,89.189 L215.868,89.189 Z M215.868,91.148 L215.868,90.74 C215.526,91.088 215.215,91.199 214.645,91.199 C214.06,91.199 213.715,91.088 213.449,90.812 C213.241,90.603 213.128,90.287 213.128,89.951 C213.128,89.209 213.647,88.726 214.594,88.726 L215.868,88.726 L215.868,88.32 C215.868,87.699 215.558,87.39 214.783,87.39 C214.24,87.39 213.964,87.517 213.715,87.873 L213.292,87.484 C213.674,86.992 214.104,86.855 214.791,86.855 C215.93,86.855 216.49,87.347 216.49,88.267 L216.49,91.148 L215.868,91.148 L215.868,91.148 Z" id="Fill-46" fill="#FFFFFF" sketch:type="MSShapeGroup"></path>
            <path d="M218.887,91.148 C218.146,91.148 217.81,90.664 217.81,90.019 L217.81,85.011 L218.429,85.011 L218.429,89.994 C218.429,90.406 218.567,90.611 218.996,90.611 L219.335,90.611 L219.335,91.148 L218.887,91.148" id="Fill-47" fill="#FFFFFF" sketch:type="MSShapeGroup"></path>
            <path d="M220.212,86.906 L220.834,86.906 L220.834,91.148 L220.212,91.148 L220.212,86.906 Z M220.178,85.006 L220.875,85.006 L220.875,85.699 L220.178,85.699 L220.178,85.006 Z" id="Fill-48" fill="#FFFFFF" sketch:type="MSShapeGroup"></path>
            <path d="M224.625,89.189 L223.435,89.189 C222.797,89.189 222.487,89.445 222.487,89.939 C222.487,90.433 222.789,90.664 223.462,90.664 C223.824,90.664 224.142,90.638 224.408,90.379 C224.555,90.244 224.625,90.004 224.625,89.648 L224.625,89.189 L224.625,89.189 Z M224.625,91.148 L224.625,90.74 C224.281,91.088 223.972,91.199 223.402,91.199 C222.815,91.199 222.472,91.088 222.203,90.812 C221.994,90.603 221.885,90.287 221.885,89.951 C221.885,89.209 222.4,88.726 223.349,88.726 L224.625,88.726 L224.625,88.32 C224.625,87.699 224.313,87.39 223.538,87.39 C222.997,87.39 222.72,87.517 222.472,87.873 L222.047,87.484 C222.428,86.992 222.862,86.855 223.55,86.855 C224.683,86.855 225.243,87.347 225.243,88.267 L225.243,91.148 L224.625,91.148 L224.625,91.148 Z" id="Fill-49" fill="#FFFFFF" sketch:type="MSShapeGroup"></path>
            <path d="M152.732,37.144 L145.237,58.724 L159.991,58.724 L152.732,37.144 L152.732,37.144 Z M166.573,78.974 L163.072,68.47 L141.986,68.47 L138.406,78.974 L126.324,78.974 L147.908,19.644 L156.985,19.644 L178.653,78.974 L166.573,78.974 L166.573,78.974 Z" id="Fill-50" fill="#FFFFFF" sketch:type="MSShapeGroup"></path>
            <path d="M199.595,37.144 L192.1,58.724 L206.846,58.724 L199.595,37.144 L199.595,37.144 Z M213.432,78.974 L209.934,68.47 L188.849,68.47 L185.267,78.974 L173.185,78.974 L194.77,19.644 L203.846,19.644 L225.51,78.974 L213.432,78.974 L213.432,78.974 Z" id="Fill-51" fill="#FFFFFF" sketch:type="MSShapeGroup"></path>
            <path d="M105.787,79.476 C99.287,79.476 93.956,77.138 89.788,72.97 C83.789,66.978 83.957,59.559 83.957,49.307 C83.957,39.061 83.789,31.647 89.788,25.639 C93.956,21.482 99.287,19.141 105.787,19.141 C116.868,19.141 125.533,25.482 127.615,37.895 L115.873,37.895 C114.704,33.144 111.703,29.476 105.874,29.476 C102.704,29.476 100.126,30.648 98.452,32.563 C96.207,35.062 95.538,37.895 95.538,49.307 C95.538,60.726 96.207,63.556 98.452,66.059 C100.126,67.976 102.704,69.138 105.874,69.138 C111.703,69.138 114.704,65.473 115.873,60.726 L127.615,60.726 C125.533,73.136 116.783,79.476 105.787,79.476" id="Fill-52" fill="#FFFFFF" sketch:type="MSShapeGroup"></path>
        </g>
    </g>
</svg>
