<?xml version="1.0" encoding="UTF-8" standalone="no"?>
<svg width="470px" height="468px" viewBox="0 0 470 468" version="1.1" xmlns="http://www.w3.org/2000/svg" xmlns:xlink="http://www.w3.org/1999/xlink" xmlns:sketch="http://www.bohemiancoding.com/sketch/ns">
    <defs>
        <rect id="path-1" x="0.98034668" y="0.303512003" width="516.835938" height="510"></rect>
        <path id="path-2" d="M259.888742,32.8862195 L262.477262,32.8862195 C262.477262,30.2000619 262.3185,27.5207919 262.235667,24.9930487 L262.145932,22.4928559 L259.647147,22.4928559 C216.898595,22.4928559 176.911131,34.084659 142.501066,54.14819 L138.670056,56.379767 L142.507969,58.6113441 C178.553979,79.5495982 208.33922,109.930729 228.246668,146.545124 L230.48315,150.657011 L232.781756,146.579562 C251.71592,112.988816 262.491068,74.1841706 262.491068,32.8862195 L259.888742,32.8862195 L257.300221,32.8862195 C257.300221,73.2887847 246.773572,111.21182 228.260474,144.051818 L230.517663,145.319134 L232.795561,144.086256 C212.425631,106.631577 181.963923,75.5616873 145.110295,54.14819 L143.812583,56.379767 L145.117198,58.6113441 C178.774866,38.9886185 217.85117,27.6585435 259.654049,27.6585435 L259.654049,25.0756997 L257.065529,25.1583507 C257.148361,27.78252 257.307124,30.413577 257.307124,32.8793319 L259.888742,32.8793319 L259.888742,32.8862195 Z"></path>
        <path id="path-3" d="M143.798778,232.667469 L145.089587,230.429004 C109.298978,209.904005 79.665596,179.929241 59.4268177,143.969167 L57.1351143,139.898605 L54.8986327,143.996718 C36.7996979,177.077782 26.5353516,214.959491 26.5353516,255.341394 C26.5353516,258.027551 26.7010169,260.706821 26.7838495,263.234564 L26.8666822,265.72787 L29.37237,265.72787 C71.5272878,265.72787 111.010853,254.473558 145.089587,234.912821 L148.989624,232.674356 L145.089587,230.435892 L143.798778,232.667469 L142.507969,230.429004 C109.181632,249.555824 70.6023232,260.555294 29.37237,260.555294 L29.37237,263.138138 L31.9608904,263.055487 C31.871155,260.431318 31.7123924,257.800261 31.7123924,255.334506 C31.7123924,215.834214 41.7489489,178.82034 59.4406232,146.46936 L57.1696279,145.229595 L54.9124381,146.496911 C75.6136987,183.269719 105.902839,213.912579 142.507969,234.905933 L143.798778,232.667469 L142.507969,230.429004 L143.798778,232.667469 L143.798778,232.667469 Z"></path>
        <path id="path-4" d="M230.510761,145.312246 L228.253571,144.051818 C208.097625,180.011892 178.388313,209.897117 142.514872,230.429004 L138.601029,232.667469 L142.514872,234.905933 C176.669536,254.466671 216.153101,265.720982 258.308019,265.720982 L260.813706,265.720982 L260.896539,263.227677 C260.979372,260.706821 261.145037,258.020664 261.145037,255.334506 C261.145037,215.035255 250.880691,177.153545 232.781756,144.079369 L230.538372,139.974369 L228.253571,144.051818 L230.510761,145.312246 L228.239765,146.552011 C245.93144,178.896104 255.967996,215.916865 255.967996,255.334506 C255.967996,257.800261 255.809234,260.431318 255.719498,263.055487 L258.308019,263.138138 L258.308019,260.555294 C217.078065,260.555294 178.498757,249.555824 145.089587,230.429004 L143.798778,232.667469 L145.089587,234.905933 C181.77755,213.912579 212.156425,183.35237 232.774853,146.572674 L230.510761,145.312246 L228.239765,146.552011 L230.510761,145.312246 L230.510761,145.312246 Z"></path>
        <path id="path-5" d="M225.934257,373.160398 L223.71158,371.84487 C203.969798,405.001697 175.903334,432.593357 142.576996,452.057668 L138.759792,454.282358 L142.583899,456.507047 C176.993964,476.577466 216.981427,488.086618 259.640244,488.169269 L262.325402,488.176156 L262.235667,485.496886 C260.799901,443.944095 248.59589,405.146336 228.15003,371.810432 L225.906646,368.153125 L223.718483,371.837982 L225.934257,373.160398 L223.725386,374.503477 C243.715666,407.095523 255.650471,445.018558 257.051723,485.675964 L259.640244,485.586425 L259.640244,483.003581 C217.913295,482.92093 178.843893,471.673506 145.186225,452.057668 L143.881611,454.282358 L145.186225,456.507047 C179.264959,436.608818 207.952668,408.404163 228.156933,374.475927 L225.934257,373.160398 L223.725386,374.503477 L225.934257,373.160398 L225.934257,373.160398 Z"></path>
        <path id="path-6" d="M225.934257,373.160398 L228.156933,374.489702 C247.767563,341.815005 259.550508,303.850645 260.896539,263.220789 L260.986274,260.548407 L258.301116,260.548407 C216.153101,260.637945 176.669536,271.885369 142.514872,291.370343 L138.594126,293.608808 L142.514872,295.85416 C175.758377,314.905216 203.742008,342.00097 223.732289,374.517252 L225.96877,378.147009 L228.163835,374.49659 L225.934257,373.160398 L228.143127,371.810432 C207.697267,338.557178 179.085488,310.84843 145.089587,291.370343 L143.798778,293.608808 L145.082684,295.847273 C178.498757,276.796217 217.078065,265.803633 258.314921,265.714095 L258.308019,263.131251 L255.719498,263.0486 C254.407981,302.789957 242.88734,339.886482 223.71158,371.824207 L225.934257,373.160398 L228.143127,371.810432 L225.934257,373.160398 L225.934257,373.160398 Z"></path>
        <path id="path-7" d="M29.3792727,263.138138 L26.7907523,263.227677 C28.1367829,303.857532 39.9197278,341.821893 59.5303585,374.572353 L61.7185211,378.236547 L63.9550028,374.599903 C83.9452831,342.083621 111.928915,314.905216 145.089587,295.85416 L148.996527,293.608808 L145.089587,291.377231 C111.010853,271.899145 71.5341906,260.644833 29.3861754,260.555294 L26.7010169,260.555294 L26.7907523,263.227677 L29.3792727,263.138138 L29.37237,265.720982 C70.6092259,265.810521 109.188534,276.803104 142.514872,295.85416 L143.805681,293.615696 L142.514872,291.377231 C108.601803,310.855317 79.9969267,338.646717 59.544164,371.893083 L61.7530347,373.243049 L63.9757109,371.920633 C44.8068544,339.900257 33.2862128,302.796845 31.9677931,263.055487 L29.3792727,263.138138 L29.37237,265.720982 L29.3792727,263.138138 L29.3792727,263.138138 Z"></path>
        <path id="path-8" d="M290.681781,142.901592 L288.431494,141.634277 C269.490427,175.225022 258.715279,214.029667 258.715279,255.334506 C258.715279,257.965563 258.798112,260.56907 258.880944,263.138138 L258.97068,265.665881 L261.503978,265.638331 C303.741729,265.135538 343.301224,253.38532 377.297125,233.314901 L381.059108,231.0971 L377.304028,228.865522 C341.913777,207.927268 312.618628,177.787203 292.959679,141.668714 L290.723197,137.563715 L288.431494,141.634277 L290.681781,142.901592 L288.403883,144.134469 C308.525315,181.086355 338.476222,211.894517 374.660286,233.308014 L375.978706,231.083324 L374.660286,228.865522 C341.416781,248.488248 302.75464,259.976737 261.441854,260.472643 L261.476368,263.055487 L264.064888,262.972836 C263.975153,260.403768 263.899223,257.855362 263.899223,255.334506 C263.899223,214.931941 274.425872,177.008906 292.93897,144.168907 L290.681781,142.901592 L288.403883,144.134469 L290.681781,142.901592 L290.681781,142.901592 Z"></path>
        <path id="path-9" d="M295.258285,375.488402 L293.042511,374.159098 C273.431881,406.916445 261.738671,444.880806 260.39264,485.421123 L260.296002,488.127943 L263.015674,488.093505 C304.652888,487.508061 343.632554,476.088447 377.297125,456.520822 L381.135038,454.289245 L377.290223,452.057668 C344.633449,433.096151 317.139911,406.24835 297.474058,374.145323 L295.244479,370.501791 L293.056317,374.165986 L295.258285,375.488402 L293.056317,376.83148 C313.163943,409.671479 341.264921,437.118499 374.680994,456.513935 L375.978706,454.282358 L374.674091,452.050781 C341.761917,471.184488 303.679605,482.349261 262.932842,482.92093 L262.974258,485.503774 L265.562779,485.593313 C266.867393,445.920831 278.312104,408.824306 297.474058,376.80393 L295.258285,375.488402 L293.056317,376.83148 L295.258285,375.488402 L295.258285,375.488402 Z"></path>
        <path id="path-10" d="M375.978706,295.192952 L374.660286,297.410754 C407.489627,316.868178 434.976263,344.211885 454.47645,376.886581 L456.664613,380.557663 L458.901094,376.921019 C479.353857,343.667765 491.633798,304.86312 493.069564,263.310328 L493.159299,260.603508 L490.44653,260.637945 C448.208779,261.22339 408.649285,272.890957 374.653383,292.961375 L370.898303,295.179177 L374.653383,297.403867 L375.978706,295.192952 L377.297125,297.410754 C410.533727,277.788029 449.195868,266.375303 490.515557,265.803633 L490.481043,263.220789 L487.892523,263.131251 C486.498173,303.774881 474.487439,341.697917 454.490256,374.214199 L456.692224,375.564165 L458.9149,374.248637 C438.966036,340.816306 410.858155,312.866492 377.290223,292.968263 L375.978706,295.192952 L377.297125,297.410754 L375.978706,295.192952 L375.978706,295.192952 Z"></path>
        <path id="path-11" d="M375.978706,295.192952 L377.297125,292.968263 C343.294321,272.897844 303.741729,261.230278 261.503978,260.644833 L258.791209,260.610395 L258.880944,263.317215 C260.31671,304.870007 272.596651,343.592002 293.049414,376.838368 L295.285896,380.475012 L297.467156,376.810818 C316.974245,344.22566 344.543714,316.875065 377.290223,297.417642 L381.0384,295.186065 L377.290223,292.97515 L375.978706,295.192952 L374.660286,292.97515 C341.168283,312.873379 312.97757,340.823193 293.042511,374.159098 L295.258285,375.488402 L297.460253,374.131548 C277.469972,341.622153 265.452335,303.781769 264.057985,263.138138 L261.469465,263.227677 L261.434951,265.810521 C302.75464,266.38219 341.416781,277.794916 374.653383,297.417642 L375.978706,295.192952 L374.660286,292.97515 L375.978706,295.192952 L375.978706,295.192952 Z"></path>
        <path id="path-12" d="M490.487946,263.055487 L493.076467,263.138138 C493.159299,260.56907 493.242132,257.972451 493.242132,255.334506 C493.242132,213.947016 482.384152,175.142371 463.449988,141.551626 L461.158284,137.481064 L458.921802,141.586063 C439.25595,177.711439 410.043634,207.927268 374.660286,228.865522 L370.898303,231.090212 L374.660286,233.308014 C408.66309,253.378432 448.215682,265.12865 490.453433,265.631444 L492.993634,265.658994 L493.076467,263.131251 L490.487946,263.055487 L490.52246,260.472643 C449.209674,259.976737 410.547533,248.488248 377.304028,228.865522 L375.985608,231.090212 L377.304028,233.314901 C413.488092,211.901404 443.356166,181.003704 463.470696,144.058706 L461.1997,142.825828 L458.942511,144.093144 C477.455609,176.933142 488.071994,214.84929 488.071994,255.334506 C488.071994,257.848474 487.982258,260.39688 487.906328,262.972836 L490.487946,263.055487 L490.52246,260.472643 L490.487946,263.055487 L490.487946,263.055487 Z"></path>
        <path id="path-13" d="M290.681781,142.901592 L292.93897,144.16202 C312.846418,108.615201 342.141567,79.0536922 377.366152,58.6113441 L381.197163,56.3866546 L377.366152,54.14819 C343.708484,34.497914 304.645985,23.0783005 263.001869,22.5755069 L260.46857,22.5479565 L260.385738,25.0756997 C260.302905,27.534567 260.047504,30.1380736 260.047504,32.8793319 C260.047504,73.1716958 270.311851,111.060293 288.403883,144.134469 L290.647267,148.239469 L292.932068,144.16202 L290.681781,142.901592 L292.952776,141.661827 C275.268004,109.317734 265.224545,72.2969727 265.224545,32.8793319 C265.224545,30.4686776 265.46614,27.9271593 265.562779,25.2410017 L262.974258,25.1583507 L262.939744,27.7411945 C303.672702,28.2371006 341.84475,39.394986 374.750021,58.6044565 L376.054635,56.3728795 L374.756924,54.1413024 C338.731622,75.0520061 308.773813,105.274723 288.410785,141.634277 L290.681781,142.901592 L292.952776,141.661827 L290.681781,142.901592 L290.681781,142.901592 Z"></path>
        <path id="path-14" d="M490.632903,255.293181 L487.181543,255.293181 C487.17464,317.928866 461.738113,374.599903 420.6117,415.643014 C379.471482,456.686124 322.675893,482.059982 259.916353,482.059982 C197.143007,482.059982 140.347417,456.686124 99.2071995,415.643014 C58.0807871,374.599903 32.6442598,317.921978 32.6442598,255.293181 C32.6442598,192.664383 58.0807871,136.000233 99.2071995,94.9571226 C140.347417,53.9208997 197.143007,28.5401542 259.916353,28.5401542 C322.682796,28.5401542 379.471482,53.9140121 420.6117,94.9571226 C461.738113,136.000233 487.17464,192.664383 487.181543,255.293181 L490.632903,255.293181 L494.084264,255.293181 C494.077361,126.26119 389.245736,21.6594583 259.916353,21.6594583 C130.580067,21.6594583 25.7484414,126.26119 25.7415387,255.293181 C25.7415387,384.338946 130.580067,488.947566 259.916353,488.947566 C389.238833,488.947566 494.077361,384.338946 494.084264,255.293181 L490.632903,255.293181 L490.632903,255.293181 Z"></path>
        <path d="M255.793213,263.539612 L255.793213,264 L259,264 L259,260 L255.793213,260 L255.793213,262.539612 L255.398315,262.539612 L255.398315,263.539612 L255.793213,263.539612 Z M261,265 L264.206787,265 L264.206787,266 L261,266 L261,265 Z M255.603943,265 L259,265 L259,266 L255.603943,266 L255.603943,265 Z M261,260 L264.036438,260 L264.036438,261 L261,261 L261,260 Z" id="path-15"></path>
    </defs>
    <g id="Page-1" stroke="none" stroke-width="1" fill="none" fill-rule="evenodd" sketch:type="MSPage">
        <g id="watermark" sketch:type="MSLayerGroup" transform="translate(-25.000000, -21.000000)">
            <g id="Rectangle-8">
                <use sketch:type="MSShapeGroup" xlink:href="#path-1"></use>
                <use xlink:href="#path-1"></use>
                <use xlink:href="#path-1"></use>
                <use xlink:href="#path-1"></use>
                <use xlink:href="#path-1"></use>
                <use xlink:href="#path-1"></use>
                <use xlink:href="#path-1"></use>
            </g>
            <g id="Shape">
                <use fill="#DBDFE1" fill-rule="evenodd" sketch:type="MSShapeGroup" xlink:href="#path-2"></use>
                <use fill="none" xlink:href="#path-2"></use>
                <use fill="none" xlink:href="#path-2"></use>
            </g>
            <g id="Shape">
                <use fill="#DBDFE1" fill-rule="evenodd" sketch:type="MSShapeGroup" xlink:href="#path-3"></use>
                <use fill="none" xlink:href="#path-3"></use>
                <use fill="none" xlink:href="#path-3"></use>
            </g>
            <g id="Shape">
                <use fill="#DBDFE1" fill-rule="evenodd" sketch:type="MSShapeGroup" xlink:href="#path-4"></use>
                <use fill="none" xlink:href="#path-4"></use>
                <use fill="none" xlink:href="#path-4"></use>
            </g>
            <g id="Shape">
                <use fill="#DBDFE1" fill-rule="evenodd" sketch:type="MSShapeGroup" xlink:href="#path-5"></use>
                <use fill="none" xlink:href="#path-5"></use>
                <use fill="none" xlink:href="#path-5"></use>
            </g>
            <g id="Shape">
                <use fill="#DBDFE1" fill-rule="evenodd" sketch:type="MSShapeGroup" xlink:href="#path-6"></use>
                <use fill="none" xlink:href="#path-6"></use>
                <use fill="none" xlink:href="#path-6"></use>
            </g>
            <g id="Shape">
                <use fill="#DBDFE1" fill-rule="evenodd" sketch:type="MSShapeGroup" xlink:href="#path-7"></use>
                <use fill="none" xlink:href="#path-7"></use>
                <use fill="none" xlink:href="#path-7"></use>
            </g>
            <g id="Shape">
                <use fill="#DBDFE1" fill-rule="evenodd" sketch:type="MSShapeGroup" xlink:href="#path-8"></use>
                <use fill="none" xlink:href="#path-8"></use>
                <use fill="none" xlink:href="#path-8"></use>
            </g>
            <g id="Shape">
                <use fill="#DBDFE1" fill-rule="evenodd" sketch:type="MSShapeGroup" xlink:href="#path-9"></use>
                <use fill="none" xlink:href="#path-9"></use>
                <use fill="none" xlink:href="#path-9"></use>
            </g>
            <g id="Shape">
                <use fill="#DBDFE1" fill-rule="evenodd" sketch:type="MSShapeGroup" xlink:href="#path-10"></use>
                <use fill="none" xlink:href="#path-10"></use>
                <use fill="none" xlink:href="#path-10"></use>
            </g>
            <g id="Shape">
                <use fill="#DBDFE1" fill-rule="evenodd" sketch:type="MSShapeGroup" xlink:href="#path-11"></use>
                <use fill="none" xlink:href="#path-11"></use>
                <use fill="none" xlink:href="#path-11"></use>
            </g>
            <g id="Shape">
                <use fill="#DBDFE1" fill-rule="evenodd" sketch:type="MSShapeGroup" xlink:href="#path-12"></use>
                <use fill="none" xlink:href="#path-12"></use>
                <use fill="none" xlink:href="#path-12"></use>
            </g>
            <g id="Shape">
                <use fill="#DBDFE1" fill-rule="evenodd" sketch:type="MSShapeGroup" xlink:href="#path-13"></use>
                <use fill="none" xlink:href="#path-13"></use>
                <use fill="none" xlink:href="#path-13"></use>
            </g>
            <g id="Shape">
                <use fill="#DBDFE1" fill-rule="evenodd" sketch:type="MSShapeGroup" xlink:href="#path-14"></use>
                <use fill="none" xlink:href="#path-14"></use>
                <use fill="none" xlink:href="#path-14"></use>
            </g>
            <g id="Rectangle-1">
                <use fill="#DBDFE1" fill-rule="evenodd" sketch:type="MSShapeGroup" xlink:href="#path-15"></use>
                <use fill="none" xlink:href="#path-15"></use>
                <use fill="none" xlink:href="#path-15"></use>
                <use fill="none" xlink:href="#path-15"></use>
                <use fill="none" xlink:href="#path-15"></use>
                <use fill="none" xlink:href="#path-15"></use>
                <use fill="none" xlink:href="#path-15"></use>
            </g>
        </g>
    </g>
</svg>
