<svg width="226px" height="96px" viewBox="0 0 226 96" version="1.1" xmlns="http://www.w3.org/2000/svg" xmlns:xlink="http://www.w3.org/1999/xlink" xmlns:sketch="http://www.bohemiancoding.com/sketch/ns">
    <g id="Page-1" stroke="none" stroke-width="1" fill="none" fill-rule="evenodd" sketch:type="MSPage">
        <g sketch:type="MSLayerGroup" transform="translate(0.000000, -1.000000)">
            <g transform="translate(78.000000, 41.000000)" fill="#fff" sketch:type="MSShapeGroup">
                <g id="Group">
                    <path d="M29.5,9.3 L31.2,9.7 C30.9,11.1 30.2,12.1 29.3,12.8 C28.4,13.5 27.3,13.9 26,13.9 C24.6,13.9 23.6,13.6 22.7,13.1 C21.9,12.6 21.2,11.8 20.8,10.7 C20.4,9.7 20.1,8.5 20.1,7.3 C20.1,6 20.3,4.9 20.8,3.9 C21.3,2.9 22,2.2 22.9,1.7 C23.8,1.2 24.8,0.9 25.9,0.9 C27.2,0.9 28.2,1.2 29.1,1.9 C30,2.5 30.6,3.4 30.9,4.6 L29.3,5 C29,4.1 28.6,3.4 28,3 C27.4,2.6 26.8,2.4 25.9,2.4 C24.9,2.4 24.1,2.6 23.5,3.1 C22.9,3.6 22.4,4.2 22.1,5 C21.8,5.8 21.7,6.6 21.7,7.4 C21.7,8.5 21.9,9.4 22.2,10.2 C22.5,11 23,11.6 23.6,12 C24.3,12.4 25,12.6 25.7,12.6 C26.6,12.6 27.4,12.3 28.1,11.8 C28.9,11.1 29.3,10.3 29.5,9.3 L29.5,9.3 Z" id="Shape"></path>
                    <path d="M33.5,13.7 L33.5,1.2 L35.2,1.2 L35.2,13.7 L33.5,13.7 L33.5,13.7 Z" id="Shape"></path>
                    <path d="M41.3,13.7 L41.3,2.6 L37.2,2.6 L37.2,1.1 L47.1,1.1 L47.1,2.6 L43,2.6 L43,13.7 L41.3,13.7 L41.3,13.7 Z" id="Shape"></path>
                    <path d="M52.3,13.7 L52.3,8.4 L47.5,1.2 L49.5,1.2 L52,5 C52.5,5.7 52.9,6.4 53.3,7.1 C53.7,6.4 54.1,5.7 54.7,4.9 L57.1,1.2 L59,1.2 L54,8.4 L54,13.7 L52.3,13.7 L52.3,13.7 Z" id="Shape"></path>
                    <path d="M23.7,30.1 L26.2,30.9 C25.8,32.3 25.2,33.3 24.3,33.9 C23.4,34.6 22.3,34.9 21,34.9 C19.3,34.9 18,34.3 16.9,33.2 C15.8,32.1 15.3,30.5 15.3,28.5 C15.3,26.4 15.8,24.8 16.9,23.6 C18,22.4 19.4,21.9 21.1,21.9 C22.6,21.9 23.9,22.4 24.8,23.3 C25.4,23.8 25.8,24.6 26.1,25.6 L23.6,26.2 C23.5,25.5 23.1,25 22.7,24.7 C22.2,24.3 21.7,24.1 21,24.1 C20.1,24.1 19.3,24.4 18.7,25.1 C18.1,25.8 17.8,26.8 17.8,28.3 C17.8,29.9 18.1,31 18.7,31.7 C19.3,32.4 20,32.7 20.9,32.7 C21.6,32.7 22.2,32.5 22.6,32.1 C23.1,31.7 23.5,31 23.7,30.1 L23.7,30.1 Z" id="Shape"></path>
                    <path d="M28.3,34.7 L28.3,22.2 L30.8,22.2 L30.8,27.1 L35.8,27.1 L35.8,22.2 L38.3,22.2 L38.3,34.7 L35.8,34.7 L35.8,29.2 L30.8,29.2 L30.8,34.7 L28.3,34.7 L28.3,34.7 Z" id="Shape"></path>
                    <path d="M40.9,34.7 L40.9,22.2 L43.4,22.2 L43.4,34.7 L40.9,34.7 L40.9,34.7 Z" id="Shape"></path>
                    <path d="M45.8,34.7 L45.8,22.2 L51.1,22.2 C52.4,22.2 53.4,22.3 54,22.5 C54.6,22.7 55.1,23.1 55.5,23.7 C55.9,24.3 56,24.9 56,25.7 C56,26.6 55.7,27.4 55.2,28 C54.6,28.6 53.8,29 52.7,29.2 C53.2,29.5 53.7,29.9 54.1,30.3 C54.5,30.7 54.9,31.4 55.5,32.3 L57,34.7 L54,34.7 L52.2,32 C51.5,31 51.1,30.4 50.9,30.2 C50.7,29.9 50.4,29.8 50.1,29.7 C49.8,29.6 49.4,29.6 48.8,29.6 L48.3,29.6 L48.3,34.8 L45.8,34.8 L45.8,34.7 Z M48.3,27.5 L50.2,27.5 C51.4,27.5 52.2,27.4 52.5,27.3 C52.8,27.2 53,27 53.2,26.8 C53.4,26.6 53.5,26.2 53.5,25.9 C53.5,25.5 53.4,25.1 53.2,24.9 C53,24.6 52.7,24.5 52.2,24.4 L50.4,24.4 L48.4,24.4 L48.4,27.5 L48.3,27.5 Z" id="Shape"></path>
                    <path d="M57.9,28.5 C57.9,27.2 58.1,26.2 58.5,25.3 C58.8,24.7 59.2,24.1 59.7,23.6 C60.2,23.1 60.7,22.7 61.3,22.5 C62.1,22.2 63,22 64,22 C65.8,22 67.3,22.6 68.4,23.7 C69.5,24.8 70.1,26.4 70.1,28.5 C70.1,30.5 69.6,32.1 68.4,33.2 C67.3,34.3 65.8,34.9 64,34.9 C62.1,34.9 60.7,34.3 59.6,33.2 C58.5,32.1 57.9,30.5 57.9,28.5 L57.9,28.5 Z M60.5,28.4 C60.5,29.8 60.8,30.9 61.5,31.6 C62.2,32.3 63,32.7 64,32.7 C65,32.7 65.8,32.3 66.5,31.6 C67.1,30.9 67.5,29.8 67.5,28.3 C67.5,26.9 67.2,25.8 66.6,25.1 C66,24.4 65.1,24 64.1,24 C63.1,24 62.2,24.4 61.6,25.1 C60.9,25.9 60.5,27 60.5,28.4 L60.5,28.4 Z" id="Shape"></path>
                    <path d="M72.1,34.7 L72.1,22.2 L76.2,22.2 C77.7,22.2 78.7,22.3 79.2,22.4 C79.9,22.6 80.5,23 81,23.6 C81.5,24.2 81.7,25 81.7,26 C81.7,26.8 81.6,27.4 81.3,27.9 C81,28.4 80.7,28.8 80.2,29.1 C79.8,29.4 79.3,29.6 78.9,29.7 C78.3,29.8 77.4,29.9 76.3,29.9 L74.6,29.9 L74.6,34.6 L72.1,34.6 L72.1,34.7 Z M74.6,24.3 L74.6,27.9 L76,27.9 C77,27.9 77.7,27.8 78,27.7 C78.3,27.6 78.6,27.4 78.8,27.1 C79,26.8 79.1,26.5 79.1,26.1 C79.1,25.6 79,25.3 78.7,25 C78.4,24.7 78.1,24.5 77.7,24.4 C77.4,24.3 76.8,24.3 75.9,24.3 L74.6,24.3 L74.6,24.3 Z" id="Shape"></path>
                    <path d="M83.8,34.7 L83.8,22.2 L89.1,22.2 C90.4,22.2 91.4,22.3 92,22.5 C92.6,22.7 93.1,23.1 93.5,23.7 C93.9,24.3 94,24.9 94,25.7 C94,26.6 93.7,27.4 93.2,28 C92.6,28.6 91.8,29 90.7,29.2 C91.2,29.5 91.7,29.9 92.1,30.3 C92.5,30.7 92.9,31.4 93.5,32.3 L95,34.7 L92,34.7 L90.2,32 C89.5,31 89.1,30.4 88.9,30.2 C88.7,29.9 88.4,29.8 88.1,29.7 C87.8,29.6 87.4,29.6 86.8,29.6 L86.3,29.6 L86.3,34.8 L83.8,34.8 L83.8,34.7 Z M86.3,27.5 L88.2,27.5 C89.4,27.5 90.2,27.4 90.5,27.3 C90.8,27.2 91,27 91.2,26.8 C91.4,26.5 91.5,26.2 91.5,25.9 C91.5,25.5 91.4,25.1 91.2,24.9 C91,24.6 90.7,24.5 90.2,24.4 L88.4,24.4 L86.4,24.4 L86.4,27.5 L86.3,27.5 Z" id="Shape"></path>
                    <path d="M107.7,34.7 L104.9,34.7 L103.8,31.9 L98.8,31.9 L97.8,34.7 L95.1,34.7 L100,22.2 L102.7,22.2 L107.7,34.7 L107.7,34.7 Z M103,29.7 L101.3,25 L99.6,29.7 L103,29.7 L103,29.7 Z" id="Shape"></path>
                    <path d="M117.1,30.1 L119.6,30.9 C119.2,32.3 118.6,33.3 117.7,33.9 C116.8,34.6 115.7,34.9 114.4,34.9 C112.7,34.9 111.4,34.3 110.3,33.2 C109.2,32.1 108.7,30.5 108.7,28.5 C108.7,26.4 109.2,24.8 110.3,23.6 C111.4,22.4 112.8,21.9 114.5,21.9 C116,21.9 117.3,22.4 118.2,23.3 C118.8,23.8 119.2,24.6 119.5,25.6 L117,26.2 C116.9,25.5 116.5,25 116.1,24.7 C115.6,24.3 115.1,24.1 114.4,24.1 C113.5,24.1 112.7,24.4 112.1,25.1 C111.5,25.8 111.2,26.8 111.2,28.3 C111.2,29.9 111.5,31 112.1,31.7 C112.7,32.4 113.4,32.7 114.3,32.7 C115,32.7 115.6,32.5 116,32.1 C116.5,31.7 116.8,31 117.1,30.1 L117.1,30.1 Z" id="Shape"></path>
                    <path d="M124.5,34.7 L124.5,24.3 L120.8,24.3 L120.8,22.2 L130.8,22.2 L130.8,24.3 L127,24.3 L127,34.7 L124.5,34.7 L124.5,34.7 Z" id="Shape"></path>
                    <path d="M132.3,34.7 L132.3,22.2 L134.8,22.2 L134.8,34.7 L132.3,34.7 L132.3,34.7 Z" id="Shape"></path>
                    <path d="M145.3,30.1 L147.8,30.9 C147.4,32.3 146.8,33.3 145.9,33.9 C145,34.6 143.9,34.9 142.6,34.9 C140.9,34.9 139.6,34.3 138.5,33.2 C137.4,32.1 136.9,30.5 136.9,28.5 C136.9,26.4 137.4,24.8 138.5,23.6 C139.6,22.4 141,21.9 142.7,21.9 C144.2,21.9 145.5,22.4 146.4,23.3 C147,23.8 147.4,24.6 147.7,25.6 L145.2,26.2 C145.1,25.5 144.7,25 144.3,24.7 C143.8,24.3 143.3,24.1 142.6,24.1 C141.7,24.1 140.9,24.4 140.3,25.1 C139.7,25.8 139.4,26.8 139.4,28.3 C139.4,29.9 139.7,31 140.3,31.7 C140.9,32.4 141.6,32.7 142.5,32.7 C143.2,32.7 143.8,32.5 144.2,32.1 C144.7,31.7 145.1,31 145.3,30.1 L145.3,30.1 Z" id="Shape"></path>
                    <path d="M10.1,51.3 L11.8,51.7 C11.5,53.1 10.8,54.1 9.9,54.8 C9,55.5 7.9,55.9 6.6,55.9 C5.2,55.9 4.2,55.6 3.3,55.1 C2.5,54.6 1.8,53.8 1.4,52.7 C1,51.7 0.7,50.5 0.7,49.3 C0.7,48 0.9,46.9 1.4,45.9 C1.9,44.9 2.6,44.2 3.5,43.7 C4.4,43.2 5.4,42.9 6.5,42.9 C7.8,42.9 8.8,43.2 9.7,43.9 C10.6,44.5 11.2,45.4 11.5,46.6 L9.9,47 C9.6,46.1 9.2,45.4 8.6,45 C8,44.6 7.4,44.4 6.5,44.4 C5.5,44.4 4.7,44.6 4.1,45.1 C3.5,45.6 3,46.2 2.7,47 C2.4,47.8 2.3,48.6 2.3,49.4 C2.3,50.5 2.5,51.4 2.8,52.2 C3.1,53 3.6,53.6 4.2,54 C4.9,54.4 5.6,54.6 6.3,54.6 C7.2,54.6 8,54.3 8.7,53.8 C9.4,53.2 9.8,52.4 10.1,51.3 L10.1,51.3 Z" id="Shape"></path>
                    <path d="M12.4,55.7 L17.2,43.2 L19,43.2 L24.1,55.7 L22.2,55.7 L20.7,51.9 L15.5,51.9 L14.1,55.7 L12.4,55.7 L12.4,55.7 Z M16,50.6 L20.2,50.6 L18.9,47.1 C18.5,46 18.2,45.2 18,44.5 C17.8,45.3 17.6,46.1 17.3,46.9 L16,50.6 L16,50.6 Z" id="Shape"></path>
                    <path d="M25.5,55.7 L25.5,43.2 L31.1,43.2 C32.2,43.2 33.1,43.3 33.6,43.5 C34.2,43.7 34.6,44.1 35,44.7 C35.3,45.3 35.5,45.9 35.5,46.6 C35.5,47.5 35.2,48.2 34.6,48.8 C34,49.4 33.1,49.8 31.9,50 C32.3,50.2 32.7,50.4 32.9,50.6 C33.4,51 33.8,51.6 34.3,52.3 L36.5,55.7 L34.4,55.7 L32.7,53.1 C32.2,52.3 31.8,51.8 31.5,51.4 C31.2,51 30.9,50.7 30.7,50.6 C30.5,50.4 30.2,50.3 29.9,50.3 C29.7,50.3 29.4,50.2 29,50.2 L27.1,50.2 L27.1,55.8 L25.5,55.8 L25.5,55.7 Z M27.1,48.7 L30.7,48.7 C31.5,48.7 32.1,48.6 32.5,48.5 C32.9,48.3 33.3,48.1 33.5,47.7 C33.7,47.4 33.8,47 33.8,46.6 C33.8,46 33.6,45.5 33.2,45.1 C32.8,44.7 32.1,44.5 31.2,44.5 L27.2,44.5 L27.2,48.7 L27.1,48.7 Z" id="Shape"></path>
                    <path d="M38.1,55.7 L38.1,43.2 L47.2,43.2 L47.2,44.7 L39.8,44.7 L39.8,48.5 L46.7,48.5 L46.7,50 L39.8,50 L39.8,54.3 L47.5,54.3 L47.5,55.8 L38.1,55.8 L38.1,55.7 Z" id="Shape"></path>
                </g>
            </g>
            <g id="logo-watermark" fill="#fff" sketch:type="MSShapeGroup">
                <g id="Group">
                    <path id="Shape" d="M47.042,47.701 L47.006,47.701 L47.006,48.451 L47.042,48.451"></path>
                    <path d="M47.235,14.646 L47.61,14.646 C47.61,14.256 47.587,13.867 47.575,13.5 L47.562,13.137 L47.2,13.137 C41.007,13.137 35.214,14.82 30.229,17.733 L29.674,18.057 L30.23,18.381 C35.452,21.421 39.767,25.832 42.651,31.148 L42.975,31.745 L43.308,31.153 C46.051,26.276 47.612,20.642 47.612,14.646 L47.235,14.646 L46.86,14.646 C46.86,20.512 45.335,26.018 42.653,30.786 L42.98,30.97 L43.31,30.791 C40.359,25.353 35.946,20.842 30.607,17.733 L30.419,18.057 L30.608,18.381 C35.484,15.532 41.145,13.887 47.201,13.887 L47.201,13.512 L46.826,13.524 C46.838,13.905 46.861,14.287 46.861,14.645 L47.235,14.645 L47.235,14.646 Z" id="Shape"></path>
                    <path d="M30.417,43.652 L30.604,43.327 C25.419,40.347 21.126,35.995 18.194,30.774 L17.862,30.183 L17.538,30.778 C14.916,35.581 13.429,41.081 13.429,46.944 C13.429,47.334 13.453,47.723 13.465,48.09 L13.477,48.452 L13.84,48.452 C19.947,48.452 25.667,46.818 30.604,43.978 L31.169,43.653 L30.604,43.328 L30.417,43.652 L30.23,43.327 C25.402,46.104 19.813,47.701 13.84,47.701 L13.84,48.076 L14.215,48.064 C14.202,47.683 14.179,47.301 14.179,46.943 C14.179,41.208 15.633,35.834 18.196,31.137 L17.867,30.957 L17.54,31.141 C20.539,36.48 24.927,40.929 30.23,43.977 L30.417,43.652 L30.23,43.327 L30.417,43.652 L30.417,43.652 Z" id="Shape"></path>
                    <path d="M42.979,30.969 L42.652,30.786 C39.732,36.007 35.428,40.346 30.231,43.327 L29.664,43.652 L30.231,43.977 C35.179,46.817 40.899,48.451 47.006,48.451 L47.369,48.451 L47.381,48.089 C47.393,47.723 47.417,47.333 47.417,46.943 C47.417,41.092 45.93,35.592 43.308,30.79 L42.983,30.194 L42.652,30.786 L42.979,30.969 L42.65,31.149 C45.213,35.845 46.667,41.22 46.667,46.943 C46.667,47.301 46.644,47.683 46.631,48.064 L47.006,48.076 L47.006,47.701 C41.033,47.701 35.444,46.104 30.604,43.327 L30.417,43.652 L30.604,43.977 C35.919,40.929 40.32,36.492 43.307,31.152 L42.979,30.969 L42.65,31.149 L42.979,30.969 L42.979,30.969 Z" id="Shape"></path>
                    <path d="M42.316,64.05 L41.994,63.859 C39.134,68.673 35.068,72.679 30.24,75.505 L29.687,75.828 L30.241,76.151 C35.226,79.065 41.019,80.736 47.199,80.748 L47.588,80.749 L47.575,80.36 C47.367,74.327 45.599,68.694 42.637,63.854 L42.312,63.323 L41.995,63.858 L42.316,64.05 L41.996,64.245 C44.892,68.977 46.621,74.483 46.824,80.386 L47.199,80.373 L47.199,79.998 C41.154,79.986 35.494,78.353 30.618,75.505 L30.429,75.828 L30.618,76.151 C35.555,73.262 39.711,69.167 42.638,64.241 L42.316,64.05 L41.996,64.245 L42.316,64.05 L42.316,64.05 Z" id="Shape"></path>
                    <path d="M42.316,64.05 L42.638,64.243 C45.479,59.499 47.186,53.987 47.381,48.088 L47.394,47.7 L47.005,47.7 C40.899,47.713 35.179,49.346 30.231,52.175 L29.663,52.5 L30.231,52.826 C35.047,55.592 39.101,59.526 41.997,64.247 L42.321,64.774 L42.639,64.244 L42.316,64.05 L42.636,63.854 C39.674,59.026 35.529,55.003 30.604,52.175 L30.417,52.5 L30.603,52.825 C35.444,50.059 41.033,48.463 47.007,48.45 L47.006,48.075 L46.631,48.063 C46.441,53.833 44.772,59.219 41.994,63.856 L42.316,64.05 L42.636,63.854 L42.316,64.05 L42.316,64.05 Z" id="Shape"></path>
                    <path d="M13.841,48.076 L13.466,48.089 C13.661,53.988 15.368,59.5 18.209,64.255 L18.526,64.787 L18.85,64.259 C21.746,59.538 25.8,55.592 30.604,52.826 L31.17,52.5 L30.604,52.176 C25.667,49.348 19.948,47.714 13.842,47.701 L13.453,47.701 L13.466,48.089 L13.841,48.076 L13.84,48.451 C19.814,48.464 25.403,50.06 30.231,52.826 L30.418,52.501 L30.231,52.176 C25.318,55.004 21.174,59.039 18.211,63.866 L18.531,64.062 L18.853,63.87 C16.076,59.221 14.407,53.834 14.216,48.064 L13.841,48.076 L13.84,48.451 L13.841,48.076 L13.841,48.076 Z" id="Shape"></path>
                    <path d="M51.696,30.619 L51.37,30.435 C48.626,35.312 47.065,40.946 47.065,46.943 C47.065,47.325 47.077,47.703 47.089,48.076 L47.102,48.443 L47.469,48.439 C53.588,48.366 59.319,46.66 64.244,43.746 L64.789,43.424 L64.245,43.1 C59.118,40.06 54.874,35.684 52.026,30.44 L51.702,29.844 L51.37,30.435 L51.696,30.619 L51.366,30.798 C54.281,36.163 58.62,40.636 63.862,43.745 L64.053,43.422 L63.862,43.1 C59.046,45.949 53.445,47.617 47.46,47.689 L47.465,48.064 L47.84,48.052 C47.827,47.679 47.816,47.309 47.816,46.943 C47.816,41.077 49.341,35.571 52.023,30.803 L51.696,30.619 L51.366,30.798 L51.696,30.619 L51.696,30.619 Z" id="Shape"></path>
                    <path d="M47.042,48.076 L47.042,48.451 C47.164,48.451 47.297,48.463 47.464,48.464 L47.839,48.464 L47.839,48.065 L47.839,47.657 L47.432,47.692 C47.307,47.702 47.188,47.702 47.042,47.702 L47.042,48.452 L47.042,48.076 L47.042,48.451 C47.186,48.451 47.332,48.452 47.496,48.437 L47.464,48.064 L47.089,48.064 L47.089,48.088 L47.464,48.088 L47.464,47.713 C47.342,47.714 47.209,47.701 47.042,47.7 L47.042,48.45 L47.042,48.076 L47.042,48.076 Z" id="Shape"></path>
                    <path d="M52.359,64.388 L52.038,64.195 C49.197,68.951 47.503,74.463 47.308,80.349 L47.294,80.742 L47.688,80.737 C53.72,80.652 59.367,78.994 64.244,76.153 L64.8,75.829 L64.243,75.505 C59.512,72.752 55.529,68.854 52.68,64.193 L52.357,63.664 L52.04,64.196 L52.359,64.388 L52.04,64.583 C54.953,69.351 59.024,73.336 63.865,76.152 L64.053,75.828 L63.864,75.504 C59.096,78.282 53.579,79.903 47.676,79.986 L47.682,80.361 L48.057,80.374 C48.246,74.614 49.904,69.228 52.68,64.579 L52.359,64.388 L52.04,64.583 L52.359,64.388 L52.359,64.388 Z" id="Shape"></path>
                    <path d="M64.053,52.73 L63.862,53.052 C68.618,55.877 72.6,59.847 75.425,64.591 L75.742,65.124 L76.066,64.596 C79.029,59.768 80.808,54.134 81.016,48.101 L81.029,47.708 L80.636,47.713 C74.517,47.798 68.786,49.492 63.861,52.406 L63.317,52.728 L63.861,53.051 L64.053,52.73 L64.244,53.052 C69.059,50.203 74.66,48.546 80.646,48.463 L80.641,48.088 L80.266,48.075 C80.064,53.976 78.324,59.482 75.427,64.203 L75.746,64.399 L76.068,64.208 C73.178,59.354 69.106,55.296 64.243,52.407 L64.053,52.73 L64.244,53.052 L64.053,52.73 L64.053,52.73 Z" id="Shape"></path>
                    <path d="M64.053,52.73 L64.244,52.407 C59.318,49.493 53.588,47.799 47.469,47.714 L47.076,47.709 L47.089,48.102 C47.297,54.135 49.076,59.757 52.039,64.584 L52.363,65.112 L52.679,64.58 C55.505,59.849 59.499,55.878 64.243,53.053 L64.786,52.729 L64.243,52.408 L64.053,52.73 L63.862,52.408 C59.01,55.297 54.926,59.355 52.038,64.195 L52.359,64.388 L52.678,64.191 C49.782,59.471 48.041,53.977 47.839,48.076 L47.464,48.089 L47.459,48.464 C53.445,48.547 59.046,50.204 63.861,53.053 L64.053,52.73 L63.862,52.408 L64.053,52.73 L64.053,52.73 Z" id="Shape"></path>
                    <path d="M80.642,48.064 L81.017,48.076 C81.029,47.703 81.041,47.326 81.041,46.943 C81.041,40.934 79.468,35.3 76.725,30.423 L76.393,29.832 L76.069,30.428 C73.22,35.673 68.988,40.06 63.862,43.1 L63.317,43.423 L63.862,43.745 C68.788,46.659 74.518,48.365 80.637,48.438 L81.005,48.442 L81.017,48.075 L80.642,48.064 L80.647,47.689 C74.662,47.617 69.061,45.949 64.245,43.1 L64.054,43.423 L64.245,43.746 C69.487,40.637 73.814,36.151 76.728,30.787 L76.399,30.608 L76.072,30.792 C78.754,35.56 80.292,41.065 80.292,46.943 C80.292,47.308 80.279,47.678 80.268,48.052 L80.642,48.064 L80.647,47.689 L80.642,48.064 L80.642,48.064 Z" id="Shape"></path>
                    <path d="M51.696,30.619 L52.023,30.802 C54.907,25.641 59.151,21.349 64.254,18.381 L64.809,18.058 L64.254,17.733 C59.378,14.88 53.719,13.222 47.686,13.149 L47.319,13.145 L47.307,13.512 C47.295,13.869 47.258,14.247 47.258,14.645 C47.258,20.495 48.745,25.996 51.366,30.798 L51.691,31.394 L52.022,30.802 L51.696,30.619 L52.025,30.439 C49.463,25.743 48.008,20.368 48.008,14.645 C48.008,14.295 48.043,13.926 48.057,13.536 L47.682,13.524 L47.677,13.899 C53.578,13.971 59.108,15.591 63.875,18.38 L64.064,18.056 L63.876,17.732 C58.657,20.768 54.317,25.156 51.367,30.435 L51.696,30.619 L52.025,30.439 L51.696,30.619 L51.696,30.619 Z" id="Shape"></path>
                    <path d="M80.663,46.937 L80.163,46.937 C80.162,56.031 76.477,64.259 70.519,70.218 C64.559,76.177 56.331,79.861 47.239,79.861 C38.145,79.861 29.917,76.177 23.957,70.218 C17.999,64.259 14.314,56.03 14.314,46.937 C14.314,37.844 17.999,29.617 23.957,23.658 C29.917,17.7 38.145,14.015 47.239,14.015 C56.332,14.015 64.559,17.699 70.519,23.658 C76.477,29.617 80.162,37.844 80.163,46.937 L80.663,46.937 L81.163,46.937 C81.162,28.203 65.975,13.016 47.239,13.016 C28.502,13.016 13.315,28.203 13.314,46.937 C13.314,65.673 28.502,80.861 47.239,80.861 C65.974,80.861 81.162,65.673 81.163,46.937 L80.663,46.937 L80.663,46.937 Z" id="Shape"></path>
                    <path d="M80.683,22.453 C86.108,29.564 89.33,38.443 89.33,48.078 C89.33,59.76 84.597,70.33 76.942,77.984 C69.287,85.638 58.716,90.371 47.037,90.371 C29.803,90.371 14.978,80.065 8.387,65.278 L7.702,65.584 C14.41,80.632 29.499,91.12 47.038,91.121 C70.809,91.12 90.081,71.851 90.081,48.078 C90.081,38.275 86.802,29.234 81.28,21.998 L80.683,22.453 L80.683,22.453 Z" id="Shape"></path>
                    <path d="M5.324,57.123 L2.466,57.85 C2.332,57.883 2.213,57.928 2.108,57.987 C2.003,58.044 1.92,58.124 1.86,58.225 C1.81,58.309 1.774,58.42 1.751,58.561 C1.729,58.702 1.745,58.881 1.801,59.102 C1.865,59.354 2,59.633 2.204,59.938 L2.364,60.145 L2.568,60.364 L2.788,60.571 L2.996,60.743 L6.048,59.968 L6.173,60.462 L0.606,61.876 L0.479,61.38 L2.421,60.888 C2.301,60.775 2.189,60.663 2.085,60.554 C1.981,60.443 1.885,60.327 1.798,60.206 C1.57,59.888 1.411,59.554 1.323,59.206 C1.196,58.704 1.235,58.288 1.44,57.956 C1.534,57.804 1.651,57.681 1.792,57.585 C1.933,57.487 2.113,57.411 2.333,57.355 L5.199,56.628 L5.324,57.123 L5.324,57.123 Z" id="Shape"></path>
                    <path d="M4.564,52.242 L4.366,52.435 L4.195,52.552 C4.309,52.661 4.407,52.781 4.489,52.911 C4.571,53.041 4.64,53.173 4.695,53.306 C4.75,53.437 4.793,53.564 4.824,53.683 C4.855,53.804 4.877,53.91 4.889,54.003 C4.935,54.35 4.939,54.646 4.9,54.892 C4.861,55.139 4.792,55.343 4.694,55.505 C4.596,55.667 4.476,55.79 4.333,55.874 C4.19,55.958 4.038,56.011 3.877,56.032 C3.574,56.071 3.313,56.028 3.091,55.901 C2.87,55.774 2.678,55.575 2.515,55.303 C2.352,55.031 2.207,54.696 2.082,54.294 C1.957,53.892 1.837,53.44 1.725,52.932 L1.703,52.936 C1.542,52.957 1.404,52.995 1.289,53.047 C1.174,53.099 1.083,53.18 1.016,53.288 C0.948,53.396 0.905,53.537 0.886,53.708 C0.866,53.88 0.874,54.093 0.908,54.347 C0.934,54.547 0.973,54.723 1.023,54.875 C1.073,55.028 1.115,55.137 1.148,55.202 L1.208,55.313 L0.695,55.433 L0.639,55.292 C0.608,55.206 0.57,55.082 0.526,54.919 C0.482,54.756 0.448,54.583 0.423,54.403 C0.341,53.788 0.401,53.322 0.602,53.007 C0.803,52.692 1.136,52.503 1.601,52.441 L3.652,52.168 L3.86,52.133 L3.995,52.085 L4.107,52 L4.244,51.851 L4.477,51.589 L4.564,52.242 L4.564,52.242 Z M2.216,52.869 C2.327,53.366 2.439,53.789 2.549,54.137 C2.66,54.485 2.778,54.766 2.901,54.981 C3.024,55.196 3.158,55.348 3.304,55.434 C3.45,55.522 3.616,55.553 3.802,55.528 L4.041,55.448 C4.127,55.405 4.204,55.329 4.271,55.219 C4.339,55.112 4.388,54.965 4.417,54.78 C4.446,54.595 4.442,54.352 4.402,54.053 C4.391,53.975 4.371,53.877 4.34,53.76 C4.31,53.643 4.263,53.52 4.201,53.391 C4.139,53.262 4.06,53.137 3.965,53.016 C3.87,52.895 3.75,52.786 3.608,52.69 L2.216,52.869 L2.216,52.869 Z" id="Shape"></path>
                    <path d="M0.918,47.884 C0.798,48.001 0.716,48.091 0.671,48.152 L0.569,48.317 L0.506,48.537 C0.491,48.619 0.485,48.715 0.489,48.822 C0.492,48.936 0.51,49.058 0.541,49.191 C0.572,49.323 0.624,49.466 0.698,49.623 C0.835,49.885 1.008,50.136 1.217,50.376 L4.438,50.276 L4.454,50.793 L0.154,50.926 L0.138,50.409 L0.626,50.401 C0.554,50.31 0.49,50.219 0.433,50.13 C0.376,50.041 0.324,49.945 0.276,49.843 C0.202,49.693 0.139,49.533 0.088,49.367 C0.036,49.201 0.007,49.025 0.001,48.838 C-0.002,48.72 0.004,48.6 0.02,48.479 C0.036,48.358 0.069,48.24 0.12,48.125 L0.256,47.873 C0.311,47.795 0.395,47.689 0.509,47.558 L0.918,47.884 L0.918,47.884 Z" id="Shape"></path>
                    <path d="M4.895,40.978 L1.806,40.66 C1.694,40.648 1.588,40.648 1.49,40.66 C1.392,40.672 1.301,40.709 1.215,40.769 C1.151,40.817 1.091,40.889 1.037,40.985 C0.982,41.081 0.946,41.217 0.928,41.394 C0.906,41.604 0.938,41.846 1.024,42.117 C1.064,42.255 1.121,42.402 1.194,42.558 C1.267,42.714 1.361,42.878 1.478,43.048 L4.647,43.375 L4.595,43.882 L1.411,43.554 C1.288,43.541 1.186,43.547 1.105,43.571 L0.883,43.7 C0.817,43.763 0.762,43.84 0.718,43.932 C0.674,44.024 0.644,44.141 0.63,44.284 C0.62,44.382 0.622,44.496 0.636,44.626 C0.65,44.756 0.681,44.896 0.73,45.044 C0.77,45.187 0.828,45.336 0.903,45.489 C0.978,45.642 1.073,45.798 1.186,45.953 L4.348,46.279 L4.295,46.794 L0.015,46.353 L0.068,45.838 L0.589,45.899 C0.505,45.752 0.434,45.612 0.376,45.48 C0.318,45.348 0.271,45.22 0.233,45.097 C0.186,44.934 0.155,44.781 0.143,44.639 C0.131,44.496 0.131,44.362 0.144,44.234 C0.164,44.048 0.206,43.881 0.274,43.735 C0.341,43.588 0.424,43.463 0.524,43.36 L0.722,43.202 L0.937,43.098 C0.747,42.786 0.613,42.497 0.536,42.232 C0.445,41.916 0.413,41.617 0.442,41.338 C0.465,41.112 0.519,40.92 0.602,40.76 C0.685,40.6 0.791,40.47 0.921,40.369 C1.045,40.273 1.184,40.208 1.338,40.174 C1.493,40.141 1.653,40.132 1.82,40.15 L4.945,40.472 L4.895,40.978 L4.895,40.978 Z" id="Shape"></path>
                    <path d="M5.039,34.845 C5.275,35.005 5.469,35.205 5.62,35.446 C5.772,35.686 5.872,35.968 5.92,36.291 C5.969,36.614 5.941,36.977 5.837,37.377 C5.737,37.764 5.591,38.087 5.399,38.348 C5.207,38.609 4.985,38.81 4.735,38.952 C4.485,39.093 4.215,39.179 3.928,39.208 C3.64,39.238 3.353,39.216 3.067,39.142 C2.723,39.053 2.433,38.913 2.194,38.722 C1.956,38.531 1.773,38.305 1.644,38.045 C1.515,37.785 1.438,37.502 1.414,37.195 C1.39,36.888 1.418,36.575 1.501,36.255 C1.584,35.936 1.71,35.648 1.881,35.391 C2.052,35.135 2.257,34.926 2.498,34.765 C2.739,34.603 3.009,34.496 3.31,34.445 C3.611,34.393 3.933,34.411 4.277,34.501 C4.549,34.569 4.803,34.684 5.039,34.845 L5.039,34.845 Z M4.149,34.992 C3.887,34.924 3.638,34.909 3.404,34.948 C3.17,34.987 2.958,35.068 2.768,35.192 C2.578,35.316 2.416,35.479 2.282,35.681 C2.149,35.883 2.048,36.115 1.98,36.378 C1.912,36.64 1.887,36.894 1.905,37.137 C1.923,37.381 1.986,37.603 2.091,37.804 C2.197,38.004 2.343,38.179 2.529,38.325 C2.715,38.472 2.939,38.58 3.201,38.648 C3.421,38.705 3.642,38.723 3.867,38.702 C4.091,38.681 4.302,38.616 4.498,38.506 C4.694,38.396 4.869,38.238 5.022,38.031 C5.175,37.824 5.292,37.563 5.374,37.248 C5.453,36.943 5.476,36.664 5.442,36.41 C5.408,36.157 5.332,35.936 5.213,35.747 C5.094,35.559 4.942,35.401 4.759,35.274 C4.575,35.148 4.371,35.055 4.147,34.997 L4.149,34.992 L4.149,34.992 Z" id="Shape"></path>
                    <path d="M7.922,30.997 L5.18,29.911 C5.052,29.86 4.928,29.827 4.809,29.812 C4.691,29.797 4.577,29.813 4.468,29.86 C4.377,29.903 4.28,29.975 4.18,30.076 C4.079,30.177 3.987,30.332 3.904,30.543 C3.808,30.786 3.753,31.09 3.741,31.457 C3.737,31.535 3.739,31.622 3.749,31.719 C3.758,31.815 3.771,31.913 3.788,32.012 C3.804,32.111 3.824,32.209 3.847,32.305 C3.87,32.402 3.892,32.489 3.914,32.566 L6.842,33.726 L6.652,34.207 L2.652,32.623 L2.842,32.142 L2.937,32.184 L3.147,32.275 L3.37,32.376 C3.294,32.044 3.257,31.73 3.258,31.433 C3.259,31.041 3.325,30.681 3.456,30.35 C3.648,29.865 3.925,29.547 4.286,29.399 C4.451,29.332 4.618,29.3 4.788,29.304 C4.959,29.308 5.15,29.352 5.36,29.435 L8.109,30.524 L7.922,30.997 L7.922,30.997 Z" id="Shape"></path>
                    <path d="M10.124,28.223 C10.201,28.32 10.281,28.435 10.363,28.568 C10.446,28.701 10.509,28.858 10.553,29.037 C10.599,29.212 10.615,29.403 10.597,29.609 C10.579,29.815 10.509,30.035 10.384,30.27 C10.324,30.383 10.262,30.48 10.2,30.562 L10.014,30.777 L9.804,30.97 C9.731,31.023 9.625,31.091 9.487,31.174 L9.216,30.737 C9.335,30.672 9.427,30.616 9.493,30.57 L9.674,30.427 L9.819,30.257 L9.955,30.041 C10.122,29.728 10.163,29.434 10.079,29.161 C10.022,28.964 9.911,28.757 9.746,28.541 L9.213,27.874 L4.416,28.225 L4.697,27.696 L6.949,27.535 L8.837,27.399 C8.651,27.172 8.467,26.945 8.286,26.718 C8.105,26.491 7.925,26.268 7.745,26.05 L6.435,24.418 L6.691,23.935 L10.124,28.223 L10.124,28.223 Z" id="Shape"></path>
                    <path d="M11.472,25.625 L11.231,26.006 L10.082,24.919 L10.383,24.444 L11.472,25.625 Z" id="Shape"></path>
                    <path d="M14.645,18.27 C14.789,18.518 14.879,18.782 14.917,19.064 C14.955,19.346 14.93,19.638 14.84,19.942 C14.751,20.246 14.583,20.546 14.338,20.841 C14.168,21.046 13.995,21.207 13.82,21.324 C13.645,21.441 13.477,21.532 13.315,21.596 L13.119,21.658 L12.937,21.704 L13.277,21.977 L12.946,22.375 L8.53,18.704 L8.856,18.312 L10.283,19.498 C10.302,19.206 10.365,18.932 10.472,18.675 C10.58,18.418 10.723,18.182 10.903,17.966 C11.127,17.697 11.374,17.489 11.643,17.341 C11.913,17.194 12.189,17.108 12.473,17.084 C12.756,17.06 13.037,17.093 13.317,17.185 C13.597,17.277 13.858,17.423 14.1,17.625 C14.319,17.807 14.501,18.022 14.645,18.27 L14.645,18.27 Z M13.773,18.017 C13.587,17.863 13.388,17.748 13.174,17.673 C12.96,17.598 12.743,17.569 12.521,17.586 C12.298,17.603 12.081,17.669 11.867,17.783 C11.653,17.897 11.455,18.064 11.272,18.283 C11.089,18.503 10.954,18.741 10.866,18.998 C10.777,19.254 10.746,19.557 10.771,19.904 L12.459,21.308 L12.563,21.293 L12.682,21.272 L12.865,21.231 L13.067,21.168 C13.206,21.117 13.353,21.042 13.508,20.943 C13.663,20.845 13.817,20.705 13.968,20.523 C14.157,20.295 14.285,20.066 14.353,19.834 C14.421,19.602 14.442,19.376 14.417,19.156 C14.392,18.936 14.322,18.729 14.208,18.534 C14.094,18.34 13.948,18.169 13.77,18.021 L13.773,18.017 L13.773,18.017 Z" id="Shape"></path>
                    <path d="M18.735,16.142 C18.624,16.133 18.532,16.118 18.462,16.097 L18.267,16.027 C18.246,16.184 18.207,16.334 18.149,16.477 C18.091,16.62 18.025,16.753 17.951,16.875 C17.877,16.997 17.8,17.106 17.721,17.202 C17.642,17.298 17.569,17.378 17.501,17.442 C17.248,17.684 17.01,17.861 16.788,17.974 C16.566,18.087 16.36,18.152 16.172,18.168 C15.984,18.184 15.813,18.159 15.661,18.093 C15.509,18.027 15.377,17.935 15.265,17.817 C15.054,17.596 14.935,17.359 14.908,17.105 C14.881,16.852 14.929,16.579 15.053,16.288 C15.177,15.996 15.364,15.682 15.614,15.345 C15.864,15.008 16.161,14.644 16.506,14.255 L16.49,14.239 C16.378,14.121 16.267,14.031 16.157,13.969 C16.047,13.907 15.928,13.881 15.801,13.89 C15.674,13.899 15.535,13.947 15.384,14.032 C15.234,14.117 15.066,14.248 14.881,14.425 C14.735,14.565 14.615,14.699 14.521,14.829 C14.427,14.959 14.364,15.057 14.331,15.122 L14.276,15.236 L13.877,14.892 L13.958,14.764 C14.009,14.688 14.087,14.585 14.193,14.453 C14.299,14.322 14.418,14.193 14.55,14.067 C15,13.639 15.411,13.413 15.784,13.391 C16.158,13.369 16.506,13.527 16.829,13.866 L18.257,15.364 L18.408,15.511 L18.526,15.592 L18.661,15.632 L18.862,15.655 L19.212,15.69 L18.735,16.142 L18.735,16.142 Z M16.847,14.612 C16.51,14.994 16.234,15.333 16.017,15.628 C15.8,15.923 15.642,16.183 15.541,16.409 C15.44,16.635 15.396,16.832 15.412,17.002 C15.428,17.172 15.499,17.324 15.629,17.46 L15.835,17.606 C15.921,17.65 16.028,17.668 16.155,17.658 C16.282,17.648 16.43,17.602 16.597,17.517 C16.765,17.432 16.957,17.286 17.175,17.079 C17.232,17.025 17.299,16.951 17.376,16.856 C17.453,16.762 17.525,16.652 17.593,16.526 C17.661,16.401 17.716,16.263 17.757,16.114 C17.799,15.965 17.817,15.805 17.811,15.634 L16.847,14.612 L16.847,14.612 Z" id="Shape"></path>
                    <rect id="Rectangle-path" transform="translate(18.375653, 12.718117) rotate(50.852500) translate(-18.375653, -12.718117) " x="15.5037392" y="12.4631249" width="5.74382751" height="0.509984684"></rect>
                    <path d="M24.097,12.091 C23.989,12.064 23.901,12.035 23.834,12.003 L23.653,11.904 C23.608,12.055 23.545,12.197 23.466,12.329 C23.387,12.462 23.301,12.582 23.209,12.691 C23.116,12.8 23.023,12.895 22.931,12.978 C22.838,13.06 22.753,13.128 22.676,13.181 C22.388,13.38 22.125,13.517 21.888,13.595 C21.651,13.673 21.437,13.704 21.249,13.691 C21.06,13.677 20.895,13.627 20.756,13.537 C20.616,13.448 20.5,13.336 20.408,13.202 C20.234,12.951 20.154,12.698 20.167,12.443 C20.18,12.189 20.27,11.927 20.438,11.658 C20.605,11.389 20.839,11.108 21.14,10.814 C21.44,10.52 21.79,10.208 22.19,9.877 L22.178,9.859 C22.085,9.725 21.99,9.619 21.89,9.541 C21.791,9.463 21.678,9.418 21.551,9.407 C21.424,9.396 21.279,9.421 21.117,9.482 C20.955,9.543 20.769,9.646 20.558,9.792 C20.391,9.907 20.252,10.021 20.139,10.135 C20.026,10.249 19.949,10.336 19.906,10.395 L19.834,10.499 L19.493,10.097 L19.594,9.982 C19.656,9.916 19.749,9.826 19.875,9.712 C20,9.599 20.138,9.49 20.288,9.386 C20.799,9.033 21.241,8.875 21.613,8.911 C21.985,8.947 22.304,9.158 22.571,9.543 L23.747,11.246 L23.873,11.415 L23.977,11.514 L24.104,11.575 L24.298,11.629 L24.638,11.717 L24.097,12.091 L24.097,12.091 Z M22.471,10.285 C22.078,10.61 21.753,10.901 21.493,11.158 C21.234,11.415 21.036,11.648 20.901,11.855 C20.766,12.063 20.693,12.251 20.681,12.42 C20.669,12.59 20.717,12.752 20.824,12.906 L21.004,13.082 C21.082,13.139 21.185,13.173 21.312,13.184 C21.439,13.195 21.592,13.172 21.771,13.114 C21.95,13.057 22.163,12.942 22.41,12.771 C22.475,12.727 22.553,12.664 22.643,12.583 C22.734,12.502 22.823,12.405 22.909,12.291 C22.995,12.178 23.071,12.051 23.135,11.91 C23.2,11.769 23.242,11.615 23.263,11.445 L22.471,10.285 L22.471,10.285 Z" id="Shape"></path>
                    <path d="M28.337,9.714 L26.951,7.11 C26.887,6.988 26.814,6.883 26.733,6.795 C26.652,6.707 26.555,6.645 26.442,6.61 C26.344,6.584 26.225,6.577 26.083,6.588 C25.941,6.599 25.77,6.658 25.57,6.765 C25.34,6.888 25.101,7.085 24.855,7.355 L24.69,7.561 L24.53,7.809 L24.384,8.071 L24.266,8.314 L25.746,11.094 L25.289,11.337 L23.267,7.54 L23.724,7.297 L23.769,7.39 L23.87,7.596 L23.975,7.816 C24.133,7.515 24.308,7.251 24.5,7.025 C24.755,6.728 25.039,6.495 25.352,6.329 C25.813,6.083 26.229,6.021 26.601,6.141 C26.77,6.196 26.918,6.281 27.045,6.394 C27.172,6.508 27.29,6.665 27.396,6.865 L28.786,9.475 L28.337,9.714 L28.337,9.714 Z" id="Shape"></path>
                    <path d="M33.182,7.045 C33.114,7.222 33.022,7.389 32.909,7.544 C32.795,7.699 32.65,7.843 32.473,7.975 C32.297,8.107 32.08,8.223 31.823,8.323 C31.543,8.432 31.254,8.498 30.956,8.522 C30.659,8.545 30.373,8.512 30.101,8.422 C29.829,8.332 29.578,8.181 29.35,7.969 C29.122,7.756 28.936,7.466 28.793,7.099 C28.654,6.741 28.597,6.406 28.624,6.094 C28.651,5.782 28.735,5.5 28.877,5.246 C29.019,4.993 29.207,4.773 29.441,4.586 C29.675,4.4 29.928,4.254 30.199,4.148 C30.626,3.982 31.01,3.921 31.35,3.966 C31.69,4.011 32.037,4.142 32.391,4.359 L32.071,4.761 C31.938,4.676 31.807,4.606 31.68,4.552 C31.554,4.498 31.424,4.464 31.291,4.449 C31.159,4.434 31.018,4.439 30.868,4.463 C30.719,4.487 30.554,4.534 30.375,4.603 C30.154,4.689 29.953,4.807 29.771,4.957 C29.588,5.107 29.442,5.282 29.332,5.481 C29.222,5.68 29.157,5.9 29.138,6.143 C29.119,6.386 29.162,6.643 29.267,6.914 C29.378,7.199 29.522,7.425 29.702,7.594 C29.881,7.762 30.077,7.882 30.29,7.952 C30.502,8.023 30.727,8.048 30.962,8.028 C31.197,8.007 31.425,7.955 31.646,7.869 C31.848,7.79 32.017,7.701 32.152,7.601 C32.288,7.5 32.401,7.392 32.493,7.274 C32.585,7.156 32.657,7.028 32.708,6.889 C32.759,6.75 32.8,6.603 32.83,6.449 L33.34,6.496 C33.304,6.685 33.251,6.868 33.182,7.045 L33.182,7.045 Z" id="Shape"></path>
                    <path d="M34.099,5.311 C34.193,5.592 34.322,5.817 34.485,5.985 C34.649,6.154 34.829,6.277 35.026,6.356 C35.222,6.434 35.423,6.475 35.63,6.477 C35.837,6.479 36.033,6.456 36.219,6.407 C36.42,6.354 36.623,6.282 36.831,6.19 C37.039,6.097 37.233,6.003 37.414,5.907 C37.595,5.811 37.752,5.722 37.886,5.638 C38.02,5.555 38.11,5.497 38.157,5.464 L38.316,5.926 C38.052,6.087 37.822,6.219 37.626,6.324 C37.43,6.429 37.216,6.534 36.987,6.64 C36.757,6.746 36.547,6.824 36.356,6.874 C36.065,6.95 35.767,6.978 35.461,6.959 C35.155,6.939 34.865,6.854 34.591,6.701 C34.352,6.565 34.141,6.378 33.959,6.14 C33.777,5.903 33.639,5.602 33.544,5.24 C33.458,4.911 33.439,4.6 33.487,4.307 C33.535,4.014 33.642,3.747 33.808,3.505 C33.963,3.281 34.155,3.086 34.384,2.919 C34.613,2.752 34.892,2.626 35.221,2.54 C35.512,2.464 35.802,2.448 36.091,2.492 C36.38,2.536 36.655,2.638 36.916,2.8 C37.13,2.937 37.326,3.126 37.503,3.364 C37.68,3.603 37.82,3.918 37.922,4.309 L34.099,5.311 L34.099,5.311 Z M37.278,3.999 C37.202,3.825 37.099,3.665 36.969,3.518 C36.839,3.372 36.689,3.251 36.52,3.158 C36.35,3.065 36.166,3.003 35.967,2.974 C35.768,2.944 35.562,2.957 35.347,3.014 C35.104,3.077 34.89,3.173 34.707,3.3 C34.523,3.427 34.374,3.574 34.257,3.742 C34.141,3.91 34.059,4.09 34.012,4.28 C33.965,4.47 33.956,4.661 33.986,4.852 L37.276,3.992 L37.278,3.999 L37.278,3.999 Z" id="Shape"></path>
                    <path d="M39.595,6.683 L39.151,6.762 L39.178,5.181 L39.731,5.083 L39.595,6.683 Z" id="Shape"></path>
                    <path d="M49.116,5.398 L48.731,5.404 L47.62,3.441 C47.474,3.172 47.323,2.906 47.171,2.642 C47.02,2.378 46.87,2.112 46.723,1.844 C46.584,2.117 46.447,2.386 46.311,2.649 C46.175,2.912 46.037,3.181 45.899,3.454 L44.852,5.467 L44.475,5.473 L42.084,1.209 L42.653,1.2 L43.749,3.164 C43.896,3.437 44.046,3.708 44.199,3.977 C44.351,4.246 44.503,4.517 44.656,4.79 C44.962,4.188 45.27,3.588 45.581,2.99 C45.892,2.391 46.212,1.773 46.541,1.137 L46.888,1.132 L48.007,3.11 C48.159,3.383 48.311,3.653 48.46,3.92 C48.61,4.186 48.761,4.454 48.913,4.722 C49.057,4.444 49.198,4.168 49.34,3.894 C49.481,3.621 49.62,3.347 49.759,3.074 L50.798,1.069 L51.368,1.06 L49.116,5.398 L49.116,5.398 Z" id="Shape"></path>
                    <path d="M52.356,3.721 C52.329,4.016 52.358,4.274 52.44,4.494 C52.523,4.714 52.639,4.899 52.788,5.05 C52.937,5.201 53.104,5.318 53.294,5.403 C53.482,5.487 53.671,5.545 53.861,5.574 C54.065,5.606 54.282,5.621 54.508,5.619 C54.736,5.617 54.951,5.609 55.156,5.593 C55.359,5.578 55.54,5.559 55.695,5.536 C55.851,5.513 55.957,5.496 56.013,5.485 L55.974,5.973 C55.669,6.015 55.405,6.044 55.183,6.062 C54.96,6.08 54.722,6.091 54.47,6.096 C54.217,6.101 53.993,6.089 53.798,6.058 C53.501,6.011 53.217,5.918 52.944,5.778 C52.672,5.638 52.44,5.443 52.251,5.194 C52.085,4.973 51.967,4.718 51.896,4.427 C51.824,4.136 51.818,3.806 51.875,3.436 C51.928,3.1 52.034,2.808 52.196,2.559 C52.356,2.31 52.561,2.108 52.811,1.952 C53.042,1.809 53.297,1.707 53.573,1.645 C53.85,1.583 54.157,1.579 54.493,1.632 C54.79,1.678 55.061,1.78 55.309,1.936 C55.556,2.092 55.767,2.296 55.942,2.548 C56.085,2.76 56.19,3.011 56.256,3.3 C56.322,3.59 56.324,3.935 56.262,4.334 L52.356,3.721 L52.356,3.721 Z M55.794,3.789 C55.794,3.6 55.764,3.412 55.703,3.225 C55.642,3.038 55.553,2.869 55.434,2.715 C55.315,2.561 55.171,2.432 55.001,2.325 C54.831,2.218 54.636,2.148 54.417,2.114 C54.169,2.075 53.935,2.077 53.716,2.12 C53.497,2.163 53.302,2.238 53.128,2.346 C52.953,2.453 52.807,2.585 52.688,2.741 C52.569,2.897 52.484,3.068 52.435,3.255 L55.794,3.782 L55.794,3.789 L55.794,3.789 Z" id="Shape"></path>
                    <rect id="Rectangle-path" transform="translate(57.828893, 3.849256) rotate(103.580422) translate(-57.828893, -3.849256) " x="54.9570148" y="3.59476661" width="5.74375599" height="0.508978377"></rect>
                    <rect id="Rectangle-path" transform="translate(59.426136, 4.270054) rotate(105.676234) translate(-59.426136, -4.270054) " x="56.5541473" y="4.01505524" width="5.74397668" height="0.509997929"></rect>
                    <path d="M64.311,7.578 C64.125,7.796 63.907,7.97 63.655,8.1 C63.402,8.23 63.118,8.304 62.801,8.322 C62.484,8.34 62.147,8.282 61.785,8.149 C61.535,8.057 61.326,7.949 61.156,7.823 C60.987,7.698 60.845,7.57 60.73,7.438 L60.606,7.274 L60.502,7.118 L60.36,7.53 L59.874,7.351 L61.856,1.96 L62.335,2.136 L61.694,3.877 C61.975,3.797 62.256,3.765 62.533,3.78 C62.81,3.795 63.082,3.852 63.345,3.948 C63.673,4.069 63.952,4.232 64.181,4.437 C64.41,4.642 64.583,4.874 64.701,5.133 C64.819,5.391 64.882,5.668 64.889,5.962 C64.897,6.256 64.846,6.551 64.737,6.847 C64.639,7.117 64.497,7.36 64.311,7.578 L64.311,7.578 Z M64.258,6.672 C64.342,6.445 64.383,6.219 64.382,5.993 C64.381,5.767 64.336,5.552 64.245,5.348 C64.154,5.144 64.019,4.961 63.841,4.798 C63.663,4.635 63.439,4.504 63.17,4.405 C62.902,4.306 62.632,4.258 62.361,4.261 C62.09,4.263 61.794,4.335 61.474,4.474 L60.716,6.535 L60.765,6.628 L60.825,6.732 L60.924,6.891 L61.051,7.06 C61.147,7.174 61.266,7.287 61.41,7.401 C61.555,7.514 61.738,7.612 61.961,7.694 C62.238,7.796 62.498,7.84 62.738,7.826 C62.98,7.812 63.199,7.757 63.398,7.659 C63.597,7.561 63.769,7.426 63.914,7.254 C64.059,7.082 64.171,6.887 64.251,6.669 L64.258,6.672 L64.258,6.672 Z" id="Shape"></path>
                    <path d="M65.844,7.548 C65.727,7.82 65.673,8.074 65.683,8.309 C65.694,8.544 65.745,8.756 65.84,8.945 C65.934,9.134 66.057,9.299 66.21,9.438 C66.363,9.577 66.525,9.69 66.696,9.778 C66.881,9.872 67.081,9.954 67.297,10.023 C67.514,10.092 67.722,10.151 67.92,10.2 C68.119,10.249 68.297,10.287 68.451,10.314 C68.607,10.341 68.713,10.358 68.77,10.365 L68.582,10.816 C68.277,10.761 68.018,10.707 67.801,10.654 C67.584,10.601 67.356,10.538 67.113,10.465 C66.871,10.391 66.662,10.309 66.487,10.219 C66.219,10.082 65.978,9.905 65.763,9.687 C65.547,9.469 65.388,9.212 65.284,8.916 C65.196,8.655 65.163,8.375 65.186,8.077 C65.208,7.779 65.305,7.463 65.475,7.129 C65.629,6.826 65.823,6.582 66.053,6.396 C66.284,6.209 66.542,6.081 66.827,6.011 C67.092,5.947 67.365,5.929 67.647,5.957 C67.929,5.985 68.221,6.076 68.524,6.231 C68.792,6.368 69.019,6.549 69.205,6.774 C69.393,7 69.529,7.259 69.617,7.553 C69.685,7.799 69.706,8.069 69.679,8.365 C69.652,8.661 69.546,8.989 69.363,9.349 L65.844,7.548 L65.844,7.548 Z M69.09,8.685 C69.149,8.505 69.178,8.316 69.18,8.121 C69.18,7.925 69.148,7.735 69.083,7.553 C69.019,7.37 68.922,7.202 68.793,7.048 C68.664,6.894 68.502,6.766 68.305,6.665 C68.08,6.551 67.858,6.48 67.637,6.453 C67.416,6.426 67.205,6.436 67.007,6.484 C66.808,6.532 66.627,6.611 66.466,6.722 C66.304,6.833 66.17,6.97 66.066,7.132 L69.093,8.68 L69.09,8.685 L69.09,8.685 Z" id="Shape"></path>
                    <path d="M69.262,11.676 L71.526,8.017 L71.96,8.285 L69.696,11.944 L69.262,11.676 L69.262,11.676 Z M71.778,7.609 L72.284,6.792 L72.718,7.06 L72.216,7.871 L71.778,7.609 L71.778,7.609 Z" id="Shape"></path>
                    <path d="M73.356,14.49 L75.095,12.107 C75.176,11.996 75.239,11.884 75.283,11.774 C75.327,11.664 75.341,11.549 75.322,11.432 C75.302,11.332 75.258,11.222 75.185,11.099 C75.113,10.976 74.986,10.848 74.802,10.715 C74.591,10.561 74.31,10.432 73.958,10.328 C73.884,10.304 73.8,10.285 73.704,10.27 C73.608,10.255 73.51,10.243 73.409,10.234 C73.309,10.225 73.21,10.219 73.11,10.217 C73.011,10.215 72.921,10.215 72.84,10.217 L70.984,12.76 L70.566,12.455 L73.102,8.979 L73.52,9.284 L73.456,9.366 L73.315,9.547 L73.163,9.737 C73.503,9.748 73.816,9.79 74.103,9.865 C74.482,9.965 74.815,10.119 75.101,10.328 C75.523,10.636 75.76,10.983 75.814,11.37 C75.838,11.546 75.827,11.717 75.78,11.881 C75.733,12.045 75.643,12.219 75.51,12.402 L73.766,14.79 L73.356,14.49 L73.356,14.49 Z" id="Shape"></path>
                    <path d="M77.149,18.667 C76.915,18.802 76.655,18.881 76.37,18.905 C76.102,18.924 75.831,18.881 75.556,18.775 C75.281,18.67 75.025,18.505 74.786,18.283 C74.462,17.98 74.224,17.658 74.069,17.319 C74.005,17.171 73.952,17.003 73.913,16.814 C73.874,16.626 73.851,16.386 73.845,16.097 L74.363,16.117 C74.359,16.308 74.368,16.482 74.388,16.637 C74.409,16.791 74.456,16.956 74.529,17.132 C74.582,17.256 74.656,17.385 74.754,17.519 C74.851,17.653 74.971,17.788 75.115,17.923 C75.265,18.064 75.449,18.185 75.666,18.286 C75.882,18.387 76.104,18.428 76.329,18.41 C76.519,18.393 76.705,18.336 76.883,18.24 C77.061,18.144 77.26,17.978 77.479,17.744 L77.554,17.663 C77.337,17.635 77.1,17.573 76.844,17.475 C76.588,17.377 76.325,17.202 76.055,16.95 C75.854,16.762 75.684,16.541 75.547,16.287 C75.408,16.034 75.322,15.765 75.287,15.482 C75.251,15.199 75.277,14.909 75.367,14.611 C75.457,14.314 75.627,14.03 75.88,13.76 C75.981,13.652 76.1,13.548 76.238,13.447 C76.376,13.346 76.529,13.259 76.7,13.186 C76.87,13.112 77.051,13.059 77.244,13.026 C77.435,12.994 77.638,12.995 77.848,13.029 C78.059,13.064 78.275,13.136 78.496,13.245 C78.717,13.354 78.939,13.513 79.163,13.722 C79.391,13.934 79.566,14.153 79.692,14.379 C79.818,14.605 79.903,14.846 79.947,15.103 L80.204,14.817 L80.582,15.17 L77.851,18.091 C77.618,18.341 77.383,18.532 77.149,18.667 L77.149,18.667 Z M79.5,15.579 C79.51,15.324 79.467,15.073 79.371,14.825 C79.275,14.577 79.098,14.332 78.839,14.09 C78.559,13.828 78.285,13.661 78.022,13.59 C77.759,13.519 77.512,13.502 77.286,13.539 C77.06,13.576 76.857,13.651 76.682,13.763 C76.506,13.875 76.369,13.986 76.267,14.094 C76.076,14.299 75.941,14.514 75.863,14.738 C75.785,14.962 75.756,15.185 75.775,15.405 C75.794,15.625 75.859,15.84 75.969,16.047 C76.079,16.254 76.224,16.442 76.404,16.61 C76.545,16.741 76.684,16.846 76.823,16.925 C76.961,17.004 77.097,17.064 77.232,17.105 C77.365,17.146 77.494,17.172 77.619,17.184 C77.743,17.196 77.862,17.201 77.977,17.201 L79.5,15.579 L79.5,15.579 Z" id="Shape"></path>
                </g>
            </g>
        </g>
    </g>
</svg>
